<svg xmlns="http://www.w3.org/2000/svg" fill="none" viewBox="0 0 2048 2048">
    <path fill="#333333" fill-rule="evenodd" d="M184.853 1103.11V1415.38H32V624.404H192.291C267.037 624.404 375.226 627.586 411.101 666.719C428.223 685.401 444.699 704.26 455.226 733.245C466.73 764.968 471.473 807.748 471.473 849.391C471.473 895.933 461.352 983.652 443.544 1019.9C425.737 1056.15 376.266 1086.14 376.266 1086.14C376.266 1086.14 446.384 1363.46 471.473 1415.4H312.639L227.688 1103.12H184.853V1103.11ZM185.269 985.595H219.907C253.869 985.595 284.772 984.737 304.182 963.523C323.592 942.309 319.369 903.569 319.369 865.697C319.369 828.187 322.229 783.713 304.182 766.373C286.135 749.034 254.566 745.872 219.918 745.872H185.259V985.605L185.269 985.595ZM1582.53 624.393H1777.06C1861.33 624.393 1926.09 640.162 1964.16 671.71C2002.23 703.247 2010.01 768.047 2010.01 836.836C2010.01 883.512 2002.91 922.262 1983.07 948.405C1963.24 974.549 1933.37 987.982 1933.37 987.982C1933.37 987.982 1977.6 1009.17 1994.26 1039.46C2010.93 1069.75 2016 1106.65 2016 1180.65C2016 1254.63 2007.16 1325.01 1968 1364.93C1928.83 1404.85 1872.08 1415.39 1804.86 1415.39H1582.53V624.393ZM1727.67 1055.24V1297.82H1790.64C1825.33 1297.82 1835.31 1291.15 1851.84 1273.69C1868.38 1256.23 1864.48 1212.53 1864.48 1176.53C1864.48 1155.93 1868.45 1099.72 1851.84 1077.83C1839.43 1061.48 1820.78 1055.24 1790.64 1055.24H1727.67ZM1727.69 933.928H1780.97C1815.11 933.928 1834.23 935.582 1848.02 914.781C1861.82 893.969 1860.54 867.723 1860.54 835.648C1860.54 805.712 1863.43 776.025 1840.39 756.081C1817.35 736.138 1810.83 737.399 1774.79 737.399H1727.69V933.928ZM1547.13 1012.32C1547.13 1055.11 1547.76 1098.23 1546.74 1139.28C1545.43 1191.91 1547.24 1249.02 1535.84 1289.9C1529.06 1314.16 1513.89 1327.62 1500.91 1344.94C1448.97 1414.19 1348.32 1415.39 1250.27 1415.39H1093.35V624.393H1267.33C1357.8 624.393 1457.7 623.722 1507.74 691.891C1523.68 713.611 1536.05 741.46 1541.39 773.369C1545.79 799.636 1544.34 828.652 1545.45 859.249C1545.95 873.375 1546.28 887.831 1546.62 902.515C1547.47 938.651 1547.14 975.882 1547.14 1012.32H1547.13ZM1403.48 1027.67C1403.48 793.064 1413.47 747.432 1308.35 747.432H1245.8V1293.01H1296.22C1409.43 1293.01 1403.49 1262.28 1403.49 1027.67H1403.48Z" clip-rule="evenodd"/>
    <path fill="#333333" fill-rule="evenodd" d="M791.507 624.414H953.618V1415.41H760.374C811.905 1410.8 858.671 1396.59 888.753 1359.5C927.967 1311.14 934.655 1235.03 934.655 1152.14C934.655 1104.88 932.804 1053.29 923.453 1007.67C917.597 979.044 908.589 950.606 895.888 933.804C862.904 890.229 821.776 873.664 756.994 873.664C645.758 873.664 617.392 916.92 617.392 916.92C617.392 842.623 613.98 815.736 628.834 782.431C643.688 749.127 664.928 743.578 695.114 743.578C725.279 743.578 763.994 751.442 774.958 806.622L923.453 772.346C913.134 695.673 855.415 639.614 791.507 624.414ZM708.709 1298.95C738.115 1298.95 757.087 1291.16 772.836 1267.77C788.584 1244.37 792.765 1201.7 792.765 1158.42C792.765 1120.78 792.485 1043.7 777.787 1022.07C763.068 1000.43 730.469 994.936 700.752 994.936C672.823 994.936 655.598 1000.61 635.835 1022.07C616.071 1043.52 622.208 1113.28 622.208 1141.78C622.208 1183.64 622.604 1238.92 641.171 1267.77C659.738 1296.61 680.177 1298.95 708.699 1298.95H708.709ZM1005.59 389H1041.28V1660H1005.59V389Z" clip-rule="evenodd"/>
</svg>
