<svg xmlns="http://www.w3.org/2000/svg" fill="currentColor" viewBox="0 0 259.42 161.13">
    <path d="M0 30.85h23.7c17.93 0 28 4.29 28 27.64v5.88c0 14.14-4 21-11.09 24.14l10.59 41.77H32.82L22.79 91h-4.86v39.23H0zm24.16 45.43c8.81 0 9.72-2.7 9.72-11.59v-6.52c0-8.1-.91-11.75-9.88-11.75h-6.07v29.86z" fill="#fff"/>
    <path d="M105.66 30.85H82c9.24 1.91 15.33 7.45 17.59 18.27L81.53 54.2c-.61-5.08-2.73-8.1-8.81-8.1-7.6 0-9.27 4.92-9.27 12.87v8.1c3.34-3.81 7.9-5.4 14.59-5.4 16.56 0 22.79 8.58 22.79 30v9.53c0 17.07-5.87 26.63-19.66 29.07h24.5z"/>
    <path d="M73.33 76.91c-7.44 0-9.88 3.65-9.88 13.5v11.28c0 10.32 2.58 13.66 9.88 13.66 7.75 0 9.88-4.13 9.88-13.66V90.25c-.01-9.68-1.83-13.34-9.88-13.34z"/>
    <path d="M145.78 30.85h26.59c22 0 27.8 11.28 27.8 27.64v43c0 16.84-6.68 28.75-27.65 28.75h-26.74zm26.74 83.7c8.05 0 9.72-4.13 9.72-12.55V58.81c0-6.83-1.22-11.91-9.88-11.91h-8.66v67.66zM207 30.85h23.55c17.93 0 28.11 3.65 28.11 24.94v2.54c0 10.64-3.19 15.72-8.81 18.58 6.38 2.54 9.57 8.26 9.57 20.33v6.35c0 23.35-10.18 26.68-28.26 26.68H207zm24 39.39c8.81 0 9.72-2.86 9.72-11.75v-1.43c0-8.26-.91-11.44-9.88-11.44h-5.92v24.62zm.46 45.27c9 0 10-3.49 10-11.75v-7.15c0-9.05-1.06-11.59-9.88-11.59h-6.68v30.5zM123.67 0h4.6v161.13h-4.6z" fill="#fff"/>
</svg>
