<svg width="1984" height="1271" viewBox="0 0 1984 1271" fill="none" xmlns="http://www.w3.org/2000/svg">
<path fill-rule="evenodd" clip-rule="evenodd" d="M152.853 714.106V1026.38H0V235.404H160.291C235.037 235.404 343.226 238.586 379.101 277.719C396.223 296.401 412.699 315.26 423.226 344.245C434.73 375.968 439.473 418.748 439.473 460.391C439.473 506.933 429.352 594.652 411.544 630.902C393.737 667.151 344.266 697.138 344.266 697.138C344.266 697.138 414.384 974.464 439.473 1026.4H280.639L195.688 714.116H152.853V714.106ZM153.269 596.595H187.907C221.869 596.595 252.772 595.737 272.182 574.523C291.592 553.309 287.369 514.569 287.369 476.697C287.369 439.187 290.229 394.713 272.182 377.373C254.135 360.034 222.566 356.872 187.918 356.872H153.259V596.605L153.269 596.595ZM1550.53 235.393H1745.06C1829.33 235.393 1894.09 251.162 1932.16 282.71C1970.23 314.247 1978.01 379.047 1978.01 447.836C1978.01 494.512 1970.91 533.262 1951.07 559.405C1931.24 585.549 1901.37 598.982 1901.37 598.982C1901.37 598.982 1945.6 620.165 1962.26 650.463C1978.93 680.75 1984 717.65 1984 791.647C1984 865.634 1975.16 936.014 1936 975.932C1896.83 1015.85 1840.08 1026.39 1772.86 1026.39H1550.53V235.393ZM1695.67 666.242V908.817H1758.64C1793.33 908.817 1803.31 902.152 1819.84 884.688C1836.38 867.225 1832.48 823.525 1832.48 787.534C1832.48 766.93 1836.45 710.716 1819.84 688.83C1807.43 672.483 1788.78 666.242 1758.64 666.242H1695.67ZM1695.69 544.928H1748.97C1783.11 544.928 1802.23 546.582 1816.02 525.781C1829.82 504.969 1828.54 478.723 1828.54 446.648C1828.54 416.712 1831.43 387.025 1808.39 367.081C1785.35 347.138 1778.83 348.399 1742.79 348.399H1695.69V544.928ZM1515.13 623.317C1515.13 666.107 1515.76 709.228 1514.74 750.283C1513.43 802.91 1515.24 860.023 1503.84 900.901C1497.06 925.164 1481.89 938.618 1468.91 955.937C1416.97 1025.19 1316.32 1026.39 1218.27 1026.39H1061.35V235.393H1235.33C1325.8 235.393 1425.7 234.722 1475.74 302.891C1491.68 324.611 1504.05 352.46 1509.39 384.369C1513.79 410.636 1512.34 439.652 1513.45 470.249C1513.95 484.375 1514.28 498.831 1514.62 513.515C1515.47 549.651 1515.14 586.882 1515.14 623.317H1515.13ZM1371.48 638.672C1371.48 404.064 1381.47 358.432 1276.35 358.432H1213.8V904.012H1264.22C1377.43 904.012 1371.49 873.28 1371.49 638.672H1371.48Z" fill="#333333"/>
<path fill-rule="evenodd" clip-rule="evenodd" d="M759.507 235.414H921.618V1026.41H728.374C779.905 1021.8 826.671 1007.59 856.753 970.496C895.967 922.136 902.655 846.031 902.655 763.137C902.655 715.883 900.804 664.289 891.453 618.667C885.596 590.044 876.589 561.606 863.888 544.804C830.904 501.229 789.776 484.664 724.994 484.664C613.758 484.664 585.392 527.92 585.392 527.92C585.392 453.623 581.98 426.736 596.834 393.431C611.688 360.127 632.928 354.578 663.114 354.578C693.279 354.578 731.994 362.442 742.958 417.622L891.453 383.346C881.134 306.673 823.415 250.614 759.507 235.414ZM676.709 909.953C706.115 909.953 725.087 902.162 740.836 878.767C756.584 855.373 760.765 812.696 760.765 769.42C760.765 731.776 760.485 654.699 745.787 633.072C731.068 611.434 698.469 605.936 668.752 605.936C640.823 605.936 623.598 611.609 603.835 633.072C584.071 654.524 590.208 724.284 590.208 752.783C590.208 794.644 590.604 849.917 609.171 878.767C627.738 907.608 648.177 909.953 676.699 909.953H676.709ZM973.592 0H1009.28V1271H973.592V0Z" fill="#333333"/>
</svg>
