<svg xmlns="http://www.w3.org/2000/svg" viewBox="0 0 256 168.11940298507463" clip-path="url(#clip)" width="1215" height="797.9104477611941">
    <defs>
        <clipPath id="clip" clipPathUnits="objectBoundingBox">
            <rect x="0" y="0" width="256" height="168.11940298507463"/>
        </clipPath>
    </defs>
    <rect x="0" y="0" width="256" height="168.11940298507463" fill="rgb(28, 28, 29)"/>
    <path d="M32,92L60,153L64,105Z" fill="rgb(200, 213, 218)" fill-opacity="0.61"/>
    <path d="M284,112L217,108L240,116Z" fill="rgb(250, 202, 177)" fill-opacity="0.63"/>
    <path d="M343,150L48,-83L103,154Z" fill="rgb(217, 232, 240)" fill-opacity="0.16"/>
    <path d="M69,4L117,76L182,58Z" fill="rgb(120, 132, 140)" fill-opacity="0.45"/>
    <path d="M77,13L72,84L46,85Z" fill="rgb(175, 204, 216)" fill-opacity="0.34"/>
    <path d="M64,275L4,68L80,16Z" fill="rgb(131, 190, 214)" fill-opacity="0.12"/>
    <path d="M218,94L198,105L196,85Z" fill="rgb(185, 154, 147)" fill-opacity="0.67"/>
    <path d="M228,96L292,111L257,67Z" fill="rgb(173, 74, 41)" fill-opacity="0.54"/>
    <path d="M52,106L93,74L41,98Z" fill="rgb(29, 36, 39)" fill-opacity="0.98"/>
    <path d="M131,62L148,51L156,62Z" fill="rgb(225, 231, 241)" fill-opacity="0.60"/>
    <path d="M127,145L131,130L122,133Z" fill="rgb(229, 245, 250)" fill-opacity="0.56"/>
    <path d="M155,177L157,47L209,167Z" fill="rgb(18, 27, 32)" fill-opacity="0.84"/>
    <path d="M275,131L214,155L193,135Z" fill="rgb(238, 248, 192)" fill-opacity="0.24"/>
    <path d="M33,99L46,109L37,78Z" fill="rgb(226, 204, 183)" fill-opacity="0.45"/>
    <path d="M190,28L180,19L189,49Z" fill="rgb(252, 194, 164)" fill-opacity="0.52"/>
    <path d="M103,29L86,36L92,43Z" fill="rgb(252, 198, 179)" fill-opacity="0.53"/>
    <path d="M202,92L190,28L254,80Z" fill="rgb(16, 4, 3)" fill-opacity="0.48"/>
    <path d="M134,92L122,81L120,111Z" fill="rgb(153, 170, 178)" fill-opacity="0.41"/>
    <path d="M67,64L110,30L81,104Z" fill="rgb(33, 36, 40)" fill-opacity="0.78"/>
    <path d="M136,154L110,174L122,153Z" fill="rgb(143, 145, 121)" fill-opacity="0.43"/>
    <path d="M51,128L2,59L57,127Z" fill="rgb(72, 78, 80)" fill-opacity="1.00"/>
    <path d="M59,125L65,100L46,108Z" fill="rgb(252, 254, 252)" fill-opacity="0.47"/>
    <path d="M84,13L67,25L104,18Z" fill="rgb(196, 199, 202)" fill-opacity="0.53"/>
    <path d="M168,56L178,17L165,27Z" fill="rgb(142, 173, 186)" fill-opacity="0.39"/>
    <path d="M170,-77L137,49L165,58Z" fill="rgb(28, 39, 45)" fill-opacity="0.68"/>
    <path d="M38,136L7,151L40,150Z" fill="rgb(119, 197, 230)" fill-opacity="0.21"/>
    <path d="M51,84L58,84L71,51Z" fill="rgb(247, 249, 248)" fill-opacity="0.37"/>
    <path d="M196,121L201,148L210,128Z" fill="rgb(156, 173, 187)" fill-opacity="0.41"/>
    <path d="M107,50L117,40L119,50Z" fill="rgb(217, 234, 241)" fill-opacity="0.33"/>
    <path d="M108,116L113,116L109,133Z" fill="rgb(167, 171, 168)" fill-opacity="0.45"/>
    <path d="M27,94L22,102L24,84Z" fill="rgb(242, 214, 195)" fill-opacity="0.36"/>
    <path d="M188,24L192,37L185,35Z" fill="rgb(251, 216, 188)" fill-opacity="0.59"/>
    <path d="M21,105L94,28L61,24Z" fill="rgb(43, 52, 57)" fill-opacity="0.72"/>
    <path d="M34,56L45,45L27,57Z" fill="rgb(187, 195, 196)" fill-opacity="0.47"/>
    <path d="M186,39L186,48L190,42Z" fill="rgb(255, 211, 170)" fill-opacity="0.54"/>
    <path d="M68,95L74,96L75,88Z" fill="rgb(187, 194, 196)" fill-opacity="0.52"/>
    <path d="M223,147L244,128L250,147Z" fill="rgb(233, 209, 86)" fill-opacity="0.32"/>
    <path d="M47,19L161,5L136,-196Z" fill="rgb(28, 38, 44)" fill-opacity="0.78"/>
    <path d="M63,159L60,133L71,162Z" fill="rgb(145, 151, 151)" fill-opacity="0.43"/>
    <path d="M105,33L91,82L97,99Z" fill="rgb(207, 224, 234)" fill-opacity="0.22"/>
    <path d="M173,66L189,66L184,77Z" fill="rgb(120, 140, 151)" fill-opacity="0.64"/>
    <path d="M197,69L204,107L190,62Z" fill="rgb(194, 180, 183)" fill-opacity="0.36"/>
    <path d="M139,83L142,79L133,26Z" fill="rgb(201, 225, 235)" fill-opacity="0.36"/>
    <path d="M16,62L16,65L4,69Z" fill="rgb(195, 200, 202)" fill-opacity="0.56"/>
    <path d="M109,57L104,55L143,40Z" fill="rgb(5, 14, 15)" fill-opacity="0.48"/>
    <path d="M98,23L117,42L137,4Z" fill="rgb(53, 58, 63)" fill-opacity="0.82"/>
    <path d="M240,113L271,118L253,161Z" fill="rgb(60, 38, 23)" fill-opacity="0.57"/>
    <path d="M142,62L112,79L110,62Z" fill="rgb(1, 15, 18)" fill-opacity="0.33"/>
    <path d="M77,18L88,14L67,27Z" fill="rgb(251, 250, 252)" fill-opacity="0.44"/>
    <path d="M100,136L105,84L112,207Z" fill="rgb(13, 26, 33)" fill-opacity="0.64"/>
    <path d="M143,33L128,32L120,75Z" fill="rgb(135, 146, 150)" fill-opacity="0.48"/>
    <path d="M69,69L63,81L79,65Z" fill="rgb(227, 228, 222)" fill-opacity="0.31"/>
    <path d="M94,36L114,42L91,17Z" fill="rgb(189, 159, 159)" fill-opacity="0.29"/>
    <path d="M210,73L193,29L186,56Z" fill="rgb(26, 28, 30)" fill-opacity="0.96"/>
    <path d="M78,114L47,94L61,79Z" fill="rgb(12, 18, 23)" fill-opacity="0.47"/>
    <path d="M210,97L217,99L210,87Z" fill="rgb(246, 201, 179)" fill-opacity="0.46"/>
    <path d="M20,84L24,82L18,81Z" fill="rgb(255, 242, 230)" fill-opacity="0.54"/>
    <path d="M119,103L132,92L129,109Z" fill="rgb(134, 144, 146)" fill-opacity="0.46"/>
    <path d="M252,133L201,123L206,95Z" fill="rgb(58, 43, 40)" fill-opacity="0.70"/>
    <path d="M232,138L242,129L187,112Z" fill="rgb(16, 25, 29)" fill-opacity="0.44"/>
    <path d="M196,147L201,166L228,147Z" fill="rgb(39, 53, 62)" fill-opacity="0.60"/>
    <path d="M199,84L206,104L198,96Z" fill="rgb(248, 237, 240)" fill-opacity="0.44"/>
    <path d="M245,112L190,77L306,118Z" fill="rgb(94, 48, 35)" fill-opacity="0.54"/>
    <path d="M119,70L138,50L132,48Z" fill="rgb(255, 255, 249)" fill-opacity="0.19"/>
    <path d="M60,144L57,133L48,125Z" fill="rgb(247, 250, 251)" fill-opacity="0.68"/>
    <path d="M249,98L280,95L262,47Z" fill="rgb(248, 115, 63)" fill-opacity="0.40"/>
    <path d="M171,21L184,21L168,27Z" fill="rgb(192, 203, 207)" fill-opacity="0.47"/>
    <path d="M114,111L114,102L116,115Z" fill="rgb(248, 255, 255)" fill-opacity="0.54"/>
    <path d="M34,146L51,132L60,145Z" fill="rgb(63, 84, 95)" fill-opacity="0.89"/>
    <path d="M98,108L94,114L98,92Z" fill="rgb(129, 137, 135)" fill-opacity="0.54"/>
    <path d="M104,181L58,115L95,120Z" fill="rgb(13, 24, 30)" fill-opacity="0.64"/>
    <path d="M74,36L96,44L80,47Z" fill="rgb(232, 160, 147)" fill-opacity="0.24"/>
    <path d="M38,49L51,48L72,38Z" fill="rgb(193, 210, 213)" fill-opacity="0.26"/>
    <path d="M144,164L206,230L149,110Z" fill="rgb(23, 34, 41)" fill-opacity="0.75"/>
    <path d="M219,120L211,112L232,122Z" fill="rgb(167, 125, 107)" fill-opacity="0.47"/>
    <path d="M192,101L168,241L199,139Z" fill="rgb(18, 25, 30)" fill-opacity="0.74"/>
    <path d="M156,130L156,118L158,132Z" fill="rgb(214, 222, 225)" fill-opacity="0.48"/>
    <path d="M102,61L94,68L102,56Z" fill="rgb(190, 197, 198)" fill-opacity="0.47"/>
    <path d="M251,137L236,130L253,132Z" fill="rgb(250, 213, 119)" fill-opacity="0.32"/>
    <path d="M-27,83L-1,125L28,61Z" fill="rgb(18, 22, 25)" fill-opacity="0.74"/>
    <path d="M129,82L135,62L145,129Z" fill="rgb(26, 37, 43)" fill-opacity="0.78"/>
    <path d="M234,148L233,141L192,141Z" fill="rgb(171, 216, 252)" fill-opacity="0.26"/>
    <path d="M183,97L188,84L202,119Z" fill="rgb(191, 218, 241)" fill-opacity="0.14"/>
    <path d="M80,37L89,21L69,26Z" fill="rgb(17, 26, 32)" fill-opacity="0.59"/>
    <path d="M149,108L164,92L142,59Z" fill="rgb(36, 46, 52)" fill-opacity="0.91"/>
    <path d="M158,58L178,33L154,51Z" fill="rgb(134, 151, 160)" fill-opacity="0.31"/>
    <path d="M200,115L199,117L199,101Z" fill="rgb(210, 202, 201)" fill-opacity="0.57"/>
    <path d="M63,102L46,105L36,59Z" fill="rgb(25, 33, 35)" fill-opacity="0.79"/>
    <path d="M75,194L-2,165L59,147Z" fill="rgb(15, 27, 35)" fill-opacity="0.74"/>
    <path d="M137,126L138,151L118,103Z" fill="rgb(27, 40, 46)" fill-opacity="0.72"/>
    <path d="M194,109L194,92L190,109Z" fill="rgb(0, 4, 9)" fill-opacity="0.50"/>
    <path d="M110,43L81,76L99,38Z" fill="rgb(29, 29, 31)" fill-opacity="0.60"/>
    <path d="M68,87L86,94L64,91Z" fill="rgb(76, 89, 97)" fill-opacity="0.48"/>
    <path d="M111,131L131,127L124,111Z" fill="rgb(21, 34, 42)" fill-opacity="0.65"/>
    <path d="M107,79L117,69L101,90Z" fill="rgb(139, 149, 156)" fill-opacity="0.55"/>
    <path d="M174,63L164,48L179,58Z" fill="rgb(125, 146, 159)" fill-opacity="0.59"/>
    <path d="M159,94L184,81L175,179Z" fill="rgb(16, 23, 29)" fill-opacity="0.60"/>
    <path d="M235,95L232,90L228,97Z" fill="rgb(180, 148, 129)" fill-opacity="0.47"/>
    <path d="M193,88L199,85L186,64Z" fill="rgb(23, 31, 39)" fill-opacity="0.53"/>
    <path d="M270,116L226,109L230,112Z" fill="rgb(255, 248, 238)" fill-opacity="0.63"/>
    <path d="M29,147L29,141L44,143Z" fill="rgb(101, 129, 141)" fill-opacity="0.58"/>
    <path d="M57,117L63,111L37,99Z" fill="rgb(251, 252, 251)" fill-opacity="0.36"/>
    <path d="M50,110L40,106L65,104Z" fill="rgb(228, 225, 223)" fill-opacity="0.67"/>
    <path d="M65,73L93,69L65,71Z" fill="rgb(37, 44, 47)" fill-opacity="0.87"/>
    <path d="M-4,150L2,101L43,131Z" fill="rgb(16, 25, 30)" fill-opacity="0.75"/>
    <path d="M124,131L130,139L125,144Z" fill="rgb(188, 198, 201)" fill-opacity="0.94"/>
    <path d="M130,44L142,44L118,50Z" fill="rgb(10, 19, 23)" fill-opacity="0.62"/>
    <path d="M137,148L122,155L149,140Z" fill="rgb(214, 221, 208)" fill-opacity="0.36"/>
    <path d="M193,120L224,160L228,130Z" fill="rgb(81, 96, 108)" fill-opacity="0.42"/>
    <path d="M174,45L166,48L187,63Z" fill="rgb(0, 1, 6)" fill-opacity="0.36"/>
    <path d="M162,57L162,60L167,63Z" fill="rgb(219, 224, 221)" fill-opacity="0.53"/>
    <path d="M68,86L70,86L68,71Z" fill="rgb(250, 244, 234)" fill-opacity="0.33"/>
    <path d="M36,92L44,105L40,88Z" fill="rgb(221, 218, 211)" fill-opacity="0.52"/>
    <path d="M213,-56L151,34L196,8Z" fill="rgb(32, 38, 41)" fill-opacity="0.80"/>
    <path d="M174,90L172,74L172,109Z" fill="rgb(198, 219, 238)" fill-opacity="0.26"/>
    <path d="M65,150L66,189L67,149Z" fill="rgb(255, 241, 231)" fill-opacity="0.41"/>
    <path d="M41,58L5,67L24,59Z" fill="rgb(130, 143, 142)" fill-opacity="0.35"/>
    <path d="M59,125L4,93L60,124Z" fill="rgb(28, 42, 48)" fill-opacity="0.57"/>
    <path d="M62,123L97,105L74,94Z" fill="rgb(19, 25, 30)" fill-opacity="0.95"/>
    <path d="M51,123L66,123L50,122Z" fill="rgb(213, 221, 230)" fill-opacity="0.55"/>
    <path d="M245,125L231,111L248,117Z" fill="rgb(113, 78, 75)" fill-opacity="0.55"/>
    <path d="M161,50L161,45L157,49Z" fill="rgb(175, 182, 178)" fill-opacity="0.43"/>
    <path d="M7,66L2,70L30,58Z" fill="rgb(239, 246, 240)" fill-opacity="0.19"/>
    <path d="M250,151L295,174L258,119Z" fill="rgb(22, 25, 28)" fill-opacity="0.80"/>
    <path d="M90,-36L175,12L138,35Z" fill="rgb(35, 44, 50)" fill-opacity="0.78"/>
    <path d="M140,144L132,136L123,153Z" fill="rgb(4, 20, 29)" fill-opacity="0.61"/>
    <path d="M156,85L157,54L151,63Z" fill="rgb(75, 90, 100)" fill-opacity="0.81"/>
    <path d="M60,114L34,124L29,124Z" fill="rgb(95, 111, 117)" fill-opacity="1.00"/>
    <path d="M173,62L163,53L167,64Z" fill="rgb(13, 21, 27)" fill-opacity="0.57"/>
    <path d="M117,69L106,68L117,49Z" fill="rgb(0, 6, 9)" fill-opacity="0.29"/>
    <path d="M93,75L98,85L96,64Z" fill="rgb(166, 175, 177)" fill-opacity="0.45"/>
    <path d="M81,75L80,73L65,85Z" fill="rgb(105, 114, 119)" fill-opacity="0.61"/>
    <path d="M69,50L72,57L83,51Z" fill="rgb(27, 28, 28)" fill-opacity="0.65"/>
    <path d="M271,54L242,96L214,85Z" fill="rgb(76, 43, 36)" fill-opacity="0.46"/>
    <path d="M128,95L130,102L128,99Z" fill="rgb(237, 247, 248)" fill-opacity="0.62"/>
    <path d="M72,151L63,148L69,121Z" fill="rgb(11, 19, 25)" fill-opacity="0.68"/>
    <path d="M98,95L102,86L103,90Z" fill="rgb(184, 194, 206)" fill-opacity="0.50"/>
    <path d="M142,131L149,155L140,101Z" fill="rgb(6, 16, 22)" fill-opacity="0.64"/>
    <path d="M130,59L130,46L132,54Z" fill="rgb(204, 209, 218)" fill-opacity="0.50"/>
    <path d="M180,49L188,20L170,25Z" fill="rgb(87, 77, 71)" fill-opacity="0.58"/>
    <path d="M52,157L15,157L20,136Z" fill="rgb(53, 92, 112)" fill-opacity="0.21"/>
    <path d="M132,72L127,74L127,71Z" fill="rgb(224, 238, 244)" fill-opacity="0.36"/>
    <path d="M111,21L103,29L124,19Z" fill="rgb(106, 114, 120)" fill-opacity="0.48"/>
    <path d="M77,57L70,58L78,58Z" fill="rgb(210, 212, 225)" fill-opacity="0.51"/>
    <path d="M251,116L285,84L254,116Z" fill="rgb(255, 221, 189)" fill-opacity="0.51"/>
    <path d="M51,16L91,12L59,24Z" fill="rgb(38, 46, 52)" fill-opacity="0.89"/>
    <path d="M116,159L139,145L140,146Z" fill="rgb(241, 253, 240)" fill-opacity="0.22"/>
    <path d="M152,54L151,70L141,55Z" fill="rgb(218, 249, 255)" fill-opacity="0.26"/>
    <path d="M82,132L98,168L62,167Z" fill="rgb(0, 14, 26)" fill-opacity="0.32"/>
    <path d="M168,85L172,76L174,80Z" fill="rgb(154, 157, 168)" fill-opacity="0.41"/>
    <path d="M174,20L166,34L168,26Z" fill="rgb(237, 249, 255)" fill-opacity="0.49"/>
    <path d="M139,108L136,121L141,125Z" fill="rgb(159, 214, 236)" fill-opacity="0.20"/>
    <path d="M40,109L42,110L38,88Z" fill="rgb(128, 123, 111)" fill-opacity="0.66"/>
    <path d="M251,159L237,148L246,138Z" fill="rgb(92, 95, 58)" fill-opacity="0.56"/>
    <path d="M43,118L45,116L64,140Z" fill="rgb(26, 42, 49)" fill-opacity="0.55"/>
    <path d="M109,114L129,76L109,78Z" fill="rgb(37, 51, 58)" fill-opacity="0.74"/>
    <path d="M76,35L79,43L78,48Z" fill="rgb(242, 255, 246)" fill-opacity="0.25"/>
    <path d="M21,108L23,86L-106,104Z" fill="rgb(19, 23, 26)" fill-opacity="0.70"/>
    <path d="M68,153L68,151L62,155Z" fill="rgb(253, 245, 236)" fill-opacity="0.48"/>
    <path d="M201,95L196,101L194,86Z" fill="rgb(124, 117, 120)" fill-opacity="0.72"/>
    <path d="M151,91L152,101L153,100Z" fill="rgb(139, 148, 151)" fill-opacity="0.52"/>
    <path d="M65,72L52,88L64,70Z" fill="rgb(250, 252, 248)" fill-opacity="0.36"/>
    <path d="M194,87L190,68L194,68Z" fill="rgb(19, 23, 27)" fill-opacity="0.90"/>
    <path d="M101,13L91,24L90,16Z" fill="rgb(101, 109, 115)" fill-opacity="0.83"/>
    <path d="M89,15L80,17L86,13Z" fill="rgb(255, 255, 255)" fill-opacity="0.42"/>
    <path d="M138,61L135,69L144,69Z" fill="rgb(219, 254, 254)" fill-opacity="0.25"/>
    <path d="M103,157L98,129L100,154Z" fill="rgb(59, 84, 95)" fill-opacity="0.53"/>
    <path d="M64,76L65,74L74,80Z" fill="rgb(249, 250, 245)" fill-opacity="0.48"/>
    <path d="M37,112L52,116L49,108Z" fill="rgb(115, 130, 135)" fill-opacity="0.73"/>
    <path d="M154,115L154,106L161,149Z" fill="rgb(189, 209, 209)" fill-opacity="0.27"/>
    <path d="M15,81L31,81L35,55Z" fill="rgb(28, 32, 34)" fill-opacity="0.79"/>
    <path d="M219,106L298,116L214,93Z" fill="rgb(72, 47, 41)" fill-opacity="1.00"/>
    <path d="M135,34L99,32L104,37Z" fill="rgb(45, 57, 66)" fill-opacity="0.75"/>
    <path d="M72,37L64,36L72,42Z" fill="rgb(136, 145, 149)" fill-opacity="0.52"/>
    <path d="M117,119L115,125L115,106Z" fill="rgb(244, 255, 240)" fill-opacity="0.29"/>
    <path d="M95,42L95,30L90,40Z" fill="rgb(255, 212, 191)" fill-opacity="0.53"/>
    <path d="M170,65L173,80L172,82Z" fill="rgb(233, 238, 255)" fill-opacity="0.28"/>
    <path d="M141,97L137,72L132,82Z" fill="rgb(17, 24, 28)" fill-opacity="0.76"/>
    <path d="M102,60L138,51L99,67Z" fill="rgb(123, 134, 135)" fill-opacity="0.34"/>
    <path d="M223,110L229,108L256,115Z" fill="rgb(255, 255, 242)" fill-opacity="0.46"/>
    <path d="M75,142L72,140L71,146Z" fill="rgb(136, 146, 158)" fill-opacity="0.46"/>
    <path d="M198,139L207,145L208,141Z" fill="rgb(184, 193, 199)" fill-opacity="0.62"/>
    <path d="M38,97L33,103L34,86Z" fill="rgb(126, 115, 106)" fill-opacity="0.61"/>
    <path d="M35,72L39,84L33,72Z" fill="rgb(128, 136, 134)" fill-opacity="0.41"/>
    <path d="M234,-66L299,0L233,83Z" fill="rgb(15, 11, 7)" fill-opacity="0.42"/>
    <path d="M170,29L177,22L156,62Z" fill="rgb(41, 56, 62)" fill-opacity="0.55"/>
    <path d="M183,83L190,76L174,58Z" fill="rgb(101, 113, 119)" fill-opacity="0.47"/>
    <path d="M78,47L78,39L77,39Z" fill="rgb(254, 249, 246)" fill-opacity="0.36"/>
    <path d="M185,50L186,49L182,46Z" fill="rgb(199, 180, 170)" fill-opacity="0.55"/>
    <path d="M57,126L62,130L60,126Z" fill="rgb(243, 249, 251)" fill-opacity="0.56"/>
    <path d="M94,73L72,119L99,38Z" fill="rgb(23, 28, 32)" fill-opacity="0.71"/>
    <path d="M65,146L59,153L65,154Z" fill="rgb(16, 31, 40)" fill-opacity="0.74"/>
    <path d="M76,19L95,15L83,15Z" fill="rgb(215, 218, 219)" fill-opacity="0.50"/>
    <path d="M98,107L62,117L62,133Z" fill="rgb(20, 28, 33)" fill-opacity="0.74"/>
    <path d="M117,28L124,32L129,22Z" fill="rgb(137, 109, 105)" fill-opacity="0.38"/>
    <path d="M213,96L189,101L213,88Z" fill="rgb(194, 157, 146)" fill-opacity="0.31"/>
    <path d="M130,132L130,141L127,128Z" fill="rgb(199, 213, 213)" fill-opacity="0.64"/>
    <path d="M50,75L48,72L48,75Z" fill="rgb(224, 238, 248)" fill-opacity="0.50"/>
    <path d="M32,113L51,113L46,122Z" fill="rgb(24, 41, 51)" fill-opacity="0.47"/>
    <path d="M174,41L162,51L175,31Z" fill="rgb(127, 145, 156)" fill-opacity="0.44"/>
    <path d="M173,56L180,56L168,46Z" fill="rgb(12, 23, 28)" fill-opacity="0.64"/>
    <path d="M62,44L61,53L74,38Z" fill="rgb(22, 32, 36)" fill-opacity="0.45"/>
    <path d="M234,144L238,131L252,139Z" fill="rgb(143, 122, 60)" fill-opacity="0.61"/>
    <path d="M171,70L158,59L187,74Z" fill="rgb(62, 71, 77)" fill-opacity="0.95"/>
    <path d="M150,152L144,126L144,118Z" fill="rgb(127, 145, 148)" fill-opacity="0.36"/>
    <path d="M91,79L92,79L91,85Z" fill="rgb(242, 238, 247)" fill-opacity="0.59"/>
    <path d="M138,59L135,43L135,52Z" fill="rgb(248, 244, 241)" fill-opacity="0.40"/>
    <path d="M226,97L222,96L225,86Z" fill="rgb(141, 92, 75)" fill-opacity="0.47"/>
    <path d="M65,117L65,97L58,111Z" fill="rgb(162, 175, 179)" fill-opacity="0.39"/>
    <path d="M222,136L231,140L222,123Z" fill="rgb(16, 18, 34)" fill-opacity="0.36"/>
    <path d="M198,127L196,129L206,133Z" fill="rgb(185, 189, 187)" fill-opacity="0.42"/>
    <path d="M32,56L37,53L29,54Z" fill="rgb(249, 251, 251)" fill-opacity="0.54"/>
    <path d="M171,21L149,54L206,-75Z" fill="rgb(31, 37, 41)" fill-opacity="1.00"/>
    <path d="M49,158L59,140L31,147Z" fill="rgb(39, 58, 68)" fill-opacity="0.51"/>
    <path d="M236,-14L195,84L238,80Z" fill="rgb(28, 26, 27)" fill-opacity="0.47"/>
    <path d="M247,80L327,49L252,103Z" fill="rgb(191, 90, 56)" fill-opacity="0.36"/>
    <path d="M143,97L144,111L145,104Z" fill="rgb(153, 151, 150)" fill-opacity="0.55"/>
    <path d="M72,57L64,71L78,63Z" fill="rgb(24, 30, 31)" fill-opacity="0.55"/>
    <path d="M55,81L63,75L52,88Z" fill="rgb(254, 252, 243)" fill-opacity="0.34"/>
    <path d="M205,116L216,152L208,108Z" fill="rgb(2, 19, 26)" fill-opacity="0.25"/>
    <path d="M124,152L106,169L122,101Z" fill="rgb(39, 58, 69)" fill-opacity="0.50"/>
    <path d="M53,141L50,141L53,142Z" fill="rgb(237, 248, 253)" fill-opacity="0.55"/>
    <path d="M43,68L55,56L34,50Z" fill="rgb(24, 35, 41)" fill-opacity="0.62"/>
    <path d="M35,65L38,84L32,65Z" fill="rgb(224, 249, 246)" fill-opacity="0.15"/>
    <path d="M183,31L191,42L180,33Z" fill="rgb(126, 94, 81)" fill-opacity="1.00"/>
    <path d="M207,125L196,123L196,126Z" fill="rgb(195, 192, 187)" fill-opacity="0.36"/>
    <path d="M236,117L230,125L239,111Z" fill="rgb(137, 123, 119)" fill-opacity="0.76"/>
    <path d="M224,144L223,139L206,147Z" fill="rgb(132, 147, 157)" fill-opacity="0.50"/>
    <path d="M63,122L55,114L58,123Z" fill="rgb(238, 241, 242)" fill-opacity="0.66"/>
    <path d="M110,99L108,98L107,92Z" fill="rgb(151, 174, 170)" fill-opacity="0.52"/>
    <path d="M156,64L128,59L139,56Z" fill="rgb(149, 147, 155)" fill-opacity="0.47"/>
    <path d="M25,88L23,89L24,94Z" fill="rgb(250, 242, 234)" fill-opacity="0.61"/>
    <path d="M212,95L193,60L209,95Z" fill="rgb(83, 56, 53)" fill-opacity="0.52"/>
    <path d="M151,74L148,79L149,47Z" fill="rgb(73, 91, 106)" fill-opacity="0.48"/>
    <path d="M77,92L70,97L70,92Z" fill="rgb(245, 249, 247)" fill-opacity="0.31"/>
    <path d="M118,41L110,41L98,35Z" fill="rgb(253, 216, 199)" fill-opacity="0.25"/>
    <path d="M127,64L114,74L137,64Z" fill="rgb(34, 45, 49)" fill-opacity="0.77"/>
    <path d="M44,125L30,124L46,147Z" fill="rgb(23, 36, 44)" fill-opacity="0.66"/>
    <path d="M153,107L153,101L155,115Z" fill="rgb(177, 184, 182)" fill-opacity="0.55"/>
    <path d="M90,77L99,107L96,93Z" fill="rgb(156, 162, 162)" fill-opacity="0.50"/>
    <path d="M81,22L82,49L73,26Z" fill="rgb(27, 36, 40)" fill-opacity="0.59"/>
    <path d="M84,68L93,137L96,95Z" fill="rgb(26, 31, 34)" fill-opacity="0.62"/>
    <path d="M22,88L25,93L25,88Z" fill="rgb(255, 251, 250)" fill-opacity="0.41"/>
    <path d="M171,69L178,90L179,78Z" fill="rgb(23, 35, 41)" fill-opacity="0.70"/>
    <path d="M196,120L198,123L198,99Z" fill="rgb(24, 28, 27)" fill-opacity="0.50"/>
    <path d="M63,145L51,126L54,137Z" fill="rgb(247, 252, 254)" fill-opacity="0.40"/>
    <path d="M221,99L218,96L207,96Z" fill="rgb(255, 252, 224)" fill-opacity="0.32"/>
    <path d="M104,59L102,57L133,44Z" fill="rgb(8, 14, 19)" fill-opacity="0.56"/>
    <path d="M164,-24L206,59L212,13Z" fill="rgb(34, 37, 39)" fill-opacity="0.80"/>
    <path d="M127,88L128,91L127,94Z" fill="rgb(255, 255, 255)" fill-opacity="0.48"/>
    <path d="M125,127L118,120L117,94Z" fill="rgb(21, 30, 36)" fill-opacity="0.62"/>
    <path d="M133,90L130,111L138,101Z" fill="rgb(60, 79, 87)" fill-opacity="0.57"/>
    <path d="M60,118L60,144L61,134Z" fill="rgb(211, 220, 229)" fill-opacity="0.51"/>
    <path d="M112,132L115,148L110,134Z" fill="rgb(112, 124, 124)" fill-opacity="0.53"/>
    <path d="M46,113L42,111L60,111Z" fill="rgb(193, 203, 206)" fill-opacity="0.76"/>
    <path d="M122,163L119,151L118,177Z" fill="rgb(106, 107, 101)" fill-opacity="0.53"/>
</svg>