<svg xmlns="http://www.w3.org/2000/svg" viewBox="0 0 212.30131306150656 256" clip-path="url(#clip)">
    <defs>
        <clipPath id="clip" clipPathUnits="objectBoundingBox">
            <rect x="0" y="0" width="212.30131306150656" height="256"/>
        </clipPath>
    </defs>
    <rect x="0" y="0" width="212.30131306150656" height="256" fill="rgb(81, 85, 83)"/>
    <path d="M232,4L81,-30L187,210Z" fill="rgb(162, 159, 149)" fill-opacity="0.86"/>
    <path d="M162,170L143,219L145,164Z" fill="rgb(186, 147, 114)" fill-opacity="0.86"/>
    <path d="M68,142L73,68L23,105Z" fill="rgb(146, 145, 135)" fill-opacity="0.92"/>
    <path d="M172,124L119,229L-19,135Z" fill="rgb(8, 0, 12)" fill-opacity="0.44"/>
    <path d="M101,-58L110,39L11,79Z" fill="rgb(127, 127, 117)" fill-opacity="0.73"/>
    <path d="M55,70L164,173L173,138Z" fill="rgb(60, 52, 51)" fill-opacity="0.95"/>
    <path d="M166,112L211,202L168,204Z" fill="rgb(174, 136, 104)" fill-opacity="0.71"/>
    <path d="M73,97L40,143L66,76Z" fill="rgb(255, 255, 240)" fill-opacity="0.36"/>
    <path d="M79,172L44,161L24,253Z" fill="rgb(135, 137, 122)" fill-opacity="0.36"/>
    <path d="M80,101L121,224L139,63Z" fill="rgb(12, 16, 29)" fill-opacity="0.57"/>
    <path d="M141,143L186,87L135,80Z" fill="rgb(254, 255, 233)" fill-opacity="0.29"/>
    <path d="M160,188L156,159L142,176Z" fill="rgb(207, 162, 129)" fill-opacity="0.84"/>
    <path d="M175,81L84,74L95,33Z" fill="rgb(46, 17, 2)" fill-opacity="0.26"/>
    <path d="M180,90L205,48L133,7Z" fill="rgb(193, 201, 196)" fill-opacity="0.59"/>
    <path d="M185,105L190,122L157,104Z" fill="rgb(33, 32, 34)" fill-opacity="0.29"/>
    <path d="M137,126L152,149L153,141Z" fill="rgb(174, 147, 128)" fill-opacity="0.94"/>
    <path d="M68,122L55,151L70,158Z" fill="rgb(117, 87, 67)" fill-opacity="1.00"/>
    <path d="M159,251L-167,290L1,228Z" fill="rgb(0, 27, 40)" fill-opacity="0.35"/>
    <path d="M241,32L195,186L181,170Z" fill="rgb(119, 110, 102)" fill-opacity="0.82"/>
    <path d="M151,-8L149,35L51,30Z" fill="rgb(158, 164, 154)" fill-opacity="0.59"/>
    <path d="M165,71L124,74L129,41Z" fill="rgb(113, 119, 110)" fill-opacity="0.77"/>
    <path d="M98,25L14,99L80,81Z" fill="rgb(113, 112, 104)" fill-opacity="0.74"/>
    <path d="M-21,94L-84,17L58,-27Z" fill="rgb(54, 58, 55)" fill-opacity="0.98"/>
    <path d="M52,112L44,128L58,134Z" fill="rgb(201, 198, 186)" fill-opacity="0.76"/>
    <path d="M146,315L143,196L199,226Z" fill="rgb(110, 127, 128)" fill-opacity="0.49"/>
    <path d="M86,79L101,75L99,89Z" fill="rgb(131, 134, 126)" fill-opacity="1.00"/>
    <path d="M27,197L48,106L-134,115Z" fill="rgb(71, 66, 64)" fill-opacity="0.70"/>
    <path d="M104,96L75,106L118,102Z" fill="rgb(80, 102, 118)" fill-opacity="0.54"/>
    <path d="M86,112L80,184L140,107Z" fill="rgb(28, 30, 39)" fill-opacity="1.00"/>
    <path d="M49,118L68,63L9,117Z" fill="rgb(120, 119, 110)" fill-opacity="0.75"/>
    <path d="M164,157L116,131L95,188Z" fill="rgb(19, 18, 27)" fill-opacity="0.70"/>
    <path d="M61,242L36,184L23,243Z" fill="rgb(187, 215, 191)" fill-opacity="0.18"/>
    <path d="M86,126L80,101L79,126Z" fill="rgb(215, 193, 146)" fill-opacity="0.61"/>
    <path d="M39,150L51,135L44,161Z" fill="rgb(104, 78, 59)" fill-opacity="0.96"/>
    <path d="M170,127L167,69L147,80Z" fill="rgb(146, 145, 133)" fill-opacity="0.88"/>
    <path d="M145,185L90,427L67,194Z" fill="rgb(39, 57, 72)" fill-opacity="0.69"/>
    <path d="M142,102L144,77L175,136Z" fill="rgb(251, 246, 230)" fill-opacity="0.43"/>
    <path d="M61,224L66,211L68,232Z" fill="rgb(133, 140, 129)" fill-opacity="0.85"/>
    <path d="M25,120L27,165L35,107Z" fill="rgb(103, 80, 73)" fill-opacity="0.98"/>
    <path d="M-4,45L23,89L-19,181Z" fill="rgb(55, 57, 50)" fill-opacity="0.62"/>
    <path d="M148,200L168,173L166,207Z" fill="rgb(43, 30, 30)" fill-opacity="0.47"/>
    <path d="M60,74L48,118L60,102Z" fill="rgb(129, 130, 119)" fill-opacity="1.00"/>
    <path d="M-7,241L17,239L10,308Z" fill="rgb(31, 38, 41)" fill-opacity="0.81"/>
    <path d="M184,104L168,94L180,62Z" fill="rgb(196, 198, 192)" fill-opacity="0.92"/>
    <path d="M231,35L156,1L252,-8Z" fill="rgb(121, 125, 120)" fill-opacity="0.93"/>
    <path d="M191,115L201,87L184,64Z" fill="rgb(184, 190, 189)" fill-opacity="0.53"/>
    <path d="M89,27L79,68L92,55Z" fill="rgb(213, 151, 97)" fill-opacity="0.44"/>
    <path d="M84,158L73,83L72,160Z" fill="rgb(44, 40, 44)" fill-opacity="0.95"/>
    <path d="M56,182L63,189L67,179Z" fill="rgb(137, 135, 123)" fill-opacity="0.87"/>
    <path d="M111,28L119,31L116,60Z" fill="rgb(203, 193, 170)" fill-opacity="0.62"/>
    <path d="M28,100L9,51L84,46Z" fill="rgb(99, 105, 100)" fill-opacity="0.89"/>
    <path d="M112,83L116,67L106,78Z" fill="rgb(109, 125, 123)" fill-opacity="0.81"/>
    <path d="M122,101L129,120L130,96Z" fill="rgb(65, 64, 59)" fill-opacity="0.91"/>
    <path d="M84,63L105,78L122,59Z" fill="rgb(50, 39, 39)" fill-opacity="0.86"/>
    <path d="M157,32L179,91L187,57Z" fill="rgb(192, 195, 188)" fill-opacity="1.00"/>
    <path d="M202,191L166,162L173,201Z" fill="rgb(180, 145, 112)" fill-opacity="0.90"/>
    <path d="M144,168L157,163L160,178Z" fill="rgb(217, 167, 130)" fill-opacity="0.87"/>
    <path d="M76,105L116,93L84,84Z" fill="rgb(32, 34, 41)" fill-opacity="0.79"/>
    <path d="M59,89L70,84L72,110Z" fill="rgb(207, 209, 200)" fill-opacity="0.85"/>
    <path d="M158,149L160,184L170,186Z" fill="rgb(52, 39, 37)" fill-opacity="0.92"/>
    <path d="M63,148L62,165L73,150Z" fill="rgb(104, 102, 92)" fill-opacity="0.92"/>
    <path d="M29,118L29,113L8,113Z" fill="rgb(176, 179, 158)" fill-opacity="0.60"/>
    <path d="M149,85L138,80L137,89Z" fill="rgb(237, 237, 225)" fill-opacity="0.87"/>
    <path d="M16,211L11,209L14,206Z" fill="rgb(147, 144, 122)" fill-opacity="0.91"/>
    <path d="M-23,191L-21,97L30,190Z" fill="rgb(1, 29, 36)" fill-opacity="0.28"/>
    <path d="M81,94L79,99L54,49Z" fill="rgb(94, 95, 94)" fill-opacity="1.00"/>
    <path d="M171,158L145,131L163,124Z" fill="rgb(60, 48, 45)" fill-opacity="0.92"/>
    <path d="M166,114L161,124L151,128Z" fill="rgb(200, 197, 186)" fill-opacity="0.92"/>
    <path d="M196,148L244,150L193,177Z" fill="rgb(82, 84, 81)" fill-opacity="0.74"/>
    <path d="M41,189L-9,203L24,209Z" fill="rgb(93, 103, 96)" fill-opacity="0.91"/>
    <path d="M198,72L203,79L196,81Z" fill="rgb(84, 90, 93)" fill-opacity="0.97"/>
    <path d="M155,210L157,203L142,204Z" fill="rgb(152, 142, 122)" fill-opacity="0.95"/>
    <path d="M107,220L106,252L171,221Z" fill="rgb(58, 86, 98)" fill-opacity="0.60"/>
    <path d="M151,190L141,191L150,206Z" fill="rgb(144, 107, 72)" fill-opacity="0.91"/>
    <path d="M95,61L81,40L92,63Z" fill="rgb(147, 95, 58)" fill-opacity="0.86"/>
    <path d="M98,82L95,84L94,75Z" fill="rgb(183, 188, 179)" fill-opacity="0.94"/>
    <path d="M62,158L47,126L49,191Z" fill="rgb(63, 34, 28)" fill-opacity="0.48"/>
    <path d="M64,100L53,128L71,120Z" fill="rgb(173, 178, 166)" fill-opacity="0.66"/>
    <path d="M207,79L146,12L193,23Z" fill="rgb(162, 167, 162)" fill-opacity="0.67"/>
    <path d="M71,190L49,214L47,187Z" fill="rgb(71, 77, 78)" fill-opacity="0.84"/>
    <path d="M53,227L21,214L50,212Z" fill="rgb(132, 142, 131)" fill-opacity="0.64"/>
    <path d="M196,205L211,203L205,177Z" fill="rgb(118, 101, 90)" fill-opacity="0.90"/>
    <path d="M72,93L82,53L67,43Z" fill="rgb(75, 81, 85)" fill-opacity="0.79"/>
    <path d="M68,167L56,188L62,161Z" fill="rgb(102, 94, 86)" fill-opacity="0.96"/>
    <path d="M4,70L26,61L54,94Z" fill="rgb(122, 124, 114)" fill-opacity="0.44"/>
    <path d="M194,137L175,166L169,118Z" fill="rgb(177, 151, 132)" fill-opacity="0.90"/>
    <path d="M98,20L89,29L118,27Z" fill="rgb(162, 163, 152)" fill-opacity="0.98"/>
    <path d="M68,129L101,123L96,142Z" fill="rgb(22, 23, 33)" fill-opacity="0.87"/>
    <path d="M131,83L138,77L154,75Z" fill="rgb(92, 93, 90)" fill-opacity="1.00"/>
    <path d="M105,111L132,212L144,185Z" fill="rgb(20, 16, 25)" fill-opacity="0.47"/>
    <path d="M198,239L207,220L235,285Z" fill="rgb(65, 69, 68)" fill-opacity="0.96"/>
    <path d="M53,132L68,119L62,135Z" fill="rgb(144, 139, 120)" fill-opacity="0.80"/>
    <path d="M140,94L142,100L129,163Z" fill="rgb(83, 69, 57)" fill-opacity="0.56"/>
    <path d="M92,47L116,48L94,54Z" fill="rgb(45, 34, 34)" fill-opacity="0.83"/>
    <path d="M100,-3L86,-52L34,33Z" fill="rgb(97, 100, 92)" fill-opacity="0.89"/>
    <path d="M41,153L44,126L51,149Z" fill="rgb(110, 81, 61)" fill-opacity="0.74"/>
    <path d="M199,204L164,202L176,219Z" fill="rgb(102, 89, 81)" fill-opacity="0.75"/>
    <path d="M55,149L61,154L61,139Z" fill="rgb(253, 89, 13)" fill-opacity="0.47"/>
    <path d="M116,57L119,174L122,61Z" fill="rgb(28, 28, 34)" fill-opacity="0.70"/>
    <path d="M227,84L210,149L178,131Z" fill="rgb(143, 130, 119)" fill-opacity="0.53"/>
    <path d="M142,177L155,191L160,175Z" fill="rgb(196, 158, 126)" fill-opacity="0.81"/>
    <path d="M173,138L169,156L163,129Z" fill="rgb(118, 90, 68)" fill-opacity="0.83"/>
    <path d="M80,151L69,153L66,177Z" fill="rgb(29, 29, 38)" fill-opacity="0.91"/>
    <path d="M118,88L130,71L97,89Z" fill="rgb(64, 65, 64)" fill-opacity="0.89"/>
    <path d="M8,144L10,103L19,153Z" fill="rgb(85, 73, 65)" fill-opacity="0.98"/>
    <path d="M49,111L4,114L8,103Z" fill="rgb(95, 73, 65)" fill-opacity="0.67"/>
    <path d="M37,204L45,198L34,191Z" fill="rgb(129, 133, 120)" fill-opacity="1.00"/>
    <path d="M90,32L116,49L106,29Z" fill="rgb(116, 101, 89)" fill-opacity="0.87"/>
    <path d="M154,128L140,113L148,99Z" fill="rgb(163, 167, 156)" fill-opacity="0.88"/>
    <path d="M90,77L81,62L77,86Z" fill="rgb(180, 140, 107)" fill-opacity="0.33"/>
    <path d="M154,93L145,81L153,109Z" fill="rgb(248, 240, 224)" fill-opacity="0.66"/>
    <path d="M48,178L44,180L44,157Z" fill="rgb(134, 107, 81)" fill-opacity="0.98"/>
    <path d="M185,115L187,83L183,81Z" fill="rgb(90, 95, 98)" fill-opacity="0.90"/>
    <path d="M70,84L61,101L60,89Z" fill="rgb(229, 228, 219)" fill-opacity="0.91"/>
    <path d="M26,4L56,-4L-10,75Z" fill="rgb(68, 71, 66)" fill-opacity="0.70"/>
    <path d="M178,113L176,104L189,117Z" fill="rgb(88, 88, 89)" fill-opacity="0.97"/>
    <path d="M51,26L99,7L84,52Z" fill="rgb(140, 141, 129)" fill-opacity="0.43"/>
    <path d="M178,85L171,102L167,80Z" fill="rgb(203, 204, 197)" fill-opacity="0.81"/>
    <path d="M55,217L68,214L60,198Z" fill="rgb(102, 101, 95)" fill-opacity="0.96"/>
    <path d="M159,168L153,160L149,178Z" fill="rgb(216, 168, 134)" fill-opacity="0.83"/>
    <path d="M144,186L141,164L133,178Z" fill="rgb(55, 35, 32)" fill-opacity="1.00"/>
    <path d="M175,215L185,241L157,255Z" fill="rgb(105, 115, 113)" fill-opacity="0.99"/>
    <path d="M52,231L72,237L63,250Z" fill="rgb(71, 84, 82)" fill-opacity="0.99"/>
    <path d="M156,141L160,167L150,155Z" fill="rgb(35, 28, 31)" fill-opacity="0.96"/>
    <path d="M20,193L52,184L19,176Z" fill="rgb(56, 63, 66)" fill-opacity="0.57"/>
    <path d="M70,235L85,222L126,318Z" fill="rgb(36, 48, 57)" fill-opacity="0.78"/>
    <path d="M109,123L144,147L139,130Z" fill="rgb(51, 37, 34)" fill-opacity="0.83"/>
    <path d="M-6,35L63,-40L-53,16Z" fill="rgb(43, 47, 47)" fill-opacity="0.96"/>
    <path d="M32,142L41,118L46,143Z" fill="rgb(62, 65, 67)" fill-opacity="0.99"/>
    <path d="M84,64L92,80L90,57Z" fill="rgb(3, 1, 11)" fill-opacity="0.49"/>
    <path d="M141,89L136,100L136,109Z" fill="rgb(175, 171, 153)" fill-opacity="0.90"/>
    <path d="M151,85L133,72L160,75Z" fill="rgb(120, 122, 114)" fill-opacity="0.90"/>
    <path d="M3,78L12,94L25,90Z" fill="rgb(48, 55, 54)" fill-opacity="0.94"/>
    <path d="M88,88L93,89L83,71Z" fill="rgb(73, 64, 59)" fill-opacity="1.00"/>
    <path d="M151,140L140,124L141,138Z" fill="rgb(178, 156, 142)" fill-opacity="0.72"/>
    <path d="M113,95L99,97L118,80Z" fill="rgb(22, 24, 33)" fill-opacity="0.91"/>
    <path d="M170,155L169,183L167,158Z" fill="rgb(223, 163, 78)" fill-opacity="0.83"/>
    <path d="M164,124L154,122L161,114Z" fill="rgb(217, 215, 204)" fill-opacity="0.91"/>
    <path d="M105,51L117,68L93,60Z" fill="rgb(83, 67, 58)" fill-opacity="0.94"/>
    <path d="M133,120L149,129L128,102Z" fill="rgb(65, 54, 46)" fill-opacity="0.62"/>
    <path d="M24,258L32,230L-50,202Z" fill="rgb(49, 60, 56)" fill-opacity="0.40"/>
    <path d="M131,73L130,50L146,49Z" fill="rgb(92, 98, 95)" fill-opacity="0.52"/>
    <path d="M123,186L93,172L104,149Z" fill="rgb(22, 25, 37)" fill-opacity="0.85"/>
    <path d="M96,223L92,215L96,216Z" fill="rgb(111, 90, 87)" fill-opacity="0.91"/>
    <path d="M62,141L44,133L67,136Z" fill="rgb(35, 21, 20)" fill-opacity="0.73"/>
    <path d="M49,137L45,152L46,142Z" fill="rgb(164, 107, 64)" fill-opacity="0.96"/>
    <path d="M140,246L100,277L154,255Z" fill="rgb(70, 83, 87)" fill-opacity="1.00"/>
    <path d="M141,201L152,192L142,191Z" fill="rgb(146, 103, 68)" fill-opacity="0.80"/>
    <path d="M123,72L140,76L142,81Z" fill="rgb(26, 25, 33)" fill-opacity="0.71"/>
    <path d="M129,81L139,81L125,78Z" fill="rgb(92, 95, 96)" fill-opacity="0.99"/>
    <path d="M156,39L168,74L145,31Z" fill="rgb(157, 162, 155)" fill-opacity="1.00"/>
    <path d="M211,163L185,165L209,195Z" fill="rgb(104, 94, 86)" fill-opacity="0.51"/>
    <path d="M129,149L129,144L133,146Z" fill="rgb(104, 105, 104)" fill-opacity="0.90"/>
    <path d="M85,113L84,126L77,104Z" fill="rgb(156, 148, 122)" fill-opacity="0.88"/>
    <path d="M98,7L161,-37L92,-2Z" fill="rgb(113, 117, 109)" fill-opacity="1.00"/>
    <path d="M12,172L21,151L41,175Z" fill="rgb(53, 55, 61)" fill-opacity="0.83"/>
    <path d="M140,110L141,115L164,108Z" fill="rgb(179, 183, 176)" fill-opacity="0.94"/>
    <path d="M176,75L153,70L163,65Z" fill="rgb(146, 149, 137)" fill-opacity="1.00"/>
    <path d="M76,85L72,92L73,113Z" fill="rgb(34, 35, 41)" fill-opacity="0.84"/>
    <path d="M69,133L78,162L72,127Z" fill="rgb(32, 27, 32)" fill-opacity="1.00"/>
    <path d="M19,73L17,66L22,71Z" fill="rgb(157, 143, 117)" fill-opacity="1.00"/>
    <path d="M68,87L72,86L77,87Z" fill="rgb(197, 190, 179)" fill-opacity="1.00"/>
    <path d="M84,104L81,104L48,120Z" fill="rgb(153, 153, 141)" fill-opacity="0.76"/>
    <path d="M168,202L170,189L161,200Z" fill="rgb(108, 92, 73)" fill-opacity="0.95"/>
    <path d="M146,133L157,126L165,132Z" fill="rgb(30, 28, 34)" fill-opacity="0.89"/>
    <path d="M72,83L88,67L65,85Z" fill="rgb(56, 51, 53)" fill-opacity="0.69"/>
    <path d="M39,101L21,94L32,110Z" fill="rgb(139, 128, 114)" fill-opacity="0.69"/>
    <path d="M99,76L94,82L92,65Z" fill="rgb(148, 164, 163)" fill-opacity="0.57"/>
    <path d="M137,253L148,227L125,243Z" fill="rgb(52, 74, 84)" fill-opacity="0.80"/>
    <path d="M116,77L116,65L107,79Z" fill="rgb(105, 122, 121)" fill-opacity="0.76"/>
    <path d="M78,163L133,193L68,194Z" fill="rgb(31, 44, 59)" fill-opacity="0.58"/>
    <path d="M105,75L99,83L107,89Z" fill="rgb(64, 71, 75)" fill-opacity="1.00"/>
    <path d="M168,78L174,76L175,80Z" fill="rgb(89, 100, 107)" fill-opacity="0.85"/>
    <path d="M25,50L39,21L77,44Z" fill="rgb(99, 107, 103)" fill-opacity="0.60"/>
    <path d="M76,93L78,93L77,95Z" fill="rgb(210, 206, 194)" fill-opacity="0.87"/>
    <path d="M43,158L41,149L41,158Z" fill="rgb(169, 147, 108)" fill-opacity="0.72"/>
    <path d="M103,59L104,51L107,59Z" fill="rgb(128, 111, 92)" fill-opacity="0.84"/>
    <path d="M107,0L120,11L65,25Z" fill="rgb(125, 131, 124)" fill-opacity="0.63"/>
    <path d="M52,132L44,125L62,112Z" fill="rgb(237, 235, 224)" fill-opacity="0.27"/>
    <path d="M150,130L166,123L149,138Z" fill="rgb(30, 27, 32)" fill-opacity="0.79"/>
    <path d="M75,71L29,92L56,95Z" fill="rgb(120, 127, 121)" fill-opacity="0.80"/>
    <path d="M37,59L55,51L41,27Z" fill="rgb(112, 117, 111)" fill-opacity="0.87"/>
    <path d="M93,76L93,81L98,81Z" fill="rgb(201, 201, 191)" fill-opacity="0.85"/>
    <path d="M187,31L149,34L95,-10Z" fill="rgb(168, 173, 166)" fill-opacity="0.51"/>
    <path d="M17,219L26,206L49,244Z" fill="rgb(95, 108, 101)" fill-opacity="0.71"/>
    <path d="M136,109L120,86L136,100Z" fill="rgb(32, 31, 37)" fill-opacity="0.94"/>
    <path d="M209,18L291,71L137,-71Z" fill="rgb(110, 114, 110)" fill-opacity="0.83"/>
    <path d="M157,39L118,57L120,45Z" fill="rgb(128, 136, 125)" fill-opacity="0.66"/>
    <path d="M165,163L167,153L167,192Z" fill="rgb(86, 53, 41)" fill-opacity="0.88"/>
    <path d="M69,100L73,115L67,102Z" fill="rgb(146, 151, 142)" fill-opacity="1.00"/>
    <path d="M85,104L99,98L82,96Z" fill="rgb(53, 56, 62)" fill-opacity="1.00"/>
    <path d="M126,219L102,185L91,246Z" fill="rgb(44, 63, 78)" fill-opacity="0.68"/>
    <path d="M115,29L117,48L110,32Z" fill="rgb(201, 198, 181)" fill-opacity="0.97"/>
    <path d="M141,210L155,208L143,221Z" fill="rgb(106, 109, 105)" fill-opacity="1.00"/>
    <path d="M159,107L171,103L183,127Z" fill="rgb(144, 135, 122)" fill-opacity="0.85"/>
    <path d="M192,247L226,317L202,251Z" fill="rgb(59, 66, 67)" fill-opacity="0.93"/>
    <path d="M187,111L194,86L186,95Z" fill="rgb(171, 174, 171)" fill-opacity="0.97"/>
    <path d="M63,61L54,76L84,75Z" fill="rgb(102, 107, 104)" fill-opacity="0.80"/>
    <path d="M76,127L77,120L67,125Z" fill="rgb(72, 68, 65)" fill-opacity="1.00"/>
    <path d="M141,172L138,169L141,166Z" fill="rgb(109, 56, 32)" fill-opacity="0.98"/>
    <path d="M103,120L116,107L91,107Z" fill="rgb(42, 46, 47)" fill-opacity="0.92"/>
    <path d="M174,-8L213,111L282,88Z" fill="rgb(134, 143, 143)" fill-opacity="0.36"/>
    <path d="M73,83L81,79L81,75Z" fill="rgb(160, 155, 145)" fill-opacity="0.97"/>
    <path d="M162,195L152,194L153,201Z" fill="rgb(34, 41, 51)" fill-opacity="0.99"/>
    <path d="M108,37L119,52L108,19Z" fill="rgb(209, 202, 179)" fill-opacity="0.29"/>
    <path d="M56,104L59,111L54,112Z" fill="rgb(202, 195, 180)" fill-opacity="0.99"/>
    <path d="M150,165L145,167L147,180Z" fill="rgb(199, 155, 120)" fill-opacity="0.96"/>
    <path d="M68,156L71,171L67,182Z" fill="rgb(31, 36, 46)" fill-opacity="0.84"/>
    <path d="M72,95L64,96L71,105Z" fill="rgb(182, 186, 178)" fill-opacity="0.98"/>
    <path d="M152,147L152,136L153,147Z" fill="rgb(184, 110, 46)" fill-opacity="1.00"/>
    <path d="M70,235L62,225L61,239Z" fill="rgb(93, 108, 102)" fill-opacity="0.89"/>
    <path d="M29,172L43,172L39,137Z" fill="rgb(45, 49, 56)" fill-opacity="1.00"/>
    <path d="M118,47L119,47L118,51Z" fill="rgb(64, 57, 53)" fill-opacity="0.96"/>
    <path d="M126,95L86,96L111,88Z" fill="rgb(20, 22, 32)" fill-opacity="0.95"/>
    <path d="M65,143L66,153L70,111Z" fill="rgb(134, 121, 102)" fill-opacity="0.96"/>
    <path d="M104,172L139,144L146,166Z" fill="rgb(16, 16, 25)" fill-opacity="0.74"/>
    <path d="M204,68L188,76L192,66Z" fill="rgb(168, 172, 167)" fill-opacity="0.96"/>
    <path d="M52,117L49,117L57,121Z" fill="rgb(236, 235, 227)" fill-opacity="1.00"/>
    <path d="M73,206L74,208L52,211Z" fill="rgb(100, 99, 94)" fill-opacity="0.96"/>
    <path d="M115,83L98,83L102,90Z" fill="rgb(72, 81, 83)" fill-opacity="1.00"/>
    <path d="M146,149L148,154L151,155Z" fill="rgb(71, 50, 40)" fill-opacity="0.97"/>
    <path d="M182,111L177,114L180,103Z" fill="rgb(69, 70, 77)" fill-opacity="1.00"/>
    <path d="M146,77L148,84L148,60Z" fill="rgb(147, 150, 136)" fill-opacity="0.97"/>
    <path d="M105,47L107,54L116,48Z" fill="rgb(45, 37, 38)" fill-opacity="0.75"/>
    <path d="M188,187L174,170L196,183Z" fill="rgb(157, 130, 113)" fill-opacity="0.92"/>
    <path d="M138,125L132,120L134,138Z" fill="rgb(102, 58, 34)" fill-opacity="0.75"/>
    <path d="M80,73L82,54L85,61Z" fill="rgb(158, 152, 129)" fill-opacity="0.95"/>
    <path d="M172,154L170,185L187,205Z" fill="rgb(184, 150, 121)" fill-opacity="0.93"/>
    <path d="M156,117L120,130L148,119Z" fill="rgb(93, 81, 70)" fill-opacity="0.98"/>
    <path d="M91,61L85,42L91,43Z" fill="rgb(194, 121, 67)" fill-opacity="0.65"/>
    <path d="M27,197L27,200L20,197Z" fill="rgb(132, 126, 108)" fill-opacity="1.00"/>
    <path d="M75,135L79,141L79,132Z" fill="rgb(79, 72, 70)" fill-opacity="0.92"/>
    <path d="M133,143L122,135L147,140Z" fill="rgb(43, 36, 38)" fill-opacity="1.00"/>
    <path d="M9,95L54,97L55,106Z" fill="rgb(108, 116, 107)" fill-opacity="0.75"/>
    <path d="M46,150L54,186L58,152Z" fill="rgb(42, 39, 43)" fill-opacity="0.74"/>
    <path d="M20,235L21,249L63,245Z" fill="rgb(70, 82, 79)" fill-opacity="0.63"/>
    <path d="M70,182L71,168L75,162Z" fill="rgb(86, 89, 88)" fill-opacity="0.91"/>
    <path d="M11,117L29,117L14,114Z" fill="rgb(156, 160, 144)" fill-opacity="0.84"/>
    <path d="M126,80L130,98L111,95Z" fill="rgb(22, 26, 37)" fill-opacity="0.87"/>
    <path d="M139,128L153,145L139,131Z" fill="rgb(181, 159, 142)" fill-opacity="1.00"/>
    <path d="M47,85L55,98L63,86Z" fill="rgb(133, 138, 131)" fill-opacity="1.00"/>
    <path d="M148,72L152,68L148,84Z" fill="rgb(84, 90, 91)" fill-opacity="0.92"/>
    <path d="M90,45L112,46L102,31Z" fill="rgb(104, 82, 69)" fill-opacity="0.69"/>
    <path d="M143,76L125,71L139,73Z" fill="rgb(134, 128, 116)" fill-opacity="0.97"/>
    <path d="M150,115L148,128L161,106Z" fill="rgb(152, 156, 146)" fill-opacity="0.58"/>
    <path d="M66,229L62,220L66,212Z" fill="rgb(142, 148, 136)" fill-opacity="0.92"/>
    <path d="M111,195L113,195L113,196Z" fill="rgb(116, 97, 80)" fill-opacity="0.99"/>
    <path d="M60,139L55,153L52,143Z" fill="rgb(100, 47, 30)" fill-opacity="0.67"/>
    <path d="M143,122L148,134L135,115Z" fill="rgb(74, 64, 55)" fill-opacity="0.96"/>
    <path d="M109,143L107,145L109,148Z" fill="rgb(96, 92, 87)" fill-opacity="0.96"/>
    <path d="M45,201L38,195L45,191Z" fill="rgb(146, 145, 129)" fill-opacity="0.62"/>
    <path d="M184,160L160,110L166,129Z" fill="rgb(175, 157, 139)" fill-opacity="1.00"/>
    <path d="M44,141L42,149L51,126Z" fill="rgb(111, 97, 82)" fill-opacity="0.92"/>
    <path d="M132,253L131,255L142,281Z" fill="rgb(161, 124, 105)" fill-opacity="1.00"/>
    <path d="M194,151L174,119L201,114Z" fill="rgb(155, 139, 125)" fill-opacity="0.62"/>
    <path d="M28,116L24,140L33,137Z" fill="rgb(110, 84, 75)" fill-opacity="0.94"/>
</svg>