<svg xmlns="http://www.w3.org/2000/svg" viewBox="0 0 512 336.23880597014926" clip-path="url(#clip)">
    <defs>
        <clipPath id="clip" clipPathUnits="objectBoundingBox">
            <rect x="0" y="0" width="512" height="336.23880597014926"/>
        </clipPath>
    </defs>
    <rect x="0" y="0" width="512" height="336.23880597014926" fill="rgb(27, 28, 29)"/>
    <path d="M61,180L121,306L127,212Z" fill="rgb(172, 182, 186)" fill-opacity="0.75"/>
    <path d="M193,97L135,34L215,24Z" fill="rgb(201, 197, 204)" fill-opacity="0.43"/>
    <path d="M250,294L246,258L265,267Z" fill="rgb(201, 216, 221)" fill-opacity="0.69"/>
    <path d="M124,21L403,44L247,358Z" fill="rgb(107, 121, 129)" fill-opacity="0.42"/>
    <path d="M783,225L410,318L347,129Z" fill="rgb(137, 116, 106)" fill-opacity="0.50"/>
    <path d="M148,162L59,193L144,79Z" fill="rgb(107, 122, 127)" fill-opacity="0.61"/>
    <path d="M143,101L101,166L117,169Z" fill="rgb(193, 204, 209)" fill-opacity="0.52"/>
    <path d="M88,214L129,203L119,248Z" fill="rgb(247, 253, 255)" fill-opacity="0.55"/>
    <path d="M219,76L295,69L196,119Z" fill="rgb(141, 156, 162)" fill-opacity="0.47"/>
    <path d="M313,109L279,144L241,99Z" fill="rgb(178, 191, 198)" fill-opacity="0.57"/>
    <path d="M131,143L158,186L135,196Z" fill="rgb(184, 205, 219)" fill-opacity="0.29"/>
    <path d="M500,293L394,245L400,296Z" fill="rgb(144, 182, 179)" fill-opacity="0.40"/>
    <path d="M35,156L48,204L57,175Z" fill="rgb(203, 191, 181)" fill-opacity="0.42"/>
    <path d="M358,39L339,45L331,66Z" fill="rgb(218, 235, 243)" fill-opacity="0.55"/>
    <path d="M431,184L396,212L393,172Z" fill="rgb(248, 211, 208)" fill-opacity="0.44"/>
    <path d="M93,91L56,110L65,113Z" fill="rgb(232, 247, 254)" fill-opacity="0.47"/>
    <path d="M521,233L426,217L484,219Z" fill="rgb(255, 225, 204)" fill-opacity="0.67"/>
    <path d="M384,76L363,69L376,48Z" fill="rgb(252, 200, 167)" fill-opacity="0.68"/>
    <path d="M313,122L294,103L262,124Z" fill="rgb(230, 237, 246)" fill-opacity="0.44"/>
    <path d="M178,80L136,52L177,42Z" fill="rgb(13, 19, 25)" fill-opacity="0.58"/>
    <path d="M135,50L187,40L171,25Z" fill="rgb(241, 248, 249)" fill-opacity="0.43"/>
    <path d="M77,232L112,261L102,224Z" fill="rgb(2, 19, 29)" fill-opacity="0.52"/>
    <path d="M72,163L147,325L35,304Z" fill="rgb(153, 217, 250)" fill-opacity="0.14"/>
    <path d="M234,104L243,135L277,116Z" fill="rgb(122, 128, 129)" fill-opacity="0.73"/>
    <path d="M87,208L82,99L113,209Z" fill="rgb(28, 36, 40)" fill-opacity="0.88"/>
    <path d="M496,143L494,201L573,185Z" fill="rgb(254, 102, 49)" fill-opacity="0.42"/>
    <path d="M273,106L256,103L278,78Z" fill="rgb(175, 194, 197)" fill-opacity="0.47"/>
    <path d="M224,232L220,265L218,231Z" fill="rgb(222, 219, 210)" fill-opacity="0.59"/>
    <path d="M91,274L128,286L140,319Z" fill="rgb(86, 100, 107)" fill-opacity="0.82"/>
    <path d="M169,85L134,62L-2,142Z" fill="rgb(176, 213, 229)" fill-opacity="0.17"/>
    <path d="M204,-139L185,13L82,90Z" fill="rgb(32, 40, 46)" fill-opacity="0.90"/>
    <path d="M227,200L230,237L233,228Z" fill="rgb(238, 244, 239)" fill-opacity="0.45"/>
    <path d="M260,222L233,198L260,175Z" fill="rgb(144, 155, 157)" fill-opacity="0.54"/>
    <path d="M137,193L150,188L145,180Z" fill="rgb(236, 247, 253)" fill-opacity="0.40"/>
    <path d="M286,280L271,309L295,299Z" fill="rgb(115, 119, 97)" fill-opacity="0.54"/>
    <path d="M361,113L318,107L357,120Z" fill="rgb(183, 207, 225)" fill-opacity="0.38"/>
    <path d="M284,163L337,123L367,349Z" fill="rgb(17, 27, 33)" fill-opacity="0.68"/>
    <path d="M194,175L186,147L198,117Z" fill="rgb(159, 167, 167)" fill-opacity="0.56"/>
    <path d="M482,256L449,296L495,287Z" fill="rgb(255, 242, 108)" fill-opacity="0.34"/>
    <path d="M396,132L394,158L355,94Z" fill="rgb(130, 123, 128)" fill-opacity="0.39"/>
    <path d="M490,232L506,305L579,216Z" fill="rgb(47, 35, 27)" fill-opacity="0.75"/>
    <path d="M107,257L96,254L128,296Z" fill="rgb(251, 252, 253)" fill-opacity="0.66"/>
    <path d="M449,216L453,223L521,230Z" fill="rgb(248, 238, 226)" fill-opacity="0.73"/>
    <path d="M206,73L152,99L201,53Z" fill="rgb(251, 174, 152)" fill-opacity="0.34"/>
    <path d="M359,232L417,226L478,266Z" fill="rgb(34, 35, 37)" fill-opacity="1.00"/>
    <path d="M85,216L97,213L81,194Z" fill="rgb(255, 245, 238)" fill-opacity="0.67"/>
    <path d="M372,102L369,43L382,61Z" fill="rgb(255, 189, 156)" fill-opacity="0.43"/>
    <path d="M157,278L119,236L133,214Z" fill="rgb(29, 41, 47)" fill-opacity="0.73"/>
    <path d="M194,169L184,169L206,349Z" fill="rgb(80, 90, 94)" fill-opacity="0.75"/>
    <path d="M85,197L64,201L78,173Z" fill="rgb(157, 149, 140)" fill-opacity="0.92"/>
    <path d="M78,176L67,112L67,140Z" fill="rgb(108, 123, 128)" fill-opacity="0.66"/>
    <path d="M130,193L205,104L196,68Z" fill="rgb(31, 34, 37)" fill-opacity="0.87"/>
    <path d="M137,208L90,180L130,158Z" fill="rgb(26, 33, 38)" fill-opacity="0.95"/>
    <path d="M115,282L127,291L125,282Z" fill="rgb(227, 240, 243)" fill-opacity="0.70"/>
    <path d="M257,151L290,262L271,123Z" fill="rgb(11, 22, 28)" fill-opacity="0.61"/>
    <path d="M244,312L247,307L295,283Z" fill="rgb(241, 240, 223)" fill-opacity="0.37"/>
    <path d="M105,257L94,245L119,250Z" fill="rgb(5, 13, 18)" fill-opacity="0.62"/>
    <path d="M440,263L505,260L458,225Z" fill="rgb(29, 29, 32)" fill-opacity="0.49"/>
    <path d="M299,169L282,124L291,122Z" fill="rgb(17, 26, 32)" fill-opacity="0.73"/>
    <path d="M6,136L49,120L11,139Z" fill="rgb(255, 255, 255)" fill-opacity="0.37"/>
    <path d="M147,73L92,98L141,79Z" fill="rgb(206, 218, 221)" fill-opacity="0.46"/>
    <path d="M425,245L394,143L551,113Z" fill="rgb(56, 24, 21)" fill-opacity="0.43"/>
    <path d="M105,95L114,89L84,95Z" fill="rgb(235, 248, 253)" fill-opacity="0.28"/>
    <path d="M264,135L255,152L252,144Z" fill="rgb(180, 195, 197)" fill-opacity="0.46"/>
    <path d="M258,301L263,227L286,287Z" fill="rgb(28, 40, 48)" fill-opacity="0.89"/>
    <path d="M114,275L68,302L26,289Z" fill="rgb(78, 109, 123)" fill-opacity="0.49"/>
    <path d="M341,132L344,165L349,168Z" fill="rgb(236, 253, 250)" fill-opacity="0.29"/>
    <path d="M394,181L398,165L409,206Z" fill="rgb(228, 220, 224)" fill-opacity="0.60"/>
    <path d="M480,261L481,309L509,265Z" fill="rgb(136, 119, 61)" fill-opacity="0.65"/>
    <path d="M348,61L348,83L326,102Z" fill="rgb(142, 165, 175)" fill-opacity="0.55"/>
    <path d="M339,118L329,90L354,126Z" fill="rgb(227, 243, 254)" fill-opacity="0.28"/>
    <path d="M118,262L129,287L105,254Z" fill="rgb(71, 84, 91)" fill-opacity="0.90"/>
    <path d="M310,233L317,276L317,262Z" fill="rgb(221, 235, 239)" fill-opacity="0.56"/>
    <path d="M342,66L331,69L335,53Z" fill="rgb(217, 241, 251)" fill-opacity="0.39"/>
    <path d="M376,130L343,132L379,157Z" fill="rgb(135, 208, 251)" fill-opacity="0.25"/>
    <path d="M399,201L411,203L407,186Z" fill="rgb(214, 199, 198)" fill-opacity="0.86"/>
    <path d="M46,175L54,184L45,183Z" fill="rgb(240, 233, 226)" fill-opacity="0.78"/>
    <path d="M418,194L422,176L430,192Z" fill="rgb(254, 218, 199)" fill-opacity="0.60"/>
    <path d="M376,137L389,181L388,136Z" fill="rgb(4, 17, 25)" fill-opacity="0.62"/>
    <path d="M277,113L299,-155L334,79Z" fill="rgb(36, 45, 50)" fill-opacity="0.96"/>
    <path d="M-3,220L101,245L78,207Z" fill="rgb(35, 46, 52)" fill-opacity="0.65"/>
    <path d="M306,135L293,133L299,110Z" fill="rgb(112, 129, 138)" fill-opacity="0.99"/>
    <path d="M210,48L322,15L132,-86Z" fill="rgb(39, 51, 59)" fill-opacity="0.67"/>
    <path d="M136,139L160,130L127,160Z" fill="rgb(169, 170, 175)" fill-opacity="0.42"/>
    <path d="M205,109L189,138L206,115Z" fill="rgb(202, 206, 205)" fill-opacity="0.62"/>
    <path d="M132,301L129,328L135,307Z" fill="rgb(237, 218, 207)" fill-opacity="0.54"/>
    <path d="M389,228L379,231L383,197Z" fill="rgb(2, 14, 21)" fill-opacity="0.71"/>
    <path d="M281,165L288,141L270,131Z" fill="rgb(153, 184, 201)" fill-opacity="0.38"/>
    <path d="M280,65L247,67L268,90Z" fill="rgb(120, 136, 142)" fill-opacity="0.58"/>
    <path d="M327,115L332,125L323,121Z" fill="rgb(230, 237, 237)" fill-opacity="0.55"/>
    <path d="M193,79L181,66L184,83Z" fill="rgb(255, 217, 191)" fill-opacity="0.54"/>
    <path d="M354,115L366,96L332,96Z" fill="rgb(2, 1, 3)" fill-opacity="0.47"/>
    <path d="M254,255L259,260L258,275Z" fill="rgb(214, 226, 225)" fill-opacity="0.63"/>
    <path d="M460,20L384,99L377,6Z" fill="rgb(32, 33, 35)" fill-opacity="1.00"/>
    <path d="M223,113L265,88L206,112Z" fill="rgb(15, 22, 26)" fill-opacity="0.69"/>
    <path d="M395,297L524,308L399,326Z" fill="rgb(32, 43, 48)" fill-opacity="0.78"/>
    <path d="M360,226L381,110L380,235Z" fill="rgb(65, 88, 103)" fill-opacity="0.51"/>
    <path d="M372,75L368,39L360,66Z" fill="rgb(120, 86, 73)" fill-opacity="0.68"/>
    <path d="M436,185L470,195L486,180Z" fill="rgb(156, 103, 81)" fill-opacity="0.50"/>
    <path d="M254,176L255,191L259,174Z" fill="rgb(198, 211, 209)" fill-opacity="0.55"/>
    <path d="M389,281L300,99L332,133Z" fill="rgb(29, 38, 43)" fill-opacity="0.96"/>
    <path d="M204,67L136,185L187,151Z" fill="rgb(27, 31, 35)" fill-opacity="0.86"/>
    <path d="M129,237L123,221L131,179Z" fill="rgb(122, 138, 145)" fill-opacity="0.44"/>
    <path d="M102,364L22,333L139,285Z" fill="rgb(12, 27, 37)" fill-opacity="0.56"/>
    <path d="M229,92L228,104L249,90Z" fill="rgb(244, 253, 247)" fill-opacity="0.29"/>
    <path d="M313,252L313,239L304,195Z" fill="rgb(238, 244, 245)" fill-opacity="0.42"/>
    <path d="M303,282L303,351L282,245Z" fill="rgb(30, 40, 46)" fill-opacity="1.00"/>
    <path d="M156,152L148,160L132,156Z" fill="rgb(145, 153, 154)" fill-opacity="0.60"/>
    <path d="M83,243L86,237L57,251Z" fill="rgb(102, 128, 143)" fill-opacity="0.54"/>
    <path d="M211,37L180,29L165,29Z" fill="rgb(248, 253, 251)" fill-opacity="0.40"/>
    <path d="M235,4L203,58L204,40Z" fill="rgb(43, 53, 59)" fill-opacity="0.99"/>
    <path d="M262,256L263,208L214,264Z" fill="rgb(20, 32, 39)" fill-opacity="0.61"/>
    <path d="M417,99L417,117L406,94Z" fill="rgb(106, 100, 105)" fill-opacity="0.50"/>
    <path d="M152,49L140,51L157,32Z" fill="rgb(251, 254, 255)" fill-opacity="0.44"/>
    <path d="M344,177L344,214L346,202Z" fill="rgb(112, 124, 130)" fill-opacity="0.67"/>
    <path d="M230,85L218,73L202,77Z" fill="rgb(226, 192, 189)" fill-opacity="0.37"/>
    <path d="M270,310L435,443L240,332Z" fill="rgb(16, 25, 30)" fill-opacity="0.97"/>
    <path d="M294,123L298,108L280,111Z" fill="rgb(242, 253, 255)" fill-opacity="0.54"/>
    <path d="M122,263L109,254L126,251Z" fill="rgb(241, 251, 255)" fill-opacity="0.41"/>
    <path d="M224,214L197,268L209,179Z" fill="rgb(35, 44, 48)" fill-opacity="1.00"/>
    <path d="M405,256L457,286L487,251Z" fill="rgb(29, 44, 54)" fill-opacity="0.41"/>
    <path d="M253,64L373,36L280,-24Z" fill="rgb(35, 43, 49)" fill-opacity="0.76"/>
    <path d="M398,288L398,275L449,293Z" fill="rgb(169, 184, 203)" fill-opacity="0.38"/>
    <path d="M111,204L100,238L125,245Z" fill="rgb(218, 226, 230)" fill-opacity="0.39"/>
    <path d="M181,159L197,197L194,196Z" fill="rgb(248, 245, 238)" fill-opacity="0.46"/>
    <path d="M173,31L149,39L171,28Z" fill="rgb(253, 252, 253)" fill-opacity="0.62"/>
    <path d="M252,320L248,320L236,338Z" fill="rgb(252, 240, 201)" fill-opacity="0.32"/>
    <path d="M141,93L195,96L179,171Z" fill="rgb(32, 35, 38)" fill-opacity="0.85"/>
    <path d="M449,295L480,260L500,264Z" fill="rgb(248, 235, 158)" fill-opacity="0.23"/>
    <path d="M371,78L376,93L380,82Z" fill="rgb(203, 156, 131)" fill-opacity="0.77"/>
    <path d="M110,170L104,166L127,148Z" fill="rgb(249, 246, 242)" fill-opacity="0.60"/>
    <path d="M153,77L98,156L53,117Z" fill="rgb(37, 50, 57)" fill-opacity="0.65"/>
    <path d="M133,125L147,157L146,125Z" fill="rgb(0, 0, 1)" fill-opacity="0.39"/>
    <path d="M246,182L242,207L249,209Z" fill="rgb(214, 230, 239)" fill-opacity="0.38"/>
    <path d="M89,160L41,158L61,194Z" fill="rgb(57, 60, 61)" fill-opacity="0.70"/>
    <path d="M262,275L246,264L251,290Z" fill="rgb(226, 234, 234)" fill-opacity="0.55"/>
    <path d="M45,168L37,177L62,174Z" fill="rgb(35, 32, 34)" fill-opacity="0.65"/>
    <path d="M188,36L185,67L162,81Z" fill="rgb(79, 70, 75)" fill-opacity="0.66"/>
    <path d="M295,276L293,264L293,274Z" fill="rgb(237, 253, 250)" fill-opacity="0.52"/>
    <path d="M460,263L404,245L415,285Z" fill="rgb(75, 85, 90)" fill-opacity="0.63"/>
    <path d="M-13,192L97,264L-20,295Z" fill="rgb(15, 24, 30)" fill-opacity="0.67"/>
    <path d="M370,45L341,45L353,40Z" fill="rgb(242, 250, 255)" fill-opacity="0.44"/>
    <path d="M157,90L154,75L151,74Z" fill="rgb(253, 243, 235)" fill-opacity="0.56"/>
    <path d="M220,153L198,190L197,185Z" fill="rgb(158, 166, 167)" fill-opacity="0.67"/>
    <path d="M37,169L39,162L47,165Z" fill="rgb(254, 243, 231)" fill-opacity="0.56"/>
    <path d="M244,214L244,211L265,190Z" fill="rgb(239, 241, 247)" fill-opacity="0.38"/>
    <path d="M212,132L222,117L215,112Z" fill="rgb(134, 145, 144)" fill-opacity="0.68"/>
    <path d="M218,16L163,31L137,18Z" fill="rgb(42, 53, 61)" fill-opacity="0.79"/>
    <path d="M254,149L254,144L262,143Z" fill="rgb(228, 237, 239)" fill-opacity="0.45"/>
    <path d="M496,225L410,202L639,186Z" fill="rgb(73, 21, 9)" fill-opacity="0.40"/>
    <path d="M389,154L394,134L389,136Z" fill="rgb(235, 221, 208)" fill-opacity="0.47"/>
    <path d="M306,199L299,165L306,207Z" fill="rgb(150, 157, 161)" fill-opacity="0.55"/>
    <path d="M199,58L231,42L189,86Z" fill="rgb(162, 161, 172)" fill-opacity="0.28"/>
    <path d="M263,108L270,95L275,130Z" fill="rgb(42, 63, 70)" fill-opacity="0.41"/>
    <path d="M162,91L160,97L168,109Z" fill="rgb(178, 174, 177)" fill-opacity="0.44"/>
    <path d="M371,56L380,73L381,61Z" fill="rgb(254, 239, 217)" fill-opacity="0.64"/>
    <path d="M359,91L356,76L370,80Z" fill="rgb(173, 120, 90)" fill-opacity="0.53"/>
    <path d="M272,92L279,142L270,93Z" fill="rgb(228, 235, 235)" fill-opacity="0.51"/>
    <path d="M71,215L81,169L83,198Z" fill="rgb(238, 213, 195)" fill-opacity="0.25"/>
    <path d="M365,202L332,166L371,163Z" fill="rgb(31, 43, 51)" fill-opacity="0.77"/>
    <path d="M160,37L161,88L147,63Z" fill="rgb(4, 13, 21)" fill-opacity="0.39"/>
    <path d="M303,109L313,178L314,131Z" fill="rgb(90, 106, 114)" fill-opacity="0.70"/>
    <path d="M364,199L370,182L403,201Z" fill="rgb(94, 104, 113)" fill-opacity="0.63"/>
    <path d="M205,178L200,187L195,176Z" fill="rgb(232, 243, 241)" fill-opacity="0.29"/>
    <path d="M126,294L117,289L110,290Z" fill="rgb(232, 243, 253)" fill-opacity="0.47"/>
    <path d="M466,218L492,238L478,237Z" fill="rgb(255, 195, 183)" fill-opacity="0.31"/>
    <path d="M421,223L477,251L461,251Z" fill="rgb(234, 174, 159)" fill-opacity="0.21"/>
    <path d="M150,282L144,281L143,291Z" fill="rgb(158, 171, 162)" fill-opacity="0.50"/>
    <path d="M358,250L399,275L388,230Z" fill="rgb(28, 39, 47)" fill-opacity="0.81"/>
    <path d="M191,139L191,130L195,129Z" fill="rgb(234, 235, 235)" fill-opacity="0.76"/>
    <path d="M219,212L216,161L243,135Z" fill="rgb(18, 32, 39)" fill-opacity="0.51"/>
    <path d="M464,296L481,264L503,306Z" fill="rgb(118, 121, 66)" fill-opacity="0.47"/>
    <path d="M80,205L95,205L67,211Z" fill="rgb(75, 67, 61)" fill-opacity="0.47"/>
    <path d="M393,200L450,237L480,238Z" fill="rgb(43, 35, 38)" fill-opacity="0.53"/>
    <path d="M462,217L451,222L498,228Z" fill="rgb(255, 255, 251)" fill-opacity="0.40"/>
    <path d="M391,93L401,177L489,165Z" fill="rgb(29, 27, 30)" fill-opacity="0.59"/>
    <path d="M47,116L25,133L55,120Z" fill="rgb(227, 238, 235)" fill-opacity="0.23"/>
    <path d="M139,97L131,95L137,90Z" fill="rgb(192, 188, 179)" fill-opacity="0.43"/>
    <path d="M312,105L312,109L322,108Z" fill="rgb(248, 250, 254)" fill-opacity="0.47"/>
    <path d="M215,157L210,166L242,134Z" fill="rgb(194, 207, 208)" fill-opacity="0.36"/>
    <path d="M196,203L182,165L173,205Z" fill="rgb(42, 46, 47)" fill-opacity="1.00"/>
    <path d="M499,194L511,136L542,226Z" fill="rgb(255, 134, 81)" fill-opacity="0.26"/>
    <path d="M251,306L296,284L276,292Z" fill="rgb(248, 246, 237)" fill-opacity="0.35"/>
    <path d="M299,181L308,221L290,210Z" fill="rgb(16, 26, 32)" fill-opacity="0.67"/>
    <path d="M32,178L45,215L45,170Z" fill="rgb(34, 35, 36)" fill-opacity="0.92"/>
    <path d="M152,154L137,154L151,135Z" fill="rgb(25, 31, 35)" fill-opacity="0.81"/>
    <path d="M245,112L245,108L231,111Z" fill="rgb(21, 32, 34)" fill-opacity="0.50"/>
    <path d="M178,109L139,101L142,111Z" fill="rgb(28, 32, 33)" fill-opacity="0.96"/>
    <path d="M192,209L196,196L196,219Z" fill="rgb(214, 208, 200)" fill-opacity="0.41"/>
    <path d="M331,109L345,130L319,104Z" fill="rgb(26, 34, 40)" fill-opacity="0.83"/>
    <path d="M134,147L129,156L144,145Z" fill="rgb(246, 243, 245)" fill-opacity="0.40"/>
    <path d="M427,197L416,193L427,179Z" fill="rgb(221, 182, 163)" fill-opacity="0.42"/>
    <path d="M273,239L282,248L278,220Z" fill="rgb(127, 146, 156)" fill-opacity="0.42"/>
    <path d="M129,339L135,299L139,321Z" fill="rgb(79, 77, 76)" fill-opacity="0.97"/>
    <path d="M255,269L226,150L237,242Z" fill="rgb(30, 41, 47)" fill-opacity="0.70"/>
    <path d="M298,44L348,36L307,88Z" fill="rgb(33, 40, 44)" fill-opacity="1.00"/>
    <path d="M370,97L370,95L360,94Z" fill="rgb(255, 237, 237)" fill-opacity="0.55"/>
    <path d="M392,241L409,247L394,262Z" fill="rgb(196, 225, 254)" fill-opacity="0.22"/>
    <path d="M234,233L228,221L229,213Z" fill="rgb(239, 248, 249)" fill-opacity="0.45"/>
    <path d="M288,274L277,283L280,263Z" fill="rgb(185, 231, 255)" fill-opacity="0.18"/>
    <path d="M220,85L192,117L179,97Z" fill="rgb(34, 33, 36)" fill-opacity="0.81"/>
    <path d="M217,263L223,228L225,243Z" fill="rgb(235, 236, 236)" fill-opacity="0.31"/>
    <path d="M432,226L447,246L417,233Z" fill="rgb(168, 95, 72)" fill-opacity="0.26"/>
    <path d="M72,294L45,292L70,279Z" fill="rgb(89, 121, 134)" fill-opacity="0.52"/>
    <path d="M396,292L401,319L421,291Z" fill="rgb(54, 67, 77)" fill-opacity="0.56"/>
    <path d="M260,266L260,280L254,253Z" fill="rgb(213, 226, 224)" fill-opacity="0.49"/>
    <path d="M133,45L138,56L131,54Z" fill="rgb(108, 125, 131)" fill-opacity="0.52"/>
    <path d="M125,130L136,110L128,137Z" fill="rgb(223, 226, 229)" fill-opacity="0.42"/>
    <path d="M108,219L77,222L85,228Z" fill="rgb(154, 164, 171)" fill-opacity="0.53"/>
    <path d="M382,87L391,72L372,75Z" fill="rgb(41, 26, 21)" fill-opacity="0.59"/>
    <path d="M126,225L84,215L117,207Z" fill="rgb(228, 230, 230)" fill-opacity="0.80"/>
    <path d="M253,183L249,205L247,189Z" fill="rgb(40, 54, 60)" fill-opacity="0.68"/>
    <path d="M265,103L259,121L262,97Z" fill="rgb(236, 240, 240)" fill-opacity="0.60"/>
    <path d="M291,257L315,267L305,208Z" fill="rgb(32, 43, 49)" fill-opacity="0.95"/>
    <path d="M246,99L246,132L262,94Z" fill="rgb(121, 129, 127)" fill-opacity="0.66"/>
    <path d="M110,248L115,242L106,244Z" fill="rgb(209, 218, 219)" fill-opacity="0.70"/>
    <path d="M275,116L288,115L286,122Z" fill="rgb(129, 72, 95)" fill-opacity="0.41"/>
    <path d="M136,197L136,179L134,187Z" fill="rgb(236, 235, 237)" fill-opacity="0.36"/>
    <path d="M121,275L121,237L123,250Z" fill="rgb(244, 251, 253)" fill-opacity="0.59"/>
    <path d="M130,299L134,307L139,304Z" fill="rgb(255, 233, 213)" fill-opacity="0.38"/>
    <path d="M48,112L54,121L60,108Z" fill="rgb(4, 6, 4)" fill-opacity="0.50"/>
    <path d="M201,293L200,187L226,294Z" fill="rgb(30, 40, 46)" fill-opacity="0.90"/>
    <path d="M69,146L71,125L66,132Z" fill="rgb(239, 248, 255)" fill-opacity="0.23"/>
    <path d="M270,86L267,83L241,93Z" fill="rgb(149, 161, 167)" fill-opacity="0.82"/>
    <path d="M126,204L94,211L100,161Z" fill="rgb(17, 25, 30)" fill-opacity="0.67"/>
    <path d="M238,149L265,125L286,125Z" fill="rgb(27, 41, 50)" fill-opacity="0.51"/>
    <path d="M365,134L341,121L327,124Z" fill="rgb(24, 38, 44)" fill-opacity="0.57"/>
    <path d="M87,102L82,114L68,102Z" fill="rgb(20, 28, 31)" fill-opacity="0.55"/>
    <path d="M214,236L227,249L215,230Z" fill="rgb(115, 114, 113)" fill-opacity="1.00"/>
    <path d="M390,162L395,162L390,130Z" fill="rgb(251, 255, 255)" fill-opacity="0.20"/>
    <path d="M209,106L255,54L202,109Z" fill="rgb(46, 56, 63)" fill-opacity="0.53"/>
    <path d="M358,125L394,136L371,99Z" fill="rgb(60, 60, 64)" fill-opacity="0.97"/>
    <path d="M205,42L205,32L197,34Z" fill="rgb(221, 217, 219)" fill-opacity="0.39"/>
    <path d="M346,131L376,140L359,141Z" fill="rgb(148, 170, 183)" fill-opacity="0.52"/>
    <path d="M400,232L400,194L396,232Z" fill="rgb(225, 237, 249)" fill-opacity="0.29"/>
    <path d="M238,348L243,311L236,323Z" fill="rgb(246, 207, 157)" fill-opacity="0.23"/>
    <path d="M191,178L209,135L214,156Z" fill="rgb(37, 46, 48)" fill-opacity="0.74"/>
    <path d="M256,202L255,178L259,197Z" fill="rgb(230, 242, 244)" fill-opacity="0.44"/>
    <path d="M287,237L298,299L287,226Z" fill="rgb(220, 238, 241)" fill-opacity="0.29"/>
    <path d="M138,143L133,140L124,154Z" fill="rgb(7, 14, 19)" fill-opacity="0.44"/>
    <path d="M249,224L280,178L244,214Z" fill="rgb(83, 85, 83)" fill-opacity="0.68"/>
    <path d="M54,196L50,181L44,200Z" fill="rgb(139, 136, 124)" fill-opacity="0.51"/>
    <path d="M82,234L109,246L82,224Z" fill="rgb(22, 33, 40)" fill-opacity="0.54"/>
    <path d="M481,222L546,235L482,215Z" fill="rgb(229, 138, 91)" fill-opacity="0.40"/>
    <path d="M149,75L101,96L157,89Z" fill="rgb(38, 49, 53)" fill-opacity="0.63"/>
    <path d="M373,160L361,166L364,142Z" fill="rgb(95, 110, 116)" fill-opacity="0.60"/>
    <path d="M130,198L133,203L116,210Z" fill="rgb(116, 127, 134)" fill-opacity="0.65"/>
    <path d="M264,312L321,272L253,306Z" fill="rgb(47, 46, 26)" fill-opacity="0.59"/>
    <path d="M244,312L273,283L238,294Z" fill="rgb(2, 20, 30)" fill-opacity="0.42"/>
    <path d="M193,66L173,72L189,80Z" fill="rgb(255, 205, 173)" fill-opacity="0.39"/>
    <path d="M468,274L450,292L462,296Z" fill="rgb(213, 255, 241)" fill-opacity="0.24"/>
    <path d="M197,129L213,155L189,141Z" fill="rgb(61, 72, 76)" fill-opacity="0.65"/>
    <path d="M143,115L133,113L140,108Z" fill="rgb(183, 186, 190)" fill-opacity="0.64"/>
    <path d="M495,307L629,287L509,268Z" fill="rgb(26, 29, 29)" fill-opacity="1.00"/>
    <path d="M15,131L6,140L42,123Z" fill="rgb(211, 218, 212)" fill-opacity="0.32"/>
    <path d="M136,168L157,148L173,138Z" fill="rgb(204, 209, 217)" fill-opacity="0.22"/>
    <path d="M249,165L259,176L246,190Z" fill="rgb(185, 196, 185)" fill-opacity="0.29"/>
    <path d="M109,162L93,161L131,126Z" fill="rgb(102, 121, 127)" fill-opacity="0.70"/>
    <path d="M242,117L250,124L238,96Z" fill="rgb(34, 44, 51)" fill-opacity="0.57"/>
    <path d="M357,117L364,113L348,114Z" fill="rgb(222, 242, 255)" fill-opacity="0.36"/>
    <path d="M130,142L127,140L111,171Z" fill="rgb(225, 234, 235)" fill-opacity="0.37"/>
    <path d="M215,161L198,212L196,198Z" fill="rgb(30, 37, 41)" fill-opacity="0.99"/>
    <path d="M159,85L184,92L181,72Z" fill="rgb(128, 84, 81)" fill-opacity="0.57"/>
    <path d="M338,102L339,118L348,111Z" fill="rgb(205, 229, 245)" fill-opacity="0.32"/>
    <path d="M93,248L96,269L122,296Z" fill="rgb(63, 85, 96)" fill-opacity="0.75"/>
    <path d="M135,316L131,300L131,320Z" fill="rgb(220, 201, 191)" fill-opacity="0.51"/>
    <path d="M152,295L114,324L176,289Z" fill="rgb(7, 17, 25)" fill-opacity="0.55"/>
    <path d="M148,64L145,77L136,78Z" fill="rgb(116, 127, 132)" fill-opacity="0.74"/>
    <path d="M251,65L226,66L251,48Z" fill="rgb(103, 90, 90)" fill-opacity="0.70"/>
    <path d="M333,290L327,243L336,287Z" fill="rgb(99, 121, 131)" fill-opacity="0.35"/>
    <path d="M459,198L464,188L456,190Z" fill="rgb(242, 177, 132)" fill-opacity="0.29"/>
    <path d="M290,203L289,233L283,175Z" fill="rgb(103, 105, 108)" fill-opacity="0.62"/>
    <path d="M302,142L307,164L308,126Z" fill="rgb(18, 28, 33)" fill-opacity="0.65"/>
    <path d="M496,142L460,214L499,188Z" fill="rgb(90, 43, 32)" fill-opacity="0.51"/>
    <path d="M229,145L235,118L218,153Z" fill="rgb(18, 29, 34)" fill-opacity="0.54"/>
    <path d="M112,269L93,244L93,249Z" fill="rgb(245, 248, 250)" fill-opacity="0.64"/>
    <path d="M66,196L79,183L68,167Z" fill="rgb(255, 200, 156)" fill-opacity="0.16"/>
    <path d="M345,156L350,134L381,188Z" fill="rgb(39, 50, 56)" fill-opacity="0.67"/>
    <path d="M274,150L284,192L251,167Z" fill="rgb(20, 28, 33)" fill-opacity="0.69"/>
    <path d="M49,219L77,193L24,221Z" fill="rgb(62, 69, 71)" fill-opacity="0.41"/>
    <path d="M508,226L500,208L540,212Z" fill="rgb(52, 35, 30)" fill-opacity="0.70"/>
    <path d="M218,35L172,28L182,5Z" fill="rgb(39, 50, 57)" fill-opacity="0.74"/>
    <path d="M69,211L83,210L76,215Z" fill="rgb(96, 100, 102)" fill-opacity="0.92"/>
    <path d="M455,238L460,244L448,238Z" fill="rgb(192, 187, 179)" fill-opacity="0.39"/>
    <path d="M286,138L277,127L272,135Z" fill="rgb(213, 236, 243)" fill-opacity="0.31"/>
    <path d="M325,87L318,102L316,96Z" fill="rgb(143, 160, 165)" fill-opacity="0.54"/>
    <path d="M130,149L118,161L95,207Z" fill="rgb(25, 33, 36)" fill-opacity="0.79"/>
    <path d="M332,8L430,3L384,59Z" fill="rgb(31, 35, 37)" fill-opacity="0.93"/>
    <path d="M360,64L372,76L351,75Z" fill="rgb(34, 29, 26)" fill-opacity="0.64"/>
    <path d="M394,173L381,172L383,143Z" fill="rgb(18, 27, 32)" fill-opacity="0.71"/>
    <path d="M343,84L323,88L342,90Z" fill="rgb(138, 161, 168)" fill-opacity="0.52"/>
    <path d="M312,242L303,183L302,189Z" fill="rgb(250, 255, 251)" fill-opacity="0.27"/>
    <path d="M127,131L127,134L137,131Z" fill="rgb(227, 229, 222)" fill-opacity="0.53"/>
    <path d="M299,297L283,301L275,306Z" fill="rgb(186, 185, 172)" fill-opacity="0.45"/>
    <path d="M123,234L127,287L147,225Z" fill="rgb(23, 33, 39)" fill-opacity="0.85"/>
    <path d="M191,215L189,212L195,253Z" fill="rgb(238, 238, 249)" fill-opacity="0.30"/>
    <path d="M112,181L88,184L71,176Z" fill="rgb(29, 35, 38)" fill-opacity="0.47"/>
    <path d="M49,196L40,197L52,197Z" fill="rgb(252, 250, 252)" fill-opacity="0.42"/>
    <path d="M141,122L156,93L183,133Z" fill="rgb(26, 31, 33)" fill-opacity="0.75"/>
    <path d="M142,153L142,165L136,171Z" fill="rgb(183, 187, 194)" fill-opacity="0.49"/>
    <path d="M317,267L315,267L309,223Z" fill="rgb(242, 250, 255)" fill-opacity="0.33"/>
    <path d="M415,236L424,227L406,215Z" fill="rgb(14, 18, 25)" fill-opacity="0.54"/>
    <path d="M301,129L300,108L307,111Z" fill="rgb(237, 254, 255)" fill-opacity="0.36"/>
    <path d="M388,211L390,237L394,179Z" fill="rgb(141, 157, 173)" fill-opacity="0.30"/>
    <path d="M96,246L108,240L117,241Z" fill="rgb(39, 47, 55)" fill-opacity="0.57"/>
    <path d="M278,304L251,320L245,326Z" fill="rgb(203, 198, 181)" fill-opacity="0.55"/>
    <path d="M108,36L92,99L146,65Z" fill="rgb(32, 42, 48)" fill-opacity="0.72"/>
    <path d="M291,299L283,302L262,313Z" fill="rgb(250, 244, 225)" fill-opacity="0.43"/>
    <path d="M441,172L406,165L403,187Z" fill="rgb(82, 46, 42)" fill-opacity="0.51"/>
    <path d="M260,212L257,190L261,209Z" fill="rgb(203, 210, 204)" fill-opacity="0.61"/>
    <path d="M222,116L226,107L222,96Z" fill="rgb(25, 32, 39)" fill-opacity="0.87"/>
    <path d="M223,48L226,48L240,41Z" fill="rgb(192, 199, 206)" fill-opacity="0.55"/>
    <path d="M118,272L90,272L132,264Z" fill="rgb(227, 249, 255)" fill-opacity="0.21"/>
    <path d="M127,224L126,216L116,214Z" fill="rgb(136, 151, 151)" fill-opacity="0.78"/>
    <path d="M481,304L403,298L450,292Z" fill="rgb(68, 83, 91)" fill-opacity="0.81"/>
    <path d="M360,45L338,58L343,48Z" fill="rgb(72, 89, 98)" fill-opacity="0.60"/>
    <path d="M62,109L66,102L67,113Z" fill="rgb(255, 254, 255)" fill-opacity="0.39"/>
    <path d="M143,271L140,222L151,288Z" fill="rgb(63, 74, 77)" fill-opacity="0.51"/>
    <path d="M141,138L155,129L138,150Z" fill="rgb(242, 252, 255)" fill-opacity="0.21"/>
    <path d="M224,264L226,301L230,296Z" fill="rgb(124, 140, 142)" fill-opacity="0.39"/>
    <path d="M136,141L144,137L133,138Z" fill="rgb(173, 175, 177)" fill-opacity="0.60"/>
    <path d="M120,253L123,241L115,233Z" fill="rgb(226, 229, 232)" fill-opacity="0.57"/>
    <path d="M284,70L273,89L281,68Z" fill="rgb(191, 204, 197)" fill-opacity="0.39"/>
    <path d="M139,49L147,45L156,47Z" fill="rgb(255, 254, 252)" fill-opacity="0.59"/>
    <path d="M265,113L260,123L264,107Z" fill="rgb(5, 19, 23)" fill-opacity="0.50"/>
    <path d="M469,183L467,191L472,184Z" fill="rgb(255, 232, 205)" fill-opacity="0.44"/>
    <path d="M227,283L225,260L237,262Z" fill="rgb(3, 18, 26)" fill-opacity="0.44"/>
    <path d="M189,145L193,169L190,143Z" fill="rgb(247, 248, 241)" fill-opacity="0.54"/>
    <path d="M405,235L409,234L406,211Z" fill="rgb(151, 146, 155)" fill-opacity="0.38"/>
    <path d="M87,240L73,240L78,245Z" fill="rgb(199, 240, 250)" fill-opacity="0.34"/>
    <path d="M239,182L247,195L251,214Z" fill="rgb(205, 208, 210)" fill-opacity="0.37"/>
    <path d="M165,80L169,84L166,93Z" fill="rgb(195, 151, 146)" fill-opacity="0.73"/>
    <path d="M134,319L215,380L179,224Z" fill="rgb(5, 18, 27)" fill-opacity="0.50"/>
    <path d="M283,166L298,191L284,183Z" fill="rgb(108, 124, 131)" fill-opacity="0.44"/>
    <path d="M232,195L244,202L240,190Z" fill="rgb(44, 52, 57)" fill-opacity="0.67"/>
    <path d="M352,100L365,111L344,116Z" fill="rgb(17, 25, 35)" fill-opacity="0.39"/>
    <path d="M434,199L434,191L476,171Z" fill="rgb(174, 112, 94)" fill-opacity="0.24"/>
    <path d="M129,134L186,117L129,140Z" fill="rgb(17, 22, 27)" fill-opacity="0.75"/>
    <path d="M400,202L400,248L406,218Z" fill="rgb(24, 30, 38)" fill-opacity="0.65"/>
    <path d="M495,233L562,255L504,228Z" fill="rgb(102, 61, 51)" fill-opacity="0.83"/>
    <path d="M101,112L101,122L100,114Z" fill="rgb(226, 236, 255)" fill-opacity="0.52"/>
    <path d="M268,152L264,149L253,162Z" fill="rgb(79, 102, 110)" fill-opacity="0.56"/>
    <path d="M258,125L251,125L227,146Z" fill="rgb(153, 161, 167)" fill-opacity="0.36"/>
    <path d="M418,181L430,191L404,186Z" fill="rgb(147, 96, 77)" fill-opacity="0.60"/>
    <path d="M55,242L61,244L61,241Z" fill="rgb(174, 193, 197)" fill-opacity="0.45"/>
    <path d="M159,44L174,44L148,74Z" fill="rgb(26, 36, 41)" fill-opacity="0.83"/>
    <path d="M133,168L133,151L137,162Z" fill="rgb(38, 46, 51)" fill-opacity="0.62"/>
    <path d="M271,91L307,111L290,69Z" fill="rgb(48, 59, 66)" fill-opacity="0.70"/>
    <path d="M208,57L222,46L218,52Z" fill="rgb(168, 176, 182)" fill-opacity="0.39"/>
    <path d="M485,270L498,297L508,271Z" fill="rgb(92, 75, 34)" fill-opacity="0.66"/>
    <path d="M249,89L203,67L245,64Z" fill="rgb(1, 34, 49)" fill-opacity="0.23"/>
    <path d="M393,172L399,200L379,174Z" fill="rgb(101, 104, 108)" fill-opacity="0.61"/>
    <path d="M417,193L428,193L423,189Z" fill="rgb(255, 252, 247)" fill-opacity="0.59"/>
    <path d="M71,117L75,119L72,114Z" fill="rgb(177, 188, 188)" fill-opacity="0.43"/>
    <path d="M217,252L218,251L217,247Z" fill="rgb(230, 235, 241)" fill-opacity="0.53"/>
    <path d="M243,94L196,125L267,87Z" fill="rgb(22, 30, 33)" fill-opacity="0.46"/>
    <path d="M108,171L84,195L76,137Z" fill="rgb(32, 41, 44)" fill-opacity="0.73"/>
    <path d="M183,160L182,155L182,168Z" fill="rgb(239, 240, 229)" fill-opacity="0.66"/>
    <path d="M142,159L145,153L139,156Z" fill="rgb(254, 255, 250)" fill-opacity="0.40"/>
    <path d="M330,226L332,229L322,223Z" fill="rgb(136, 146, 149)" fill-opacity="0.43"/>
    <path d="M224,369L214,270L239,314Z" fill="rgb(38, 56, 65)" fill-opacity="0.50"/>
    <path d="M242,129L222,121L250,126Z" fill="rgb(53, 59, 64)" fill-opacity="0.79"/>
    <path d="M344,315L334,318L343,339Z" fill="rgb(44, 67, 83)" fill-opacity="0.45"/>
    <path d="M472,268L485,255L431,249Z" fill="rgb(22, 23, 22)" fill-opacity="0.50"/>
    <path d="M476,268L472,277L485,277Z" fill="rgb(111, 87, 31)" fill-opacity="0.46"/>
    <path d="M260,185L262,190L265,178Z" fill="rgb(140, 156, 163)" fill-opacity="0.58"/>
    <path d="M422,283L443,300L451,282Z" fill="rgb(121, 138, 148)" fill-opacity="0.57"/>
    <path d="M444,180L449,185L450,198Z" fill="rgb(194, 152, 131)" fill-opacity="0.46"/>
    <path d="M143,59L85,56L145,74Z" fill="rgb(33, 42, 48)" fill-opacity="0.94"/>
    <path d="M339,144L339,131L347,145Z" fill="rgb(171, 180, 174)" fill-opacity="0.35"/>
    <path d="M346,151L342,163L346,163Z" fill="rgb(252, 255, 249)" fill-opacity="0.33"/>
    <path d="M78,216L68,186L64,200Z" fill="rgb(117, 108, 101)" fill-opacity="0.49"/>
    <path d="M344,104L372,78L372,90Z" fill="rgb(69, 41, 32)" fill-opacity="0.53"/>
    <path d="M279,290L294,286L282,291Z" fill="rgb(240, 243, 246)" fill-opacity="0.35"/>
    <path d="M287,140L285,145L289,169Z" fill="rgb(139, 174, 189)" fill-opacity="0.29"/>
    <path d="M90,222L97,215L109,235Z" fill="rgb(161, 170, 175)" fill-opacity="0.64"/>
    <path d="M135,172L138,181L183,154Z" fill="rgb(21, 27, 30)" fill-opacity="0.76"/>
    <path d="M378,179L387,199L391,183Z" fill="rgb(39, 49, 57)" fill-opacity="0.72"/>
    <path d="M169,101L162,101L156,87Z" fill="rgb(140, 133, 142)" fill-opacity="0.45"/>
    <path d="M413,93L414,106L413,111Z" fill="rgb(255, 245, 249)" fill-opacity="0.43"/>
    <path d="M116,89L142,100L113,106Z" fill="rgb(24, 32, 36)" fill-opacity="0.67"/>
    <path d="M379,122L388,133L380,130Z" fill="rgb(158, 172, 182)" fill-opacity="0.35"/>
    <path d="M371,103L384,76L411,117Z" fill="rgb(23, 26, 28)" fill-opacity="0.97"/>
    <path d="M270,137L233,156L266,134Z" fill="rgb(111, 127, 130)" fill-opacity="0.49"/>
    <path d="M118,250L112,245L120,245Z" fill="rgb(7, 26, 39)" fill-opacity="0.45"/>
    <path d="M344,47L343,42L335,55Z" fill="rgb(251, 255, 255)" fill-opacity="0.47"/>
    <path d="M103,166L114,161L103,157Z" fill="rgb(165, 168, 169)" fill-opacity="0.61"/>
    <path d="M370,106L357,119L365,118Z" fill="rgb(0, 10, 17)" fill-opacity="0.45"/>
    <path d="M69,141L69,146L72,153Z" fill="rgb(204, 212, 215)" fill-opacity="0.53"/>
    <path d="M140,144L136,145L140,133Z" fill="rgb(37, 46, 53)" fill-opacity="0.57"/>
    <path d="M399,271L405,256L392,244Z" fill="rgb(135, 145, 151)" fill-opacity="0.67"/>
    <path d="M385,245L464,242L451,254Z" fill="rgb(14, 19, 19)" fill-opacity="0.32"/>
    <path d="M136,140L170,129L177,124Z" fill="rgb(207, 216, 220)" fill-opacity="0.25"/>
    <path d="M256,180L272,166L258,190Z" fill="rgb(52, 65, 70)" fill-opacity="0.67"/>
    <path d="M217,265L225,275L225,251Z" fill="rgb(125, 111, 94)" fill-opacity="0.48"/>
    <path d="M310,51L338,74L303,103Z" fill="rgb(31, 39, 42)" fill-opacity="0.77"/>
    <path d="M2,296L108,301L65,336Z" fill="rgb(28, 47, 59)" fill-opacity="0.45"/>
    <path d="M141,49L177,87L162,51Z" fill="rgb(34, 39, 44)" fill-opacity="0.77"/>
    <path d="M507,220L465,218L507,225Z" fill="rgb(172, 104, 70)" fill-opacity="0.63"/>
    <path d="M203,131L197,129L209,123Z" fill="rgb(126, 137, 135)" fill-opacity="0.51"/>
    <path d="M249,307L260,301L238,319Z" fill="rgb(250, 243, 220)" fill-opacity="0.35"/>
    <path d="M31,162L69,163L65,115Z" fill="rgb(32, 37, 40)" fill-opacity="0.73"/>
    <path d="M173,34L151,41L155,44Z" fill="rgb(65, 82, 87)" fill-opacity="0.50"/>
    <path d="M473,267L482,261L509,267Z" fill="rgb(220, 196, 137)" fill-opacity="0.41"/>
    <path d="M250,70L272,71L256,67Z" fill="rgb(42, 53, 58)" fill-opacity="0.62"/>
    <path d="M248,251L253,270L260,279Z" fill="rgb(88, 103, 104)" fill-opacity="0.52"/>
    <path d="M297,221L300,212L302,221Z" fill="rgb(213, 238, 247)" fill-opacity="0.33"/>
    <path d="M144,61L149,68L145,70Z" fill="rgb(237, 251, 255)" fill-opacity="0.28"/>
    <path d="M313,141L308,164L309,111Z" fill="rgb(112, 130, 142)" fill-opacity="0.44"/>
    <path d="M241,212L249,193L239,203Z" fill="rgb(164, 186, 195)" fill-opacity="0.47"/>
    <path d="M122,289L118,285L86,289Z" fill="rgb(50, 69, 80)" fill-opacity="1.00"/>
    <path d="M216,57L199,61L221,51Z" fill="rgb(33, 33, 38)" fill-opacity="0.55"/>
    <path d="M192,40L196,48L210,49Z" fill="rgb(46, 49, 56)" fill-opacity="0.57"/>
    <path d="M343,197L345,185L343,175Z" fill="rgb(116, 132, 145)" fill-opacity="0.44"/>
    <path d="M15,134L-29,312L48,125Z" fill="rgb(16, 24, 27)" fill-opacity="0.47"/>
    <path d="M358,102L363,109L370,103Z" fill="rgb(152, 119, 112)" fill-opacity="0.62"/>
    <path d="M260,128L242,117L272,141Z" fill="rgb(45, 56, 62)" fill-opacity="1.00"/>
    <path d="M231,205L234,234L234,220Z" fill="rgb(219, 227, 218)" fill-opacity="0.33"/>
    <path d="M72,162L73,150L77,169Z" fill="rgb(187, 207, 215)" fill-opacity="0.28"/>
    <path d="M228,263L219,236L213,226Z" fill="rgb(241, 215, 200)" fill-opacity="0.21"/>
    <path d="M59,112L80,97L68,108Z" fill="rgb(190, 194, 198)" fill-opacity="0.47"/>
    <path d="M77,99L80,96L89,98Z" fill="rgb(236, 243, 253)" fill-opacity="0.48"/>
    <path d="M81,196L85,222L88,201Z" fill="rgb(255, 255, 249)" fill-opacity="0.37"/>
    <path d="M357,58L335,59L346,87Z" fill="rgb(102, 121, 126)" fill-opacity="0.35"/>
    <path d="M87,232L79,228L104,256Z" fill="rgb(16, 24, 30)" fill-opacity="0.62"/>
    <path d="M309,109L333,142L319,109Z" fill="rgb(27, 38, 44)" fill-opacity="0.69"/>
    <path d="M477,252L475,245L487,230Z" fill="rgb(98, 63, 53)" fill-opacity="1.00"/>
    <path d="M261,33L256,33L198,60Z" fill="rgb(144, 148, 156)" fill-opacity="0.50"/>
    <path d="M376,241L388,221L387,196Z" fill="rgb(22, 29, 33)" fill-opacity="0.77"/>
    <path d="M61,231L73,230L95,217Z" fill="rgb(81, 97, 106)" fill-opacity="0.72"/>
    <path d="M252,190L257,189L248,198Z" fill="rgb(3, 16, 25)" fill-opacity="0.56"/>
    <path d="M288,157L275,154L277,146Z" fill="rgb(126, 145, 158)" fill-opacity="0.48"/>
    <path d="M282,138L287,139L282,145Z" fill="rgb(8, 17, 26)" fill-opacity="0.40"/>
    <path d="M320,114L311,114L311,115Z" fill="rgb(214, 218, 224)" fill-opacity="0.61"/>
    <path d="M371,100L373,62L374,91Z" fill="rgb(255, 191, 158)" fill-opacity="0.35"/>
    <path d="M333,129L341,200L310,164Z" fill="rgb(17, 23, 27)" fill-opacity="0.64"/>
    <path d="M244,130L264,126L256,122Z" fill="rgb(242, 255, 255)" fill-opacity="0.18"/>
    <path d="M238,115L257,130L243,121Z" fill="rgb(248, 255, 253)" fill-opacity="0.37"/>
    <path d="M375,199L389,203L379,185Z" fill="rgb(228, 246, 255)" fill-opacity="0.14"/>
    <path d="M208,56L243,34L233,44Z" fill="rgb(231, 250, 255)" fill-opacity="0.15"/>
    <path d="M472,142L464,-3L614,-29Z" fill="rgb(17, 13, 10)" fill-opacity="0.50"/>
    <path d="M257,197L249,201L249,205Z" fill="rgb(3, 14, 19)" fill-opacity="0.65"/>
    <path d="M256,176L267,203L268,195Z" fill="rgb(130, 147, 157)" fill-opacity="0.34"/>
    <path d="M181,183L175,199L180,192Z" fill="rgb(104, 116, 119)" fill-opacity="0.48"/>
    <path d="M194,45L210,84L175,43Z" fill="rgb(173, 154, 161)" fill-opacity="0.29"/>
    <path d="M113,249L119,247L108,247Z" fill="rgb(249, 254, 255)" fill-opacity="0.58"/>
    <path d="M149,90L149,109L132,91Z" fill="rgb(255, 255, 215)" fill-opacity="0.12"/>
    <path d="M377,194L379,199L375,199Z" fill="rgb(254, 254, 239)" fill-opacity="0.48"/>
    <path d="M488,232L475,225L444,226Z" fill="rgb(134, 91, 73)" fill-opacity="0.59"/>
    <path d="M271,69L269,62L266,70Z" fill="rgb(188, 189, 197)" fill-opacity="0.45"/>
    <path d="M462,242L426,225L464,232Z" fill="rgb(35, 33, 37)" fill-opacity="0.61"/>
    <path d="M396,210L401,210L396,203Z" fill="rgb(255, 255, 255)" fill-opacity="0.51"/>
    <path d="M420,124L420,130L419,127Z" fill="rgb(228, 241, 231)" fill-opacity="0.41"/>
    <path d="M277,187L265,203L274,237Z" fill="rgb(47, 59, 65)" fill-opacity="1.00"/>
    <path d="M278,240L261,215L256,246Z" fill="rgb(50, 69, 79)" fill-opacity="0.59"/>
    <path d="M36,162L43,174L33,171Z" fill="rgb(104, 92, 84)" fill-opacity="0.47"/>
    <path d="M45,298L84,297L42,303Z" fill="rgb(68, 92, 107)" fill-opacity="0.45"/>
    <path d="M108,126L108,134L107,134Z" fill="rgb(224, 237, 236)" fill-opacity="0.63"/>
    <path d="M126,160L126,167L127,165Z" fill="rgb(236, 253, 255)" fill-opacity="0.46"/>
    <path d="M134,150L138,171L138,147Z" fill="rgb(255, 255, 248)" fill-opacity="0.28"/>
    <path d="M494,319L524,321L479,288Z" fill="rgb(63, 73, 69)" fill-opacity="0.31"/>
    <path d="M240,183L244,184L249,174Z" fill="rgb(116, 126, 124)" fill-opacity="0.59"/>
    <path d="M469,174L483,176L481,189Z" fill="rgb(130, 77, 59)" fill-opacity="0.52"/>
    <path d="M182,163L197,203L189,176Z" fill="rgb(250, 252, 244)" fill-opacity="0.38"/>
    <path d="M443,202L446,176L434,211Z" fill="rgb(54, 38, 38)" fill-opacity="0.59"/>
    <path d="M506,194L506,191L496,194Z" fill="rgb(251, 254, 233)" fill-opacity="0.44"/>
    <path d="M231,194L227,211L246,196Z" fill="rgb(49, 56, 60)" fill-opacity="0.59"/>
    <path d="M189,159L138,214L121,270Z" fill="rgb(19, 27, 32)" fill-opacity="0.66"/>
    <path d="M378,143L363,132L364,139Z" fill="rgb(139, 160, 172)" fill-opacity="0.48"/>
    <path d="M258,103L262,109L253,105Z" fill="rgb(54, 73, 83)" fill-opacity="0.55"/>
    <path d="M189,173L189,168L191,180Z" fill="rgb(193, 186, 177)" fill-opacity="0.48"/>
    <path d="M300,312L300,306L299,307Z" fill="rgb(163, 188, 198)" fill-opacity="0.46"/>
    <path d="M329,98L335,84L347,78Z" fill="rgb(174, 189, 206)" fill-opacity="0.30"/>
    <path d="M305,234L286,129L293,127Z" fill="rgb(21, 28, 34)" fill-opacity="0.83"/>
    <path d="M164,188L163,172L135,182Z" fill="rgb(65, 84, 99)" fill-opacity="0.30"/>
    <path d="M202,200L207,193L205,203Z" fill="rgb(231, 241, 224)" fill-opacity="0.31"/>
    <path d="M130,320L137,313L130,315Z" fill="rgb(240, 226, 216)" fill-opacity="0.68"/>
    <path d="M496,150L496,144L497,146Z" fill="rgb(218, 223, 212)" fill-opacity="0.48"/>
    <path d="M231,206L226,213L233,209Z" fill="rgb(156, 160, 155)" fill-opacity="0.65"/>
    <path d="M220,230L221,236L220,242Z" fill="rgb(12, 21, 26)" fill-opacity="0.73"/>
    <path d="M431,159L432,159L431,167Z" fill="rgb(216, 203, 217)" fill-opacity="0.55"/>
    <path d="M129,327L140,322L134,322Z" fill="rgb(189, 169, 155)" fill-opacity="0.47"/>
    <path d="M217,200L219,192L217,194Z" fill="rgb(251, 250, 233)" fill-opacity="0.41"/>
    <path d="M419,180L428,181L419,186Z" fill="rgb(255, 238, 231)" fill-opacity="0.38"/>
    <path d="M324,115L332,123L324,120Z" fill="rgb(251, 255, 252)" fill-opacity="0.53"/>
    <path d="M215,88L222,75L215,74Z" fill="rgb(255, 215, 206)" fill-opacity="0.25"/>
    <path d="M164,26L142,47L151,5Z" fill="rgb(43, 52, 58)" fill-opacity="1.00"/>
    <path d="M340,83L336,66L328,74Z" fill="rgb(44, 52, 57)" fill-opacity="0.85"/>
    <path d="M68,267L91,239L90,292Z" fill="rgb(20, 32, 40)" fill-opacity="0.47"/>
    <path d="M107,240L112,243L101,243Z" fill="rgb(0, 8, 12)" fill-opacity="0.54"/>
    <path d="M409,193L423,194L417,217Z" fill="rgb(47, 37, 38)" fill-opacity="0.73"/>
    <path d="M87,96L97,92L83,96Z" fill="rgb(251, 255, 255)" fill-opacity="0.45"/>
    <path d="M272,86L261,89L273,89Z" fill="rgb(15, 25, 32)" fill-opacity="0.40"/>
    <path d="M15,154L8,138L6,139Z" fill="rgb(95, 104, 109)" fill-opacity="0.61"/>
    <path d="M253,67L200,68L204,72Z" fill="rgb(36, 50, 57)" fill-opacity="0.76"/>
    <path d="M127,210L132,218L106,210Z" fill="rgb(254, 255, 255)" fill-opacity="0.34"/>
    <path d="M194,254L194,245L196,256Z" fill="rgb(237, 244, 245)" fill-opacity="0.35"/>
    <path d="M436,197L438,189L434,195Z" fill="rgb(235, 186, 164)" fill-opacity="0.39"/>
    <path d="M226,325L225,327L226,327Z" fill="rgb(243, 246, 248)" fill-opacity="0.76"/>
    <path d="M379,80L379,87L372,84Z" fill="rgb(242, 192, 161)" fill-opacity="0.73"/>
</svg>