<svg xmlns="http://www.w3.org/2000/svg" viewBox="0 0 256 168.11940298507463" clip-path="url(#clip)" width="1341" height="880.6567164179105">
    <defs>
        <clipPath id="clip" clipPathUnits="objectBoundingBox">
            <rect x="0" y="0" width="256" height="168.11940298507463"/>
        </clipPath>
    </defs>
    <rect x="0" y="0" width="256" height="168.11940298507463" fill="rgb(52, 61, 68)"/>
    <path d="M258,45L151,87L154,2Z" fill="rgb(152, 163, 170)" fill-opacity="0.98"/>
    <path d="M78,-153L-6,10L109,73Z" fill="rgb(141, 155, 163)" fill-opacity="0.94"/>
    <path d="M16,120L271,126L88,53Z" fill="rgb(108, 116, 116)" fill-opacity="0.74"/>
    <path d="M224,72L151,16L188,73Z" fill="rgb(215, 228, 235)" fill-opacity="0.52"/>
    <path d="M153,72L180,47L154,23Z" fill="rgb(214, 220, 223)" fill-opacity="1.00"/>
    <path d="M199,134L217,106L183,109Z" fill="rgb(117, 130, 136)" fill-opacity="1.00"/>
    <path d="M107,102L126,86L96,82Z" fill="rgb(171, 182, 173)" fill-opacity="0.92"/>
    <path d="M104,53L101,18L31,16Z" fill="rgb(191, 200, 204)" fill-opacity="0.93"/>
    <path d="M173,54L186,72L92,131Z" fill="rgb(110, 119, 118)" fill-opacity="1.00"/>
    <path d="M122,87L156,83L153,96Z" fill="rgb(208, 219, 208)" fill-opacity="0.68"/>
    <path d="M159,56L224,46L191,33Z" fill="rgb(247, 250, 248)" fill-opacity="0.46"/>
    <path d="M266,407L-58,133L196,135Z" fill="rgb(21, 22, 22)" fill-opacity="0.67"/>
    <path d="M233,106L181,98L288,97Z" fill="rgb(213, 218, 182)" fill-opacity="0.28"/>
    <path d="M50,128L46,137L42,126Z" fill="rgb(170, 176, 176)" fill-opacity="0.85"/>
    <path d="M248,52L276,33L81,-21Z" fill="rgb(99, 116, 128)" fill-opacity="0.67"/>
    <path d="M79,112L98,80L31,56Z" fill="rgb(67, 75, 81)" fill-opacity="1.00"/>
    <path d="M153,73L206,73L165,133Z" fill="rgb(69, 75, 77)" fill-opacity="1.00"/>
    <path d="M205,128L266,304L242,102Z" fill="rgb(21, 23, 22)" fill-opacity="0.46"/>
    <path d="M216,61L274,43L116,64Z" fill="rgb(92, 106, 113)" fill-opacity="0.33"/>
    <path d="M264,-74L-73,21L107,10Z" fill="rgb(108, 125, 136)" fill-opacity="0.98"/>
    <path d="M149,38L108,7L158,12Z" fill="rgb(37, 42, 44)" fill-opacity="0.94"/>
    <path d="M27,79L-66,103L32,82Z" fill="rgb(97, 112, 124)" fill-opacity="0.97"/>
    <path d="M117,125L153,112L99,112Z" fill="rgb(206, 188, 173)" fill-opacity="0.42"/>
    <path d="M228,88L211,62L335,93Z" fill="rgb(80, 92, 101)" fill-opacity="0.85"/>
    <path d="M-24,9L36,21L136,92Z" fill="rgb(87, 103, 117)" fill-opacity="0.63"/>
    <path d="M50,115L56,85L64,114Z" fill="rgb(127, 137, 139)" fill-opacity="1.00"/>
    <path d="M103,47L164,78L107,77Z" fill="rgb(57, 64, 67)" fill-opacity="0.80"/>
    <path d="M182,105L185,82L205,97Z" fill="rgb(105, 114, 116)" fill-opacity="0.93"/>
    <path d="M96,15L128,0L150,10Z" fill="rgb(24, 29, 33)" fill-opacity="0.85"/>
    <path d="M204,56L197,99L199,65Z" fill="rgb(86, 96, 95)" fill-opacity="0.82"/>
    <path d="M243,48L154,31L231,36Z" fill="rgb(182, 193, 196)" fill-opacity="0.45"/>
    <path d="M29,102L21,110L76,113Z" fill="rgb(114, 129, 137)" fill-opacity="0.97"/>
    <path d="M3,62L52,61L-37,8Z" fill="rgb(34, 41, 48)" fill-opacity="0.86"/>
    <path d="M29,73L105,62L34,62Z" fill="rgb(106, 127, 146)" fill-opacity="0.54"/>
    <path d="M233,80L259,66L241,56Z" fill="rgb(69, 82, 91)" fill-opacity="0.98"/>
    <path d="M-2,121L56,84L-94,96Z" fill="rgb(28, 33, 32)" fill-opacity="0.70"/>
    <path d="M76,106L65,120L115,132Z" fill="rgb(70, 76, 79)" fill-opacity="0.89"/>
    <path d="M106,33L153,22L98,13Z" fill="rgb(44, 48, 50)" fill-opacity="0.80"/>
    <path d="M94,74L111,65L73,62Z" fill="rgb(124, 140, 153)" fill-opacity="0.77"/>
    <path d="M194,81L205,98L261,140Z" fill="rgb(50, 57, 57)" fill-opacity="0.97"/>
    <path d="M32,176L36,123L-18,122Z" fill="rgb(35, 41, 44)" fill-opacity="1.00"/>
    <path d="M6,61L84,73L-21,73Z" fill="rgb(79, 96, 112)" fill-opacity="0.63"/>
    <path d="M105,30L96,49L80,17Z" fill="rgb(202, 210, 213)" fill-opacity="1.00"/>
    <path d="M227,99L202,81L272,94Z" fill="rgb(31, 37, 38)" fill-opacity="0.71"/>
    <path d="M299,139L240,146L241,139Z" fill="rgb(84, 94, 102)" fill-opacity="0.77"/>
    <path d="M68,46L76,55L63,69Z" fill="rgb(54, 63, 73)" fill-opacity="1.00"/>
    <path d="M74,117L99,132L38,141Z" fill="rgb(38, 43, 47)" fill-opacity="0.84"/>
    <path d="M204,102L199,94L197,102Z" fill="rgb(254, 238, 181)" fill-opacity="0.50"/>
    <path d="M100,92L114,92L102,84Z" fill="rgb(228, 236, 231)" fill-opacity="0.73"/>
    <path d="M152,32L144,65L153,74Z" fill="rgb(95, 103, 104)" fill-opacity="0.72"/>
    <path d="M110,94L107,101L122,102Z" fill="rgb(131, 139, 126)" fill-opacity="1.00"/>
    <path d="M137,79L163,87L156,78Z" fill="rgb(101, 108, 110)" fill-opacity="1.00"/>
    <path d="M271,82L267,93L210,81Z" fill="rgb(98, 112, 122)" fill-opacity="0.82"/>
    <path d="M239,116L227,126L226,114Z" fill="rgb(85, 97, 103)" fill-opacity="0.95"/>
    <path d="M165,68L162,75L157,56Z" fill="rgb(143, 156, 164)" fill-opacity="1.00"/>
    <path d="M93,64L92,50L104,55Z" fill="rgb(93, 107, 113)" fill-opacity="0.90"/>
    <path d="M196,128L202,128L200,124Z" fill="rgb(224, 226, 225)" fill-opacity="0.94"/>
    <path d="M125,112L105,116L140,116Z" fill="rgb(186, 171, 155)" fill-opacity="0.98"/>
    <path d="M206,145L197,137L200,151Z" fill="rgb(94, 97, 80)" fill-opacity="0.94"/>
    <path d="M155,74L157,14L174,31Z" fill="rgb(220, 227, 229)" fill-opacity="0.52"/>
    <path d="M207,31L116,-33L240,25Z" fill="rgb(72, 87, 100)" fill-opacity="0.64"/>
    <path d="M46,119L68,119L35,131Z" fill="rgb(73, 84, 91)" fill-opacity="0.91"/>
    <path d="M217,82L224,53L252,49Z" fill="rgb(52, 61, 66)" fill-opacity="0.46"/>
    <path d="M18,17L98,12L100,20Z" fill="rgb(159, 172, 180)" fill-opacity="0.83"/>
    <path d="M237,-86L206,22L267,-3Z" fill="rgb(10, 18, 31)" fill-opacity="0.30"/>
    <path d="M129,84L137,96L159,84Z" fill="rgb(188, 199, 192)" fill-opacity="0.76"/>
    <path d="M206,106L225,116L185,118Z" fill="rgb(119, 134, 142)" fill-opacity="1.00"/>
    <path d="M55,100L50,100L42,79Z" fill="rgb(50, 60, 62)" fill-opacity="0.98"/>
    <path d="M151,2L209,40L141,5Z" fill="rgb(129, 146, 157)" fill-opacity="0.86"/>
    <path d="M250,97L214,101L256,106Z" fill="rgb(121, 131, 124)" fill-opacity="0.67"/>
    <path d="M117,39L149,42L117,27Z" fill="rgb(73, 73, 82)" fill-opacity="0.99"/>
    <path d="M151,117L190,121L156,85Z" fill="rgb(73, 75, 75)" fill-opacity="0.82"/>
    <path d="M99,62L100,64L78,62Z" fill="rgb(152, 169, 182)" fill-opacity="0.97"/>
    <path d="M140,91L135,107L155,97Z" fill="rgb(133, 141, 126)" fill-opacity="0.86"/>
    <path d="M159,90L183,90L179,69Z" fill="rgb(48, 54, 59)" fill-opacity="0.82"/>
    <path d="M152,159L190,128L88,135Z" fill="rgb(41, 46, 47)" fill-opacity="0.76"/>
    <path d="M162,118L130,119L76,118Z" fill="rgb(202, 230, 253)" fill-opacity="0.56"/>
    <path d="M95,50L71,42L84,6Z" fill="rgb(199, 209, 212)" fill-opacity="0.45"/>
    <path d="M92,82L67,72L76,104Z" fill="rgb(56, 62, 66)" fill-opacity="1.00"/>
    <path d="M235,10L212,29L313,-11Z" fill="rgb(64, 76, 87)" fill-opacity="0.81"/>
    <path d="M71,113L52,84L71,82Z" fill="rgb(102, 111, 115)" fill-opacity="0.54"/>
    <path d="M13,146L32,158L29,151Z" fill="rgb(65, 73, 73)" fill-opacity="0.94"/>
    <path d="M256,108L249,94L275,116Z" fill="rgb(81, 88, 82)" fill-opacity="1.00"/>
    <path d="M238,116L271,112L215,110Z" fill="rgb(33, 38, 38)" fill-opacity="0.91"/>
    <path d="M179,121L125,132L83,118Z" fill="rgb(100, 114, 120)" fill-opacity="0.37"/>
    <path d="M54,93L58,104L59,94Z" fill="rgb(190, 190, 169)" fill-opacity="0.92"/>
    <path d="M104,41L102,23L81,20Z" fill="rgb(202, 210, 213)" fill-opacity="1.00"/>
    <path d="M69,116L13,110L70,102Z" fill="rgb(112, 128, 138)" fill-opacity="0.80"/>
    <path d="M65,56L4,20L40,51Z" fill="rgb(62, 75, 85)" fill-opacity="1.00"/>
    <path d="M183,55L151,45L211,43Z" fill="rgb(234, 236, 236)" fill-opacity="0.58"/>
    <path d="M176,182L241,146L319,162Z" fill="rgb(35, 40, 42)" fill-opacity="0.97"/>
    <path d="M183,93L197,79L183,84Z" fill="rgb(100, 111, 112)" fill-opacity="0.94"/>
    <path d="M248,121L193,176L208,136Z" fill="rgb(35, 40, 42)" fill-opacity="0.93"/>
    <path d="M35,125L22,123L0,107Z" fill="rgb(44, 51, 53)" fill-opacity="1.00"/>
    <path d="M220,81L181,86L215,70Z" fill="rgb(97, 113, 111)" fill-opacity="0.33"/>
    <path d="M64,75L-22,73L76,73Z" fill="rgb(37, 44, 49)" fill-opacity="1.00"/>
    <path d="M142,113L183,101L105,110Z" fill="rgb(78, 84, 83)" fill-opacity="0.91"/>
    <path d="M40,138L36,129L53,139Z" fill="rgb(51, 61, 67)" fill-opacity="1.00"/>
    <path d="M211,94L252,103L213,100Z" fill="rgb(149, 159, 149)" fill-opacity="0.37"/>
    <path d="M106,65L102,67L107,70Z" fill="rgb(249, 245, 228)" fill-opacity="0.48"/>
    <path d="M28,108L62,111L44,98Z" fill="rgb(124, 143, 157)" fill-opacity="0.52"/>
    <path d="M248,103L241,105L240,116Z" fill="rgb(75, 77, 71)" fill-opacity="1.00"/>
    <path d="M211,142L226,110L225,148Z" fill="rgb(30, 36, 39)" fill-opacity="0.84"/>
    <path d="M157,152L200,163L121,215Z" fill="rgb(15, 16, 18)" fill-opacity="0.74"/>
    <path d="M219,60L203,62L203,73Z" fill="rgb(161, 181, 196)" fill-opacity="0.70"/>
    <path d="M116,-20L199,16L199,28Z" fill="rgb(95, 112, 125)" fill-opacity="0.64"/>
    <path d="M200,70L176,68L196,73Z" fill="rgb(157, 173, 186)" fill-opacity="0.99"/>
    <path d="M40,66L45,81L40,57Z" fill="rgb(56, 66, 70)" fill-opacity="1.00"/>
    <path d="M150,85L147,92L160,83Z" fill="rgb(202, 208, 201)" fill-opacity="1.00"/>
    <path d="M193,72L171,73L163,68Z" fill="rgb(91, 103, 113)" fill-opacity="0.99"/>
    <path d="M104,121L91,154L112,126Z" fill="rgb(70, 79, 81)" fill-opacity="0.62"/>
    <path d="M63,47L77,68L67,72Z" fill="rgb(57, 66, 76)" fill-opacity="0.79"/>
    <path d="M166,14L158,11L160,27Z" fill="rgb(174, 187, 194)" fill-opacity="0.79"/>
    <path d="M-15,77L-18,92L25,79Z" fill="rgb(74, 85, 92)" fill-opacity="0.88"/>
    <path d="M128,84L113,101L116,84Z" fill="rgb(154, 168, 157)" fill-opacity="0.67"/>
    <path d="M52,58L45,28L56,69Z" fill="rgb(84, 98, 109)" fill-opacity="1.00"/>
    <path d="M153,26L153,40L174,56Z" fill="rgb(231, 235, 235)" fill-opacity="0.86"/>
    <path d="M246,129L222,150L240,118Z" fill="rgb(30, 35, 37)" fill-opacity="1.00"/>
    <path d="M132,36L134,28L141,42Z" fill="rgb(91, 89, 94)" fill-opacity="0.91"/>
    <path d="M53,145L59,142L58,150Z" fill="rgb(58, 64, 57)" fill-opacity="1.00"/>
    <path d="M41,99L5,92L33,103Z" fill="rgb(31, 37, 39)" fill-opacity="1.00"/>
    <path d="M154,42L149,12L124,108Z" fill="rgb(77, 82, 78)" fill-opacity="0.34"/>
    <path d="M132,68L113,68L85,56Z" fill="rgb(75, 84, 87)" fill-opacity="0.77"/>
    <path d="M115,102L100,92L101,99Z" fill="rgb(133, 143, 130)" fill-opacity="0.85"/>
    <path d="M200,134L204,118L217,124Z" fill="rgb(81, 93, 100)" fill-opacity="0.62"/>
    <path d="M254,48L249,35L216,26Z" fill="rgb(104, 117, 125)" fill-opacity="0.79"/>
    <path d="M99,112L99,100L126,109Z" fill="rgb(77, 88, 85)" fill-opacity="0.90"/>
    <path d="M-8,16L119,3L101,12Z" fill="rgb(123, 139, 150)" fill-opacity="0.79"/>
    <path d="M73,195L28,149L197,165Z" fill="rgb(18, 20, 22)" fill-opacity="0.68"/>
    <path d="M152,59L153,76L149,63Z" fill="rgb(118, 128, 131)" fill-opacity="1.00"/>
    <path d="M46,84L30,78L53,82Z" fill="rgb(78, 88, 87)" fill-opacity="0.92"/>
    <path d="M125,81L141,76L144,81Z" fill="rgb(123, 124, 126)" fill-opacity="0.71"/>
    <path d="M6,129L7,147L20,129Z" fill="rgb(49, 56, 59)" fill-opacity="0.88"/>
    <path d="M29,-11L81,6L76,-49Z" fill="rgb(87, 103, 116)" fill-opacity="1.00"/>
    <path d="M118,116L188,118L57,118Z" fill="rgb(59, 65, 66)" fill-opacity="0.60"/>
    <path d="M240,115L280,119L243,122Z" fill="rgb(90, 102, 108)" fill-opacity="0.85"/>
    <path d="M190,96L201,97L210,96Z" fill="rgb(56, 67, 70)" fill-opacity="0.88"/>
    <path d="M172,68L179,67L178,54Z" fill="rgb(76, 90, 102)" fill-opacity="0.77"/>
    <path d="M219,100L212,96L214,99Z" fill="rgb(161, 169, 163)" fill-opacity="0.87"/>
    <path d="M122,80L99,84L150,83Z" fill="rgb(71, 83, 86)" fill-opacity="0.85"/>
    <path d="M104,52L104,10L133,78Z" fill="rgb(58, 63, 65)" fill-opacity="0.84"/>
    <path d="M110,62L66,62L120,59Z" fill="rgb(61, 70, 76)" fill-opacity="0.90"/>
    <path d="M109,119L164,121L128,123Z" fill="rgb(108, 120, 124)" fill-opacity="1.00"/>
    <path d="M-15,462L65,127L97,125Z" fill="rgb(21, 20, 22)" fill-opacity="0.37"/>
    <path d="M170,66L168,47L171,65Z" fill="rgb(176, 183, 182)" fill-opacity="0.96"/>
    <path d="M43,133L45,126L49,129Z" fill="rgb(199, 203, 202)" fill-opacity="0.84"/>
    <path d="M270,159L212,148L206,156Z" fill="rgb(47, 53, 54)" fill-opacity="0.96"/>
    <path d="M47,8L60,1L85,16Z" fill="rgb(121, 138, 149)" fill-opacity="0.87"/>
    <path d="M111,159L99,159L103,144Z" fill="rgb(42, 49, 50)" fill-opacity="0.84"/>
    <path d="M226,52L221,61L203,59Z" fill="rgb(114, 129, 140)" fill-opacity="1.00"/>
    <path d="M105,47L102,54L97,45Z" fill="rgb(161, 170, 173)" fill-opacity="0.78"/>
    <path d="M126,1L109,12L134,32Z" fill="rgb(27, 31, 33)" fill-opacity="0.73"/>
    <path d="M155,72L184,102L177,132Z" fill="rgb(63, 64, 65)" fill-opacity="0.53"/>
    <path d="M2,118L6,125L29,110Z" fill="rgb(79, 90, 92)" fill-opacity="0.55"/>
    <path d="M178,29L164,40L191,42Z" fill="rgb(177, 191, 198)" fill-opacity="0.77"/>
    <path d="M195,91L237,86L190,84Z" fill="rgb(39, 47, 45)" fill-opacity="0.72"/>
    <path d="M176,144L177,123L211,137Z" fill="rgb(50, 57, 61)" fill-opacity="0.80"/>
    <path d="M50,137L53,126L46,134Z" fill="rgb(86, 95, 98)" fill-opacity="0.86"/>
    <path d="M206,91L193,92L191,98Z" fill="rgb(88, 96, 96)" fill-opacity="1.00"/>
    <path d="M204,98L201,104L202,96Z" fill="rgb(205, 202, 174)" fill-opacity="0.82"/>
    <path d="M178,112L146,112L173,105Z" fill="rgb(59, 63, 65)" fill-opacity="0.92"/>
    <path d="M80,60L95,57L64,40Z" fill="rgb(112, 129, 140)" fill-opacity="0.65"/>
    <path d="M33,19L36,13L83,43Z" fill="rgb(161, 173, 180)" fill-opacity="0.75"/>
    <path d="M199,49L179,69L179,59Z" fill="rgb(176, 189, 196)" fill-opacity="0.65"/>
    <path d="M42,99L72,99L60,100Z" fill="rgb(81, 93, 101)" fill-opacity="0.90"/>
    <path d="M69,73L84,63L95,73Z" fill="rgb(104, 123, 142)" fill-opacity="0.77"/>
    <path d="M69,50L1,11L57,50Z" fill="rgb(92, 107, 119)" fill-opacity="0.84"/>
    <path d="M82,17L85,16L82,-12Z" fill="rgb(145, 160, 168)" fill-opacity="0.92"/>
    <path d="M64,57L64,49L76,59Z" fill="rgb(42, 50, 59)" fill-opacity="1.00"/>
    <path d="M212,70L202,58L209,73Z" fill="rgb(158, 176, 189)" fill-opacity="1.00"/>
    <path d="M233,100L236,92L269,88Z" fill="rgb(32, 38, 41)" fill-opacity="0.91"/>
    <path d="M106,90L121,89L117,93Z" fill="rgb(193, 205, 195)" fill-opacity="0.94"/>
    <path d="M52,59L52,65L59,64Z" fill="rgb(124, 144, 159)" fill-opacity="0.51"/>
    <path d="M100,84L97,116L76,113Z" fill="rgb(96, 95, 95)" fill-opacity="0.85"/>
    <path d="M71,118L95,88L71,93Z" fill="rgb(69, 68, 68)" fill-opacity="0.69"/>
    <path d="M190,119L192,134L200,117Z" fill="rgb(84, 96, 102)" fill-opacity="0.65"/>
    <path d="M99,83L101,61L106,83Z" fill="rgb(83, 91, 96)" fill-opacity="0.94"/>
    <path d="M252,52L292,25L269,108Z" fill="rgb(30, 36, 40)" fill-opacity="0.94"/>
    <path d="M156,159L148,157L145,144Z" fill="rgb(52, 59, 58)" fill-opacity="0.90"/>
    <path d="M120,84L144,107L122,109Z" fill="rgb(101, 111, 97)" fill-opacity="0.63"/>
    <path d="M182,59L176,53L170,57Z" fill="rgb(111, 124, 129)" fill-opacity="0.97"/>
    <path d="M175,69L192,78L145,78Z" fill="rgb(42, 56, 68)" fill-opacity="0.39"/>
    <path d="M127,37L121,37L113,74Z" fill="rgb(50, 54, 58)" fill-opacity="0.90"/>
    <path d="M29,10L-12,0L68,-74Z" fill="rgb(98, 114, 127)" fill-opacity="0.99"/>
    <path d="M159,70L157,72L150,65Z" fill="rgb(174, 184, 188)" fill-opacity="0.99"/>
    <path d="M232,84L187,74L251,72Z" fill="rgb(56, 68, 76)" fill-opacity="0.52"/>
    <path d="M50,97L11,113L-9,117Z" fill="rgb(83, 90, 82)" fill-opacity="0.59"/>
    <path d="M181,121L179,123L170,121Z" fill="rgb(96, 108, 114)" fill-opacity="1.00"/>
    <path d="M17,115L52,152L22,146Z" fill="rgb(27, 32, 35)" fill-opacity="0.93"/>
    <path d="M195,62L199,73L179,62Z" fill="rgb(186, 204, 217)" fill-opacity="0.93"/>
    <path d="M9,93L8,91L24,87Z" fill="rgb(60, 67, 68)" fill-opacity="0.91"/>
    <path d="M5,98L-20,103L-24,98Z" fill="rgb(86, 94, 95)" fill-opacity="0.96"/>
    <path d="M140,5L121,-4L165,4Z" fill="rgb(98, 116, 128)" fill-opacity="0.94"/>
    <path d="M213,100L201,84L205,102Z" fill="rgb(36, 43, 44)" fill-opacity="0.61"/>
    <path d="M159,115L155,112L142,116Z" fill="rgb(121, 111, 105)" fill-opacity="0.74"/>
    <path d="M-1,163L3,125L-1,112Z" fill="rgb(24, 29, 31)" fill-opacity="0.97"/>
    <path d="M216,119L217,138L223,118Z" fill="rgb(32, 40, 44)" fill-opacity="0.91"/>
    <path d="M57,104L54,87L54,100Z" fill="rgb(170, 176, 168)" fill-opacity="0.66"/>
    <path d="M178,29L222,36L166,18Z" fill="rgb(121, 139, 151)" fill-opacity="0.75"/>
    <path d="M158,75L130,68L144,78Z" fill="rgb(43, 52, 58)" fill-opacity="0.69"/>
</svg>