<svg xmlns="http://www.w3.org/2000/svg" viewBox="0 0 191.8800749531543 256" clip-path="url(#clip)">
    <defs>
        <clipPath id="clip" clipPathUnits="objectBoundingBox">
            <rect x="0" y="0" width="191.8800749531543" height="256"/>
        </clipPath>
    </defs>
    <rect x="0" y="0" width="191.8800749531543" height="256" fill="rgb(107, 112, 112)"/>
    <path d="M91,-36L166,195L306,105Z" fill="rgb(185, 193, 186)" fill-opacity="0.91"/>
    <path d="M28,144L126,-10L-67,49Z" fill="rgb(166, 178, 192)" fill-opacity="0.90"/>
    <path d="M60,79L-290,1091L161,96Z" fill="rgb(12, 3, 0)" fill-opacity="0.49"/>
    <path d="M185,101L163,248L112,168Z" fill="rgb(245, 204, 150)" fill-opacity="0.59"/>
    <path d="M120,57L37,148L168,137Z" fill="rgb(36, 19, 1)" fill-opacity="0.37"/>
    <path d="M27,220L-2,161L-7,293Z" fill="rgb(19, 23, 28)" fill-opacity="0.63"/>
    <path d="M115,51L79,44L100,20Z" fill="rgb(35, 16, 0)" fill-opacity="0.48"/>
    <path d="M72,286L163,240L115,190Z" fill="rgb(82, 42, 1)" fill-opacity="0.45"/>
    <path d="M14,165L32,181L50,111Z" fill="rgb(237, 242, 253)" fill-opacity="0.33"/>
    <path d="M86,12L74,90L15,81Z" fill="rgb(235, 243, 255)" fill-opacity="0.48"/>
    <path d="M59,153L57,203L13,252Z" fill="rgb(170, 179, 189)" fill-opacity="0.35"/>
    <path d="M178,127L174,47L108,44Z" fill="rgb(213, 231, 233)" fill-opacity="0.71"/>
    <path d="M168,139L150,125L162,105Z" fill="rgb(187, 159, 133)" fill-opacity="1.00"/>
    <path d="M90,60L55,86L51,16Z" fill="rgb(225, 231, 244)" fill-opacity="0.69"/>
    <path d="M125,202L108,236L124,241Z" fill="rgb(222, 157, 100)" fill-opacity="0.52"/>
    <path d="M133,70L129,121L156,99Z" fill="rgb(151, 128, 85)" fill-opacity="0.52"/>
    <path d="M149,219L181,122L133,158Z" fill="rgb(240, 217, 182)" fill-opacity="0.55"/>
    <path d="M63,0L-39,-58L0,93Z" fill="rgb(116, 128, 145)" fill-opacity="0.66"/>
    <path d="M100,52L97,31L121,30Z" fill="rgb(3, 1, 0)" fill-opacity="0.50"/>
    <path d="M146,137L133,222L130,137Z" fill="rgb(167, 146, 109)" fill-opacity="0.62"/>
    <path d="M46,96L34,171L75,79Z" fill="rgb(68, 74, 81)" fill-opacity="0.57"/>
    <path d="M135,269L200,111L280,266Z" fill="rgb(176, 118, 46)" fill-opacity="0.32"/>
    <path d="M149,105L164,121L106,108Z" fill="rgb(63, 49, 31)" fill-opacity="0.72"/>
    <path d="M173,195L201,191L194,277Z" fill="rgb(77, 67, 42)" fill-opacity="0.54"/>
    <path d="M122,168L75,71L100,65Z" fill="rgb(30, 19, 13)" fill-opacity="0.51"/>
    <path d="M38,205L31,199L28,217Z" fill="rgb(160, 145, 129)" fill-opacity="0.76"/>
    <path d="M98,217L174,195L99,167Z" fill="rgb(171, 133, 75)" fill-opacity="0.36"/>
    <path d="M104,62L201,56L156,-65Z" fill="rgb(133, 184, 207)" fill-opacity="0.44"/>
    <path d="M108,74L118,40L94,60Z" fill="rgb(211, 142, 96)" fill-opacity="0.55"/>
    <path d="M36,151L27,142L29,172Z" fill="rgb(218, 218, 214)" fill-opacity="0.50"/>
    <path d="M131,161L38,155L117,117Z" fill="rgb(36, 31, 26)" fill-opacity="0.55"/>
    <path d="M44,225L38,212L63,249Z" fill="rgb(169, 173, 177)" fill-opacity="0.74"/>
    <path d="M141,101L149,129L131,101Z" fill="rgb(250, 229, 190)" fill-opacity="0.23"/>
    <path d="M143,138L146,125L161,138Z" fill="rgb(21, 0, 0)" fill-opacity="0.37"/>
    <path d="M133,150L146,214L136,134Z" fill="rgb(212, 190, 155)" fill-opacity="0.96"/>
    <path d="M118,269L49,262L91,151Z" fill="rgb(0, 7, 18)" fill-opacity="0.26"/>
    <path d="M139,253L120,249L127,219Z" fill="rgb(38, 35, 27)" fill-opacity="0.64"/>
    <path d="M128,-10L231,52L193,63Z" fill="rgb(97, 125, 137)" fill-opacity="0.39"/>
    <path d="M173,64L121,16L114,61Z" fill="rgb(194, 224, 233)" fill-opacity="0.56"/>
    <path d="M157,99L200,89L111,36Z" fill="rgb(242, 253, 250)" fill-opacity="0.32"/>
    <path d="M82,-58L105,28L173,33Z" fill="rgb(144, 186, 201)" fill-opacity="0.71"/>
    <path d="M121,206L141,202L107,195Z" fill="rgb(85, 74, 57)" fill-opacity="0.77"/>
    <path d="M80,45L101,57L92,21Z" fill="rgb(121, 110, 103)" fill-opacity="0.72"/>
    <path d="M178,135L141,140L147,185Z" fill="rgb(230, 210, 181)" fill-opacity="0.93"/>
    <path d="M144,168L138,159L136,108Z" fill="rgb(41, 41, 21)" fill-opacity="0.41"/>
    <path d="M36,238L29,246L43,246Z" fill="rgb(195, 203, 213)" fill-opacity="0.50"/>
    <path d="M74,66L75,110L72,114Z" fill="rgb(200, 209, 227)" fill-opacity="0.40"/>
    <path d="M55,162L53,175L60,161Z" fill="rgb(221, 227, 230)" fill-opacity="0.53"/>
    <path d="M100,48L110,55L88,57Z" fill="rgb(89, 63, 50)" fill-opacity="0.68"/>
    <path d="M130,212L68,238L109,212Z" fill="rgb(37, 34, 28)" fill-opacity="0.72"/>
    <path d="M84,85L111,72L107,89Z" fill="rgb(39, 30, 24)" fill-opacity="0.90"/>
    <path d="M101,-21L94,33L15,23Z" fill="rgb(148, 160, 173)" fill-opacity="0.50"/>
    <path d="M67,80L21,68L24,118Z" fill="rgb(183, 195, 210)" fill-opacity="0.71"/>
    <path d="M-58,153L28,207L31,172Z" fill="rgb(78, 84, 90)" fill-opacity="0.77"/>
    <path d="M170,202L108,208L153,215Z" fill="rgb(224, 195, 154)" fill-opacity="0.43"/>
    <path d="M28,125L-21,61L15,174Z" fill="rgb(125, 136, 149)" fill-opacity="0.61"/>
    <path d="M149,120L187,120L160,131Z" fill="rgb(224, 200, 175)" fill-opacity="0.98"/>
    <path d="M94,175L126,169L130,177Z" fill="rgb(98, 83, 57)" fill-opacity="0.63"/>
    <path d="M178,219L151,223L137,321Z" fill="rgb(161, 141, 112)" fill-opacity="0.74"/>
    <path d="M73,264L48,242L-2,256Z" fill="rgb(0, 4, 9)" fill-opacity="0.46"/>
    <path d="M114,166L109,166L118,204Z" fill="rgb(42, 35, 25)" fill-opacity="0.74"/>
    <path d="M132,122L115,146L131,108Z" fill="rgb(247, 188, 118)" fill-opacity="0.20"/>
    <path d="M130,142L142,129L131,120Z" fill="rgb(7, 5, 1)" fill-opacity="0.52"/>
    <path d="M-8,31L17,4L6,-23Z" fill="rgb(56, 75, 93)" fill-opacity="0.47"/>
    <path d="M119,144L96,158L92,186Z" fill="rgb(25, 15, 5)" fill-opacity="0.44"/>
    <path d="M132,28L140,17L34,14Z" fill="rgb(169, 196, 208)" fill-opacity="0.54"/>
    <path d="M111,159L124,158L96,186Z" fill="rgb(146, 114, 69)" fill-opacity="0.48"/>
    <path d="M12,254L22,233L40,214Z" fill="rgb(174, 178, 182)" fill-opacity="0.55"/>
    <path d="M196,89L161,157L181,196Z" fill="rgb(214, 189, 160)" fill-opacity="0.53"/>
    <path d="M73,18L54,16L35,73Z" fill="rgb(190, 202, 216)" fill-opacity="0.57"/>
    <path d="M99,123L121,101L97,114Z" fill="rgb(3, 2, 1)" fill-opacity="0.68"/>
    <path d="M55,84L51,92L77,101Z" fill="rgb(105, 110, 116)" fill-opacity="0.53"/>
    <path d="M120,188L122,180L126,190Z" fill="rgb(33, 21, 2)" fill-opacity="0.46"/>
    <path d="M102,133L59,168L51,95Z" fill="rgb(42, 46, 50)" fill-opacity="0.79"/>
    <path d="M118,78L126,74L116,56Z" fill="rgb(226, 191, 162)" fill-opacity="0.30"/>
    <path d="M85,165L142,88L116,75Z" fill="rgb(28, 10, 0)" fill-opacity="0.20"/>
    <path d="M99,31L113,28L115,57Z" fill="rgb(44, 23, 5)" fill-opacity="0.25"/>
    <path d="M38,140L13,170L28,168Z" fill="rgb(234, 220, 197)" fill-opacity="0.33"/>
    <path d="M103,60L108,75L97,77Z" fill="rgb(161, 105, 63)" fill-opacity="0.60"/>
    <path d="M125,215L124,236L112,222Z" fill="rgb(229, 166, 111)" fill-opacity="0.57"/>
    <path d="M89,209L115,225L117,231Z" fill="rgb(37, 29, 20)" fill-opacity="0.65"/>
    <path d="M139,94L143,76L153,105Z" fill="rgb(190, 171, 139)" fill-opacity="0.47"/>
    <path d="M80,50L84,80L91,57Z" fill="rgb(189, 170, 167)" fill-opacity="0.44"/>
    <path d="M19,239L12,254L24,242Z" fill="rgb(120, 124, 132)" fill-opacity="0.99"/>
    <path d="M138,260L169,217L197,225Z" fill="rgb(155, 132, 101)" fill-opacity="0.53"/>
    <path d="M148,214L124,223L151,247Z" fill="rgb(25, 32, 49)" fill-opacity="0.24"/>
    <path d="M170,195L139,199L139,214Z" fill="rgb(218, 192, 150)" fill-opacity="0.66"/>
    <path d="M15,199L-62,269L33,220Z" fill="rgb(37, 40, 43)" fill-opacity="0.96"/>
    <path d="M112,75L102,97L112,87Z" fill="rgb(190, 147, 104)" fill-opacity="0.36"/>
    <path d="M77,67L77,45L87,67Z" fill="rgb(235, 238, 254)" fill-opacity="0.60"/>
    <path d="M113,53L95,65L110,61Z" fill="rgb(244, 191, 154)" fill-opacity="0.59"/>
    <path d="M29,196L50,128L43,200Z" fill="rgb(41, 46, 52)" fill-opacity="0.70"/>
    <path d="M56,191L55,187L43,190Z" fill="rgb(231, 215, 182)" fill-opacity="0.39"/>
    <path d="M-9,42L23,40L19,-8Z" fill="rgb(101, 116, 130)" fill-opacity="0.58"/>
    <path d="M133,107L133,88L139,105Z" fill="rgb(251, 250, 182)" fill-opacity="0.27"/>
    <path d="M39,212L9,246L4,225Z" fill="rgb(35, 37, 40)" fill-opacity="0.63"/>
    <path d="M36,210L57,239L59,205Z" fill="rgb(74, 79, 84)" fill-opacity="0.92"/>
    <path d="M185,126L160,120L135,120Z" fill="rgb(229, 204, 180)" fill-opacity="0.61"/>
    <path d="M119,206L102,189L98,195Z" fill="rgb(155, 129, 93)" fill-opacity="0.59"/>
    <path d="M-32,143L30,152L1,168Z" fill="rgb(83, 91, 103)" fill-opacity="0.49"/>
    <path d="M171,88L151,73L157,107Z" fill="rgb(233, 240, 231)" fill-opacity="0.75"/>
    <path d="M86,66L76,69L76,93Z" fill="rgb(63, 67, 73)" fill-opacity="0.69"/>
    <path d="M180,109L163,97L208,92Z" fill="rgb(165, 164, 171)" fill-opacity="0.56"/>
    <path d="M106,188L97,177L106,176Z" fill="rgb(168, 137, 92)" fill-opacity="0.55"/>
    <path d="M135,203L145,196L100,188Z" fill="rgb(145, 116, 81)" fill-opacity="0.56"/>
    <path d="M99,11L91,-53L40,8Z" fill="rgb(118, 133, 146)" fill-opacity="0.59"/>
    <path d="M117,253L112,268L125,257Z" fill="rgb(248, 175, 110)" fill-opacity="0.56"/>
    <path d="M99,30L103,22L122,28Z" fill="rgb(214, 151, 105)" fill-opacity="0.39"/>
    <path d="M100,268L97,245L100,247Z" fill="rgb(188, 168, 138)" fill-opacity="0.56"/>
    <path d="M148,108L157,118L148,121Z" fill="rgb(17, 3, 0)" fill-opacity="0.47"/>
    <path d="M162,136L130,137L170,131Z" fill="rgb(105, 81, 63)" fill-opacity="0.70"/>
    <path d="M136,139L122,163L117,138Z" fill="rgb(97, 76, 45)" fill-opacity="0.51"/>
    <path d="M97,112L93,104L97,121Z" fill="rgb(88, 97, 107)" fill-opacity="0.56"/>
    <path d="M168,194L194,212L230,195Z" fill="rgb(56, 54, 31)" fill-opacity="0.38"/>
    <path d="M98,45L98,52L79,51Z" fill="rgb(163, 140, 132)" fill-opacity="0.68"/>
    <path d="M163,114L143,104L162,107Z" fill="rgb(135, 112, 81)" fill-opacity="0.64"/>
    <path d="M160,-15L202,10L202,75Z" fill="rgb(107, 132, 139)" fill-opacity="0.55"/>
    <path d="M39,241L38,219L21,240Z" fill="rgb(53, 56, 61)" fill-opacity="0.84"/>
    <path d="M37,212L61,248L61,246Z" fill="rgb(249, 250, 250)" fill-opacity="0.47"/>
    <path d="M76,81L72,63L76,68Z" fill="rgb(222, 223, 235)" fill-opacity="0.91"/>
    <path d="M18,191L9,190L18,187Z" fill="rgb(192, 177, 154)" fill-opacity="0.45"/>
    <path d="M98,205L106,210L101,200Z" fill="rgb(132, 111, 78)" fill-opacity="0.78"/>
    <path d="M142,224L139,214L149,227Z" fill="rgb(11, 13, 10)" fill-opacity="0.63"/>
    <path d="M161,99L198,112L170,130Z" fill="rgb(215, 205, 195)" fill-opacity="0.67"/>
    <path d="M120,249L97,260L107,236Z" fill="rgb(52, 44, 26)" fill-opacity="0.48"/>
    <path d="M74,87L64,108L68,78Z" fill="rgb(81, 86, 92)" fill-opacity="0.85"/>
    <path d="M134,148L141,161L132,168Z" fill="rgb(234, 211, 173)" fill-opacity="0.51"/>
    <path d="M45,116L55,143L51,95Z" fill="rgb(72, 76, 80)" fill-opacity="0.67"/>
    <path d="M148,197L185,176L191,185Z" fill="rgb(188, 161, 118)" fill-opacity="0.63"/>
    <path d="M92,41L85,28L83,49Z" fill="rgb(49, 56, 55)" fill-opacity="0.32"/>
    <path d="M130,173L120,163L133,161Z" fill="rgb(219, 190, 144)" fill-opacity="0.50"/>
    <path d="M224,214L176,281L178,231Z" fill="rgb(105, 88, 69)" fill-opacity="0.46"/>
    <path d="M112,50L95,50L127,55Z" fill="rgb(236, 193, 159)" fill-opacity="0.35"/>
    <path d="M55,169L58,150L58,166Z" fill="rgb(240, 241, 234)" fill-opacity="0.45"/>
    <path d="M150,119L167,120L137,103Z" fill="rgb(50, 35, 20)" fill-opacity="0.46"/>
    <path d="M141,95L137,91L138,101Z" fill="rgb(9, 16, 6)" fill-opacity="0.40"/>
    <path d="M33,155L11,161L31,171Z" fill="rgb(188, 183, 173)" fill-opacity="0.62"/>
    <path d="M103,64L98,65L97,53Z" fill="rgb(254, 217, 190)" fill-opacity="0.49"/>
    <path d="M121,76L114,92L121,63Z" fill="rgb(171, 143, 118)" fill-opacity="0.46"/>
    <path d="M106,60L97,52L100,32Z" fill="rgb(8, 2, 0)" fill-opacity="0.30"/>
    <path d="M122,41L114,60L158,60Z" fill="rgb(194, 220, 228)" fill-opacity="0.79"/>
    <path d="M45,144L-15,108L26,151Z" fill="rgb(136, 149, 162)" fill-opacity="0.40"/>
    <path d="M115,60L118,79L109,66Z" fill="rgb(41, 29, 22)" fill-opacity="0.49"/>
    <path d="M73,108L74,108L73,43Z" fill="rgb(216, 214, 229)" fill-opacity="0.55"/>
    <path d="M149,116L146,94L140,112Z" fill="rgb(40, 27, 4)" fill-opacity="0.28"/>
    <path d="M24,38L53,52L6,114Z" fill="rgb(162, 174, 190)" fill-opacity="0.46"/>
    <path d="M16,87L49,85L36,140Z" fill="rgb(182, 194, 209)" fill-opacity="0.50"/>
    <path d="M178,158L160,189L130,177Z" fill="rgb(239, 212, 170)" fill-opacity="0.48"/>
    <path d="M129,74L118,108L132,97Z" fill="rgb(70, 56, 43)" fill-opacity="1.00"/>
    <path d="M96,75L75,88L93,187Z" fill="rgb(35, 40, 45)" fill-opacity="0.63"/>
    <path d="M121,241L125,229L112,238Z" fill="rgb(208, 149, 95)" fill-opacity="0.50"/>
    <path d="M-12,173L14,210L28,205Z" fill="rgb(63, 67, 71)" fill-opacity="0.73"/>
    <path d="M2,94L24,79L9,51Z" fill="rgb(148, 161, 176)" fill-opacity="0.71"/>
    <path d="M59,91L70,50L53,31Z" fill="rgb(230, 239, 252)" fill-opacity="0.49"/>
    <path d="M125,237L106,224L107,235Z" fill="rgb(146, 104, 64)" fill-opacity="0.69"/>
    <path d="M99,132L114,127L96,123Z" fill="rgb(1, 1, 1)" fill-opacity="0.60"/>
    <path d="M130,16L184,99L186,66Z" fill="rgb(187, 207, 210)" fill-opacity="0.46"/>
    <path d="M3,262L27,242L36,254Z" fill="rgb(20, 22, 24)" fill-opacity="0.72"/>
    <path d="M28,149L31,157L45,150Z" fill="rgb(223, 240, 255)" fill-opacity="0.25"/>
    <path d="M144,155L169,156L141,136Z" fill="rgb(234, 215, 187)" fill-opacity="0.97"/>
    <path d="M92,18L80,30L99,19Z" fill="rgb(255, 245, 245)" fill-opacity="0.32"/>
    <path d="M130,141L118,163L134,160Z" fill="rgb(96, 82, 60)" fill-opacity="0.51"/>
    <path d="M103,4L66,24L70,42Z" fill="rgb(151, 164, 182)" fill-opacity="0.44"/>
    <path d="M88,84L86,58L104,68Z" fill="rgb(104, 57, 39)" fill-opacity="0.30"/>
    <path d="M32,9L29,30L20,14Z" fill="rgb(252, 178, 181)" fill-opacity="0.20"/>
    <path d="M111,81L112,73L109,82Z" fill="rgb(219, 177, 126)" fill-opacity="0.52"/>
    <path d="M126,77L124,92L124,65Z" fill="rgb(10, 3, 0)" fill-opacity="0.43"/>
    <path d="M125,241L135,220L125,219Z" fill="rgb(34, 30, 25)" fill-opacity="0.52"/>
    <path d="M62,252L60,245L64,252Z" fill="rgb(110, 112, 114)" fill-opacity="0.56"/>
    <path d="M98,136L118,136L95,146Z" fill="rgb(8, 5, 2)" fill-opacity="0.58"/>
    <path d="M156,213L181,221L182,208Z" fill="rgb(107, 101, 82)" fill-opacity="0.51"/>
    <path d="M146,252L188,285L133,255Z" fill="rgb(178, 154, 122)" fill-opacity="0.75"/>
    <path d="M133,157L144,171L146,195Z" fill="rgb(248, 222, 182)" fill-opacity="0.39"/>
    <path d="M147,216L174,208L136,173Z" fill="rgb(211, 186, 144)" fill-opacity="0.46"/>
    <path d="M113,99L98,94L98,89Z" fill="rgb(100, 80, 62)" fill-opacity="0.56"/>
    <path d="M2,25L8,12L18,61Z" fill="rgb(121, 134, 148)" fill-opacity="0.99"/>
    <path d="M159,108L124,75L154,94Z" fill="rgb(147, 130, 100)" fill-opacity="0.42"/>
    <path d="M140,190L129,161L131,193Z" fill="rgb(91, 56, 2)" fill-opacity="0.13"/>
    <path d="M126,173L110,173L109,168Z" fill="rgb(10, 9, 6)" fill-opacity="0.35"/>
    <path d="M88,127L75,144L92,115Z" fill="rgb(81, 83, 88)" fill-opacity="0.48"/>
    <path d="M31,241L41,241L31,247Z" fill="rgb(155, 158, 163)" fill-opacity="0.98"/>
    <path d="M137,112L136,126L150,117Z" fill="rgb(214, 182, 163)" fill-opacity="0.16"/>
    <path d="M82,239L105,213L112,223Z" fill="rgb(29, 26, 20)" fill-opacity="0.53"/>
    <path d="M98,33L116,29L98,51Z" fill="rgb(2, 8, 10)" fill-opacity="0.38"/>
    <path d="M104,23L106,26L84,27Z" fill="rgb(115, 97, 77)" fill-opacity="0.49"/>
    <path d="M32,210L30,216L30,201Z" fill="rgb(254, 252, 210)" fill-opacity="0.52"/>
    <path d="M32,198L32,207L60,207Z" fill="rgb(119, 105, 102)" fill-opacity="0.75"/>
    <path d="M56,184L63,217L105,186Z" fill="rgb(36, 43, 50)" fill-opacity="0.57"/>
    <path d="M52,123L37,145L39,128Z" fill="rgb(96, 102, 110)" fill-opacity="0.69"/>
    <path d="M85,47L66,24L31,63Z" fill="rgb(221, 227, 243)" fill-opacity="0.19"/>
    <path d="M98,157L111,144L98,146Z" fill="rgb(135, 95, 54)" fill-opacity="0.36"/>
    <path d="M136,121L134,130L131,94Z" fill="rgb(24, 20, 15)" fill-opacity="0.54"/>
    <path d="M137,210L110,212L141,203Z" fill="rgb(174, 146, 111)" fill-opacity="0.86"/>
    <path d="M122,197L132,182L130,201Z" fill="rgb(177, 147, 103)" fill-opacity="0.67"/>
    <path d="M113,52L90,57L87,52Z" fill="rgb(47, 30, 25)" fill-opacity="0.35"/>
    <path d="M140,198L136,205L132,193Z" fill="rgb(28, 20, 15)" fill-opacity="0.23"/>
    <path d="M108,153L123,118L111,173Z" fill="rgb(18, 3, 0)" fill-opacity="0.25"/>
    <path d="M111,29L108,22L117,29Z" fill="rgb(255, 236, 217)" fill-opacity="0.40"/>
    <path d="M98,211L107,213L98,214Z" fill="rgb(142, 112, 78)" fill-opacity="0.63"/>
    <path d="M148,251L127,256L142,246Z" fill="rgb(86, 74, 57)" fill-opacity="0.75"/>
    <path d="M98,90L111,84L89,73Z" fill="rgb(31, 24, 18)" fill-opacity="0.50"/>
    <path d="M35,178L25,191L24,176Z" fill="rgb(136, 146, 159)" fill-opacity="0.22"/>
    <path d="M33,249L34,268L39,226Z" fill="rgb(60, 64, 70)" fill-opacity="0.65"/>
    <path d="M120,86L121,79L111,98Z" fill="rgb(22, 17, 11)" fill-opacity="0.56"/>
    <path d="M107,100L95,97L103,102Z" fill="rgb(100, 86, 71)" fill-opacity="0.49"/>
    <path d="M111,222L113,218L121,218Z" fill="rgb(255, 174, 108)" fill-opacity="0.34"/>
    <path d="M134,208L130,212L152,241Z" fill="rgb(104, 93, 82)" fill-opacity="0.57"/>
    <path d="M27,232L41,213L26,231Z" fill="rgb(252, 254, 255)" fill-opacity="0.35"/>
    <path d="M121,161L112,161L114,158Z" fill="rgb(193, 156, 109)" fill-opacity="0.52"/>
    <path d="M134,212L137,255L126,222Z" fill="rgb(70, 63, 53)" fill-opacity="0.72"/>
    <path d="M114,179L118,184L122,161Z" fill="rgb(255, 216, 152)" fill-opacity="0.16"/>
    <path d="M119,206L110,179L116,183Z" fill="rgb(0, 1, 1)" fill-opacity="0.33"/>
    <path d="M101,51L103,52L133,45Z" fill="rgb(204, 190, 171)" fill-opacity="0.62"/>
    <path d="M85,57L86,62L70,72Z" fill="rgb(224, 226, 236)" fill-opacity="0.93"/>
    <path d="M102,132L132,96L115,122Z" fill="rgb(7, 5, 3)" fill-opacity="0.58"/>
    <path d="M151,76L165,98L140,86Z" fill="rgb(240, 253, 240)" fill-opacity="0.35"/>
    <path d="M99,39L80,36L89,29Z" fill="rgb(126, 122, 114)" fill-opacity="0.52"/>
    <path d="M150,46L117,61L114,36Z" fill="rgb(189, 217, 226)" fill-opacity="0.54"/>
    <path d="M118,27L110,36L119,34Z" fill="rgb(118, 100, 86)" fill-opacity="0.64"/>
    <path d="M3,235L6,235L3,239Z" fill="rgb(175, 174, 174)" fill-opacity="0.49"/>
    <path d="M116,76L98,124L116,82Z" fill="rgb(25, 20, 15)" fill-opacity="0.70"/>
    <path d="M169,190L176,187L169,203Z" fill="rgb(128, 111, 77)" fill-opacity="0.61"/>
    <path d="M104,176L55,187L60,148Z" fill="rgb(49, 59, 73)" fill-opacity="0.46"/>
    <path d="M159,-22L169,31L83,-13Z" fill="rgb(133, 170, 183)" fill-opacity="0.45"/>
    <path d="M124,111L107,135L122,123Z" fill="rgb(91, 67, 45)" fill-opacity="0.47"/>
    <path d="M145,212L144,205L133,212Z" fill="rgb(237, 214, 179)" fill-opacity="0.53"/>
    <path d="M90,63L88,59L100,57Z" fill="rgb(172, 140, 126)" fill-opacity="0.76"/>
    <path d="M34,26L50,29L39,42Z" fill="rgb(148, 160, 173)" fill-opacity="1.00"/>
    <path d="M139,93L140,91L145,99Z" fill="rgb(247, 242, 247)" fill-opacity="0.43"/>
    <path d="M11,183L13,158L-49,263Z" fill="rgb(60, 66, 74)" fill-opacity="0.40"/>
    <path d="M151,237L148,209L172,219Z" fill="rgb(195, 174, 144)" fill-opacity="0.27"/>
    <path d="M59,56L67,86L49,68Z" fill="rgb(218, 229, 243)" fill-opacity="0.51"/>
    <path d="M107,166L110,169L100,189Z" fill="rgb(159, 132, 91)" fill-opacity="0.57"/>
    <path d="M29,91L50,92L61,70Z" fill="rgb(195, 206, 221)" fill-opacity="0.60"/>
    <path d="M118,197L121,202L118,175Z" fill="rgb(253, 210, 151)" fill-opacity="0.23"/>
    <path d="M63,242L63,245L48,220Z" fill="rgb(162, 171, 181)" fill-opacity="0.27"/>
    <path d="M75,91L22,210L68,137Z" fill="rgb(42, 46, 52)" fill-opacity="0.44"/>
    <path d="M125,184L139,188L125,177Z" fill="rgb(208, 179, 129)" fill-opacity="0.58"/>
    <path d="M44,161L31,168L29,165Z" fill="rgb(83, 85, 92)" fill-opacity="0.63"/>
    <path d="M113,78L106,92L116,78Z" fill="rgb(155, 119, 93)" fill-opacity="0.41"/>
    <path d="M71,35L76,74L74,97Z" fill="rgb(216, 214, 229)" fill-opacity="0.40"/>
    <path d="M61,238L94,208L50,222Z" fill="rgb(44, 50, 58)" fill-opacity="0.60"/>
    <path d="M159,120L174,111L166,106Z" fill="rgb(255, 225, 192)" fill-opacity="0.27"/>
    <path d="M42,246L38,240L37,246Z" fill="rgb(249, 251, 252)" fill-opacity="0.35"/>
    <path d="M167,118L165,114L153,118Z" fill="rgb(202, 168, 121)" fill-opacity="0.44"/>
    <path d="M43,11L72,5L71,43Z" fill="rgb(180, 189, 202)" fill-opacity="0.22"/>
    <path d="M64,92L62,124L53,89Z" fill="rgb(4, 5, 3)" fill-opacity="0.16"/>
    <path d="M49,220L60,238L48,221Z" fill="rgb(141, 148, 155)" fill-opacity="0.36"/>
    <path d="M56,95L49,100L46,92Z" fill="rgb(118, 121, 123)" fill-opacity="0.55"/>
    <path d="M100,-9L136,13L96,24Z" fill="rgb(144, 191, 207)" fill-opacity="0.55"/>
    <path d="M96,105L96,131L94,150Z" fill="rgb(120, 126, 132)" fill-opacity="0.43"/>
    <path d="M-11,48L-10,75L43,17Z" fill="rgb(118, 132, 144)" fill-opacity="0.50"/>
    <path d="M171,188L178,223L183,192Z" fill="rgb(122, 104, 66)" fill-opacity="0.40"/>
    <path d="M79,100L89,109L77,105Z" fill="rgb(65, 72, 80)" fill-opacity="0.49"/>
    <path d="M146,158L183,160L175,186Z" fill="rgb(228, 205, 172)" fill-opacity="0.35"/>
    <path d="M115,58L107,86L101,91Z" fill="rgb(18, 12, 5)" fill-opacity="0.56"/>
</svg>