<svg clip-path="url(#clip)" viewBox="0 0 256 168.11940298507463">
    <defs>
        <clipPath id="clip" clipPathUnits="objectBoundingBox">
            <rect width="256" height="168.11940298507463" x="0" y="0"/>
        </clipPath>
    </defs>
    <rect width="256" height="168.11940298507463" x="0" y="0" fill="rgb(49, 61, 67)"/>
    <path fill="rgb(198, 215, 221)" fill-opacity="0.64" d="M144,95L255,44L157,4Z"/>
    <path fill="rgb(217, 243, 253)" fill-opacity="0.48" d="M106,77L100,-40L-20,-2Z"/>
    <path fill="rgb(101, 111, 110)" fill-opacity="1.00" d="M151,127L8,111L186,59Z"/>
    <path fill="rgb(225, 242, 224)" fill-opacity="0.54" d="M114,102L121,86L94,82Z"/>
    <path fill="rgb(227, 235, 235)" fill-opacity="0.54" d="M105,54L100,17L29,16Z"/>
    <path fill="rgb(129, 146, 148)" fill-opacity="0.63" d="M182,79L226,115L187,136Z"/>
    <path fill="rgb(234, 249, 255)" fill-opacity="0.38" d="M152,71L156,8L222,73Z"/>
    <path fill="rgb(219, 225, 223)" fill-opacity="0.63" d="M51,127L41,128L46,135Z"/>
    <path fill="rgb(231, 249, 232)" fill-opacity="0.48" d="M150,98L158,83L119,85Z"/>
    <path fill="rgb(250, 252, 250)" fill-opacity="0.45" d="M151,58L222,46L188,32Z"/>
    <path fill="rgb(161, 172, 149)" fill-opacity="0.44" d="M290,99L220,107L212,97Z"/>
    <path fill="rgb(157, 189, 199)" fill-opacity="0.24" d="M24,106L74,79L47,139Z"/>
    <path fill="rgb(96, 121, 134)" fill-opacity="0.63" d="M115,-16L339,57L172,28Z"/>
    <path fill="rgb(21, 30, 36)" fill-opacity="0.43" d="M188,76L174,50L147,117Z"/>
    <path fill="rgb(69, 87, 96)" fill-opacity="0.50" d="M170,82L29,25L-2,87Z"/>
    <path fill="rgb(7, 4, 0)" fill-opacity="0.43" d="M62,417L273,146L-21,127Z"/>
    <path fill="rgb(101, 127, 138)" fill-opacity="0.29" d="M250,92L319,33L142,61Z"/>
    <path fill="rgb(24, 18, 20)" fill-opacity="0.34" d="M66,208L95,88L72,75Z"/>
    <path fill="rgb(6, 11, 15)" fill-opacity="0.48" d="M99,13L106,37L103,12Z"/>
    <path fill="rgb(87, 111, 124)" fill-opacity="0.54" d="M72,-25L-37,4L33,37Z"/>
    <path fill="rgb(35, 45, 52)" fill-opacity="1.00" d="M52,60L3,30L-30,64Z"/>
    <path fill="rgb(235, 239, 239)" fill-opacity="0.68" d="M191,54L153,54L153,24Z"/>
    <path fill="rgb(184, 220, 243)" fill-opacity="0.27" d="M100,83L99,62L69,62Z"/>
    <path fill="rgb(191, 169, 156)" fill-opacity="0.53" d="M98,112L116,122L156,112Z"/>
    <path fill="rgb(37, 44, 46)" fill-opacity="1.00" d="M217,119L190,161L264,131Z"/>
    <path fill="rgb(8, 10, 0)" fill-opacity="0.34" d="M-105,149L45,75L39,102Z"/>
    <path fill="rgb(100, 124, 135)" fill-opacity="0.99" d="M132,-2L98,13L-105,-33Z"/>
    <path fill="rgb(206, 203, 180)" fill-opacity="0.52" d="M59,95L53,84L56,109Z"/>
    <path fill="rgb(6, 3, 0)" fill-opacity="0.39" d="M159,14L115,33L118,-4Z"/>
    <path fill="rgb(223, 242, 240)" fill-opacity="0.13" d="M327,128L189,108L154,114Z"/>
    <path fill="rgb(62, 69, 70)" fill-opacity="0.65" d="M153,29L96,79L153,77Z"/>
    <path fill="rgb(42, 47, 48)" fill-opacity="0.70" d="M190,124L228,161L89,137Z"/>
    <path fill="rgb(103, 120, 127)" fill-opacity="0.77" d="M243,51L224,25L261,46Z"/>
    <path fill="rgb(132, 155, 166)" fill-opacity="0.40" d="M270,80L252,90L221,83Z"/>
    <path fill="rgb(176, 206, 221)" fill-opacity="0.50" d="M204,74L216,67L201,66Z"/>
    <path fill="rgb(157, 193, 211)" fill-opacity="0.39" d="M32,82L-12,91L24,80Z"/>
    <path fill="rgb(66, 86, 99)" fill-opacity="0.59" d="M203,31L99,-59L234,26Z"/>
    <path fill="rgb(47, 60, 68)" fill-opacity="0.96" d="M72,49L79,62L27,62Z"/>
    <path fill="rgb(243, 255, 255)" fill-opacity="0.21" d="M90,57L60,42L107,28Z"/>
    <path fill="rgb(49, 54, 45)" fill-opacity="0.38" d="M198,70L203,56L202,72Z"/>
    <path fill="rgb(80, 86, 84)" fill-opacity="0.47" d="M149,95L133,132L197,124Z"/>
    <path fill="rgb(196, 209, 213)" fill-opacity="0.51" d="M154,24L179,51L163,9Z"/>
    <path fill="rgb(248, 248, 244)" fill-opacity="0.45" d="M201,122L195,127L202,134Z"/>
    <path fill="rgb(190, 230, 253)" fill-opacity="0.55" d="M169,118L75,118L135,119Z"/>
    <path fill="rgb(206, 237, 253)" fill-opacity="0.37" d="M199,60L199,75L176,63Z"/>
    <path fill="rgb(0, 3, 7)" fill-opacity="0.19" d="M210,54L273,48L229,69Z"/>
    <path fill="rgb(110, 137, 153)" fill-opacity="0.67" d="M100,73L69,73L84,62Z"/>
    <path fill="rgb(245, 255, 248)" fill-opacity="0.41" d="M100,97L112,92L100,82Z"/>
    <path fill="rgb(88, 106, 108)" fill-opacity="0.38" d="M99,140L143,119L94,119Z"/>
    <path fill="rgb(178, 182, 177)" fill-opacity="0.63" d="M102,67L102,73L109,64Z"/>
    <path fill="rgb(164, 165, 119)" fill-opacity="0.41" d="M197,140L201,152L206,141Z"/>
    <path fill="rgb(239, 248, 210)" fill-opacity="0.30" d="M145,101L137,100L134,84Z"/>
    <path fill="rgb(0, 4, 6)" fill-opacity="0.47" d="M253,64L254,49L273,61Z"/>
    <path fill="rgb(29, 37, 40)" fill-opacity="0.93" d="M227,110L206,144L221,146Z"/>
    <path fill="rgb(22, 29, 30)" fill-opacity="0.62" d="M235,99L271,91L203,86Z"/>
    <path fill="rgb(55, 67, 72)" fill-opacity="1.00" d="M157,73L161,89L234,73Z"/>
    <path fill="rgb(134, 104, 115)" fill-opacity="0.29" d="M103,36L138,29L140,41Z"/>
    <path fill="rgb(70, 86, 92)" fill-opacity="0.74" d="M222,116L204,121L200,136Z"/>
    <path fill="rgb(255, 237, 180)" fill-opacity="0.56" d="M200,104L198,98L205,97Z"/>
    <path fill="rgb(123, 149, 159)" fill-opacity="0.53" d="M133,2L197,31L2,-91Z"/>
    <path fill="rgb(132, 179, 211)" fill-opacity="0.18" d="M-7,73L69,73L54,59Z"/>
    <path fill="rgb(227, 238, 240)" fill-opacity="0.35" d="M168,23L149,71L157,73Z"/>
    <path fill="rgb(216, 242, 255)" fill-opacity="0.10" d="M244,115L247,149L410,136Z"/>
    <path fill="rgb(89, 105, 110)" fill-opacity="0.52" d="M172,54L180,66L158,69Z"/>
    <path fill="rgb(164, 183, 189)" fill-opacity="0.41" d="M171,23L245,45L165,42Z"/>
    <path fill="rgb(35, 41, 36)" fill-opacity="0.71" d="M216,111L220,105L313,124Z"/>
    <path fill="rgb(148, 164, 147)" fill-opacity="0.55" d="M110,102L131,85L99,94Z"/>
    <path fill="rgb(3, 10, 13)" fill-opacity="0.37" d="M146,8L97,19L115,5Z"/>
    <path fill="rgb(243, 255, 255)" fill-opacity="0.20" d="M47,125L40,134L54,139Z"/>
    <path fill="rgb(165, 180, 185)" fill-opacity="0.46" d="M44,10L73,31L19,17Z"/>
    <path fill="rgb(144, 153, 141)" fill-opacity="0.35" d="M227,101L258,108L250,96Z"/>
    <path fill="rgb(25, 31, 34)" fill-opacity="0.83" d="M-4,124L166,261L27,121Z"/>
    <path fill="rgb(58, 70, 71)" fill-opacity="0.48" d="M35,161L12,126L1,136Z"/>
    <path fill="rgb(245, 248, 242)" fill-opacity="0.42" d="M159,82L135,91L151,92Z"/>
    <path fill="rgb(13, 23, 23)" fill-opacity="0.49" d="M56,100L43,84L51,100Z"/>
    <path fill="rgb(20, 31, 43)" fill-opacity="0.51" d="M219,14L198,-12L281,-6Z"/>
    <path fill="rgb(16, 19, 21)" fill-opacity="0.82" d="M48,160L207,256L192,158Z"/>
    <path fill="rgb(75, 84, 85)" fill-opacity="0.49" d="M101,86L60,102L57,82Z"/>
    <path fill="rgb(73, 79, 82)" fill-opacity="0.95" d="M159,74L167,143L160,58Z"/>
    <path fill="rgb(246, 255, 255)" fill-opacity="0.17" d="M63,31L106,39L96,5Z"/>
    <path fill="rgb(55, 70, 69)" fill-opacity="0.65" d="M182,111L144,106L83,111Z"/>
    <path fill="rgb(96, 121, 132)" fill-opacity="0.49" d="M29,101L19,118L67,119Z"/>
    <path fill="rgb(97, 119, 130)" fill-opacity="0.88" d="M6,20L61,-6L-31,1Z"/>
    <path fill="rgb(56, 61, 59)" fill-opacity="0.66" d="M102,55L109,37L146,55Z"/>
    <path fill="rgb(67, 86, 72)" fill-opacity="0.43" d="M132,85L125,110L127,85Z"/>
    <path fill="rgb(29, 36, 40)" fill-opacity="0.73" d="M71,73L77,75L-138,73Z"/>
    <path fill="rgb(87, 109, 122)" fill-opacity="0.64" d="M65,55L35,39L34,18Z"/>
    <path fill="rgb(89, 99, 100)" fill-opacity="0.81" d="M155,41L147,52L150,39Z"/>
    <path fill="rgb(62, 70, 71)" fill-opacity="0.64" d="M176,118L43,118L114,116Z"/>
    <path fill="rgb(57, 68, 71)" fill-opacity="0.88" d="M81,125L51,119L101,119Z"/>
    <path fill="rgb(116, 121, 117)" fill-opacity="0.24" d="M74,92L42,95L67,79Z"/>
    <path fill="rgb(226, 232, 233)" fill-opacity="0.30" d="M207,41L177,71L191,39Z"/>
    <path fill="rgb(77, 96, 108)" fill-opacity="0.37" d="M226,16L253,49L290,-11Z"/>
    <path fill="rgb(98, 112, 123)" fill-opacity="0.30" d="M271,134L235,142L243,148Z"/>
    <path fill="rgb(103, 126, 138)" fill-opacity="0.60" d="M56,119L75,108L39,98Z"/>
    <path fill="rgb(130, 142, 133)" fill-opacity="0.46" d="M228,106L233,99L209,95Z"/>
    <path fill="rgb(50, 62, 62)" fill-opacity="0.51" d="M196,171L210,147L247,153Z"/>
    <path fill="rgb(50, 79, 97)" fill-opacity="0.24" d="M82,7L64,13L74,-26Z"/>
    <path fill="rgb(49, 58, 61)" fill-opacity="1.00" d="M157,16L155,12L145,46Z"/>
    <path fill="rgb(77, 89, 93)" fill-opacity="0.58" d="M102,68L137,85L83,81Z"/>
    <path fill="rgb(58, 73, 77)" fill-opacity="0.40" d="M42,118L13,105L46,146Z"/>
    <path fill="rgb(20, 28, 28)" fill-opacity="0.48" d="M35,101L58,79L-12,114Z"/>
    <path fill="rgb(33, 39, 43)" fill-opacity="0.74" d="M38,144L68,121L102,131Z"/>
    <path fill="rgb(255, 255, 252)" fill-opacity="0.56" d="M44,130L47,134L47,127Z"/>
    <path fill="rgb(44, 64, 56)" fill-opacity="0.40" d="M98,95L116,108L100,112Z"/>
    <path fill="rgb(193, 230, 245)" fill-opacity="0.15" d="M224,115L234,115L229,130Z"/>
    <path fill="rgb(228, 233, 234)" fill-opacity="0.68" d="M153,37L161,62L182,48Z"/>
    <path fill="rgb(75, 71, 69)" fill-opacity="0.58" d="M187,120L152,117L173,86Z"/>
    <path fill="rgb(19, 25, 24)" fill-opacity="0.51" d="M246,127L235,145L237,112Z"/>
    <path fill="rgb(42, 58, 64)" fill-opacity="0.59" d="M147,72L177,77L128,78Z"/>
    <path fill="rgb(10, 10, 4)" fill-opacity="0.50" d="M17,111L-33,126L26,111Z"/>
    <path fill="rgb(29, 33, 34)" fill-opacity="0.38" d="M167,79L163,93L186,81Z"/>
    <path fill="rgb(60, 71, 73)" fill-opacity="0.81" d="M96,150L91,152L112,120Z"/>
    <path fill="rgb(133, 143, 124)" fill-opacity="0.60" d="M144,104L160,91L140,92Z"/>
    <path fill="rgb(96, 111, 104)" fill-opacity="0.40" d="M212,79L199,71L176,93Z"/>
    <path fill="rgb(51, 62, 59)" fill-opacity="0.62" d="M154,146L155,159L132,151Z"/>
    <path fill="rgb(31, 36, 30)" fill-opacity="0.37" d="M258,102L245,105L267,92Z"/>
    <path fill="rgb(40, 56, 66)" fill-opacity="0.45" d="M218,-6L204,20L225,25Z"/>
    <path fill="rgb(33, 39, 28)" fill-opacity="0.40" d="M210,84L191,97L197,84Z"/>
    <path fill="rgb(24, 32, 40)" fill-opacity="0.25" d="M38,78L22,36L18,80Z"/>
    <path fill="rgb(206, 237, 253)" fill-opacity="0.49" d="M160,119L92,119L114,118Z"/>
    <path fill="rgb(226, 232, 233)" fill-opacity="0.53" d="M174,34L155,22L153,40Z"/>
    <path fill="rgb(208, 219, 212)" fill-opacity="0.44" d="M212,97L216,100L213,95Z"/>
    <path fill="rgb(48, 53, 57)" fill-opacity="0.38" d="M70,99L89,64L80,112Z"/>
    <path fill="rgb(106, 131, 144)" fill-opacity="0.45" d="M175,32L201,17L180,9Z"/>
    <path fill="rgb(68, 69, 74)" fill-opacity="0.52" d="M133,39L102,43L123,20Z"/>
    <path fill="rgb(65, 76, 78)" fill-opacity="1.00" d="M154,129L144,122L97,132Z"/>
    <path fill="rgb(246, 202, 184)" fill-opacity="0.15" d="M173,81L107,81L95,77Z"/>
    <path fill="rgb(62, 72, 74)" fill-opacity="1.00" d="M109,38L104,24L104,65Z"/>
    <path fill="rgb(84, 96, 100)" fill-opacity="0.50" d="M194,111L199,95L174,107Z"/>
    <path fill="rgb(112, 143, 163)" fill-opacity="0.45" d="M65,62L49,68L41,62Z"/>
    <path fill="rgb(59, 80, 96)" fill-opacity="0.31" d="M-11,22L35,20L28,39Z"/>
    <path fill="rgb(125, 133, 117)" fill-opacity="0.77" d="M115,104L109,97L114,95Z"/>
    <path fill="rgb(139, 172, 189)" fill-opacity="0.24" d="M187,120L187,123L67,120Z"/>
    <path fill="rgb(36, 49, 51)" fill-opacity="0.50" d="M103,63L93,60L104,60Z"/>
    <path fill="rgb(255, 255, 254)" fill-opacity="0.35" d="M198,124L204,127L198,133Z"/>
    <path fill="rgb(221, 251, 246)" fill-opacity="0.27" d="M158,84L103,86L103,84Z"/>
    <path fill="rgb(77, 89, 87)" fill-opacity="0.66" d="M40,83L66,85L29,77Z"/>
    <path fill="rgb(250, 205, 177)" fill-opacity="0.40" d="M148,116L110,116L115,111Z"/>
    <path fill="rgb(75, 92, 92)" fill-opacity="0.82" d="M98,104L100,73L100,114Z"/>
    <path fill="rgb(148, 168, 177)" fill-opacity="0.52" d="M38,23L102,8L96,19Z"/>
    <path fill="rgb(27, 35, 35)" fill-opacity="0.88" d="M239,110L224,113L240,116Z"/>
    <path fill="rgb(145, 169, 180)" fill-opacity="0.28" d="M195,34L156,7L177,45Z"/>
    <path fill="rgb(89, 105, 106)" fill-opacity="0.32" d="M7,116L38,109L2,126Z"/>
    <path fill="rgb(40, 44, 45)" fill-opacity="0.81" d="M132,12L129,32L155,22Z"/>
    <path fill="rgb(15, 23, 24)" fill-opacity="0.57" d="M9,91L24,86L-4,90Z"/>
    <path fill="rgb(10, 17, 2)" fill-opacity="0.27" d="M203,89L205,105L213,95Z"/>
    <path fill="rgb(66, 90, 107)" fill-opacity="0.60" d="M22,62L-8,62L-28,86Z"/>
    <path fill="rgb(247, 235, 198)" fill-opacity="0.47" d="M54,95L59,104L59,93Z"/>
    <path fill="rgb(199, 214, 213)" fill-opacity="0.25" d="M158,64L145,67L165,43Z"/>
    <path fill="rgb(210, 222, 226)" fill-opacity="0.57" d="M153,72L158,72L161,42Z"/>
    <path fill="rgb(38, 44, 46)" fill-opacity="0.68" d="M97,15L153,32L103,11Z"/>
    <path fill="rgb(77, 86, 87)" fill-opacity="0.50" d="M152,56L147,66L133,28Z"/>
    <path fill="rgb(120, 141, 148)" fill-opacity="0.40" d="M168,56L219,54L224,63Z"/>
    <path fill="rgb(45, 61, 68)" fill-opacity="0.92" d="M113,66L116,78L105,77Z"/>
    <path fill="rgb(59, 70, 69)" fill-opacity="0.54" d="M61,148L55,149L46,116Z"/>
    <path fill="rgb(122, 145, 153)" fill-opacity="0.51" d="M178,112L203,121L213,108Z"/>
    <path fill="rgb(94, 103, 104)" fill-opacity="0.74" d="M100,84L100,43L102,59Z"/>
    <path fill="rgb(201, 212, 214)" fill-opacity="1.00" d="M80,23L104,41L103,26Z"/>
    <path fill="rgb(34, 59, 60)" fill-opacity="0.35" d="M104,84L145,80L156,84Z"/>
    <path fill="rgb(233, 244, 234)" fill-opacity="0.25" d="M145,82L138,98L134,89Z"/>
    <path fill="rgb(30, 39, 47)" fill-opacity="0.62" d="M75,56L68,46L68,57Z"/>
    <path fill="rgb(125, 141, 147)" fill-opacity="0.39" d="M221,37L222,28L252,42Z"/>
    <path fill="rgb(106, 132, 143)" fill-opacity="0.41" d="M70,34L85,58L22,21Z"/>
    <path fill="rgb(53, 64, 73)" fill-opacity="0.55" d="M77,59L68,67L74,72Z"/>
    <path fill="rgb(77, 93, 101)" fill-opacity="0.53" d="M164,72L180,64L164,62Z"/>
    <path fill="rgb(88, 101, 98)" fill-opacity="0.45" d="M13,147L35,158L27,150Z"/>
    <path fill="rgb(212, 217, 218)" fill-opacity="0.61" d="M179,61L180,59L180,71Z"/>
    <path fill="rgb(24, 30, 36)" fill-opacity="0.38" d="M216,128L282,128L210,150Z"/>
    <path fill="rgb(91, 106, 112)" fill-opacity="0.56" d="M242,115L240,120L286,140Z"/>
    <path fill="rgb(17, 29, 33)" fill-opacity="0.40" d="M52,103L45,85L54,99Z"/>
    <path fill="rgb(255, 255, 240)" fill-opacity="0.34" d="M155,83L145,90L155,93Z"/>
    <path fill="rgb(101, 132, 150)" fill-opacity="0.47" d="M121,4L165,-38L114,4Z"/>
    <path fill="rgb(49, 62, 66)" fill-opacity="0.44" d="M199,67L204,60L199,79Z"/>
    <path fill="rgb(205, 218, 195)" fill-opacity="0.51" d="M120,91L120,85L112,96Z"/>
    <path fill="rgb(147, 160, 142)" fill-opacity="0.38" d="M205,146L202,149L201,139Z"/>
    <path fill="rgb(31, 40, 37)" fill-opacity="0.59" d="M205,99L216,105L200,84Z"/>
    <path fill="rgb(72, 92, 102)" fill-opacity="0.64" d="M250,56L238,59L251,88Z"/>
    <path fill="rgb(149, 176, 192)" fill-opacity="0.46" d="M183,64L172,70L188,67Z"/>
    <path fill="rgb(135, 147, 140)" fill-opacity="0.63" d="M253,96L244,103L230,101Z"/>
    <path fill="rgb(170, 184, 187)" fill-opacity="0.58" d="M216,52L226,43L192,51Z"/>
    <path fill="rgb(21, 24, 26)" fill-opacity="0.65" d="M107,173L74,125L38,178Z"/>
    <path fill="rgb(166, 181, 186)" fill-opacity="0.51" d="M64,13L29,16L65,36Z"/>
    <path fill="rgb(168, 201, 221)" fill-opacity="0.35" d="M202,71L204,60L220,66Z"/>
    <path fill="rgb(88, 92, 91)" fill-opacity="0.53" d="M159,86L162,115L154,83Z"/>
    <path fill="rgb(111, 135, 145)" fill-opacity="0.67" d="M-15,18L110,9L61,3Z"/>
    <path fill="rgb(182, 222, 246)" fill-opacity="0.39" d="M161,61L166,73L161,73Z"/>
    <path fill="rgb(117, 147, 165)" fill-opacity="0.24" d="M61,116L46,91L31,109Z"/>
    <path fill="rgb(1, 6, 11)" fill-opacity="0.31" d="M233,50L239,68L231,68Z"/>
    <path fill="rgb(118, 135, 140)" fill-opacity="0.46" d="M184,114L182,94L192,120Z"/>
    <path fill="rgb(255, 241, 192)" fill-opacity="0.47" d="M204,97L197,97L204,104Z"/>
    <path fill="rgb(92, 116, 128)" fill-opacity="0.68" d="M130,-13L123,-2L202,22Z"/>
    <path fill="rgb(47, 60, 68)" fill-opacity="0.76" d="M39,59L117,62L80,62Z"/>
    <path fill="rgb(93, 111, 118)" fill-opacity="0.51" d="M243,53L224,55L269,35Z"/>
    <path fill="rgb(175, 191, 196)" fill-opacity="0.56" d="M157,26L157,12L168,14Z"/>
    <path fill="rgb(51, 61, 61)" fill-opacity="0.50" d="M259,161L249,154L221,154Z"/>
    <path fill="rgb(244, 251, 253)" fill-opacity="0.38" d="M179,69L165,69L180,68Z"/>
    <path fill="rgb(96, 92, 93)" fill-opacity="0.58" d="M80,118L102,96L86,95Z"/>
    <path fill="rgb(55, 70, 76)" fill-opacity="0.76" d="M181,131L207,132L199,138Z"/>
    <path fill="rgb(2, 9, 14)" fill-opacity="0.26" d="M151,11L151,31L158,13Z"/>
    <path fill="rgb(107, 127, 138)" fill-opacity="1.00" d="M191,71L183,71L196,74Z"/>
    <path fill="rgb(37, 55, 66)" fill-opacity="0.36" d="M224,74L219,79L215,66Z"/>
    <path fill="rgb(253, 255, 253)" fill-opacity="0.22" d="M94,61L109,67L105,70Z"/>
    <path fill="rgb(19, 26, 28)" fill-opacity="0.85" d="M1,115L-19,141L4,134Z"/>
    <path fill="rgb(52, 63, 67)" fill-opacity="0.61" d="M147,63L117,76L155,78Z"/>
    <path fill="rgb(188, 240, 255)" fill-opacity="0.12" d="M-7,83L1,89L30,82Z"/>
    <path fill="rgb(21, 27, 27)" fill-opacity="0.72" d="M247,109L264,116L241,115Z"/>
    <path fill="rgb(135, 163, 175)" fill-opacity="0.33" d="M210,83L208,79L224,83Z"/>
    <path fill="rgb(72, 95, 94)" fill-opacity="0.39" d="M92,60L102,58L96,47Z"/>
    <path fill="rgb(84, 101, 108)" fill-opacity="0.42" d="M28,110L25,121L72,119Z"/>
    <path fill="rgb(165, 183, 189)" fill-opacity="0.64" d="M98,13L101,22L72,17Z"/>
    <path fill="rgb(132, 158, 167)" fill-opacity="0.39" d="M139,4L159,14L154,4Z"/>
    <path fill="rgb(208, 223, 212)" fill-opacity="0.48" d="M121,89L118,93L99,90Z"/>
    <path fill="rgb(117, 109, 94)" fill-opacity="0.63" d="M246,106L241,109L241,113Z"/>
    <path fill="rgb(108, 118, 118)" fill-opacity="0.50" d="M139,78L148,82L133,71Z"/>
    <path fill="rgb(31, 40, 43)" fill-opacity="0.76" d="M213,82L280,99L206,86Z"/>
    <path fill="rgb(36, 45, 45)" fill-opacity="0.49" d="M123,130L120,158L102,130Z"/>
    <path fill="rgb(26, 33, 34)" fill-opacity="0.91" d="M19,92L19,106L-7,93Z"/>
    <path fill="rgb(114, 133, 141)" fill-opacity="0.27" d="M98,120L179,121L90,124Z"/>
    <path fill="rgb(42, 51, 55)" fill-opacity="0.85" d="M68,79L93,82L73,86Z"/>
    <path fill="rgb(28, 37, 39)" fill-opacity="0.57" d="M22,129L15,115L41,128Z"/>
    <path fill="rgb(180, 193, 198)" fill-opacity="0.37" d="M97,47L50,14L78,47Z"/>
    <path fill="rgb(168, 172, 164)" fill-opacity="0.54" d="M170,68L169,58L172,65Z"/>
    <path fill="rgb(130, 147, 156)" fill-opacity="0.38" d="M11,11L2,2L-52,7Z"/>
    <path fill="rgb(119, 141, 149)" fill-opacity="0.65" d="M52,55L53,59L52,65Z"/>
    <path fill="rgb(205, 218, 213)" fill-opacity="0.27" d="M84,13L79,-10L84,-10Z"/>
    <path fill="rgb(207, 216, 218)" fill-opacity="0.40" d="M99,18L104,48L74,33Z"/>
    <path fill="rgb(53, 60, 64)" fill-opacity="0.57" d="M178,55L179,55L174,160Z"/>
    <path fill="rgb(49, 62, 59)" fill-opacity="0.48" d="M108,153L102,144L99,161Z"/>
    <path fill="rgb(114, 131, 115)" fill-opacity="0.53" d="M194,84L197,78L188,84Z"/>
    <path fill="rgb(56, 73, 75)" fill-opacity="0.75" d="M158,110L155,85L155,113Z"/>
    <path fill="rgb(205, 214, 209)" fill-opacity="0.50" d="M103,94L96,80L108,90Z"/>
    <path fill="rgb(124, 138, 120)" fill-opacity="0.31" d="M8,104L-12,111L9,101Z"/>
    <path fill="rgb(12, 10, 11)" fill-opacity="0.21" d="M155,141L203,149L155,291Z"/>
    <path fill="rgb(66, 68, 71)" fill-opacity="0.46" d="M100,118L90,118L83,107Z"/>
    <path fill="rgb(48, 58, 61)" fill-opacity="0.68" d="M5,146L7,129L20,129Z"/>
    <path fill="rgb(237, 238, 237)" fill-opacity="0.23" d="M218,47L143,50L207,41Z"/>
    <path fill="rgb(200, 189, 157)" fill-opacity="0.44" d="M200,91L202,97L202,91Z"/>
    <path fill="rgb(77, 86, 80)" fill-opacity="0.73" d="M158,97L136,113L145,112Z"/>
    <path fill="rgb(63, 75, 81)" fill-opacity="0.85" d="M89,73L72,82L95,74Z"/>
    <path fill="rgb(122, 130, 124)" fill-opacity="0.35" d="M20,88L6,92L18,90Z"/>
    <path fill="rgb(129, 143, 138)" fill-opacity="0.49" d="M30,101L25,109L30,109Z"/>
    <path fill="rgb(76, 84, 68)" fill-opacity="0.45" d="M214,103L226,110L253,104Z"/>
    <path fill="rgb(68, 80, 84)" fill-opacity="0.52" d="M105,82L101,59L100,72Z"/>
    <path fill="rgb(248, 253, 245)" fill-opacity="0.46" d="M103,84L109,90L100,91Z"/>
    <path fill="rgb(86, 109, 123)" fill-opacity="0.34" d="M68,48L36,47L57,53Z"/>
    <path fill="rgb(211, 234, 242)" fill-opacity="0.31" d="M98,64L101,62L80,62Z"/>
    <path fill="rgb(151, 170, 176)" fill-opacity="0.52" d="M188,118L190,112L196,118Z"/>
    <path fill="rgb(5, 25, 50)" fill-opacity="0.65" d="M131,87L131,88L132,88Z"/>
    <path fill="rgb(93, 110, 118)" fill-opacity="0.57" d="M56,105L71,89L71,107Z"/>
    <path fill="rgb(43, 56, 60)" fill-opacity="0.58" d="M155,112L184,111L137,110Z"/>
    <path fill="rgb(233, 237, 237)" fill-opacity="0.65" d="M166,60L153,34L173,48Z"/>
    <path fill="rgb(43, 58, 65)" fill-opacity="0.63" d="M44,81L39,63L46,77Z"/>
    <path fill="rgb(86, 101, 104)" fill-opacity="1.00" d="M57,99L27,103L65,99Z"/>
    <path fill="rgb(38, 48, 50)" fill-opacity="0.38" d="M40,51L40,70L48,54Z"/>
    <path fill="rgb(49, 54, 54)" fill-opacity="0.55" d="M117,51L137,70L125,70Z"/>
</svg>
